<?xml version="1.0" standalone="no"?>
<!DOCTYPE svg PUBLIC "-//W3C//DTD SVG 1.1//EN" "http://www.w3.org/Graphics/SVG/1.1/DTD/svg11.dtd" >
<svg xmlns="http://www.w3.org/2000/svg" xmlns:xlink="http://www.w3.org/1999/xlink" version="1.1">
<metadata>
Created by FontForge 20170731 at Fri Apr 16 13:13:36 2021
 By Aleksey,,,
Copyright (c) 2009 by Hannes von Doehren. All rights reserved.
</metadata>
<defs>
<font id="BrandonGrotesque-BlackItalic" horiz-adv-x="1230" >
  <font-face 
    font-family="Brandon Grotesque Black"
    font-weight="500"
    font-style="italic"
    font-stretch="normal"
    units-per-em="2048"
    panose-1="2 11 10 3 2 2 3 13 2 2"
    ascent="1434"
    descent="-614"
    x-height="819"
    cap-height="1434"
    bbox="-373 -798.314 2212.46 2183.4"
    underline-thickness="102"
    underline-position="-307"
    slope="-8"
    unicode-range="U+0020-FB02"
  />
<missing-glyph horiz-adv-x="1226" 
d="M102 61v1311q0 62 62 62h899q32 0 46.5 -15t14.5 -47v-1311q0 -32 -14.5 -46.5t-46.5 -14.5h-899q-32 0 -47 14.5t-15 46.5zM537 643q0 -10 8.5 -17.5t19.5 -7.5h74q31 0 31 27v53q0 23 16 44.5t40 39t51.5 40.5t51.5 46.5t40 59.5t16 78q0 99 -73 163t-183 64
q-50 0 -96 -13t-75.5 -31.5t-52.5 -36.5t-33 -31l-10 -13q-16 -24 0 -37l46 -45q17 -11 34 0q1 1 15 14.5t20.5 19t23.5 17.5t31.5 17.5t36.5 10.5t45 5q59 0 92 -31t33 -75q0 -35 -21 -65t-50.5 -53t-59 -47.5t-50.5 -59.5t-21 -77v-59zM502 319q0 -40 29 -69t69 -29
q41 0 70.5 29t29.5 69t-29.5 69.5t-70.5 29.5q-40 0 -69 -29.5t-29 -69.5z" />
    <glyph glyph-name="fi" unicode="fi" horiz-adv-x="1112" 
d="M90 559q-15 0 -24 12t-7 27l27 182q1 17 12.5 28t26.5 11h65l27 191q29 207 162 325.5t334 118.5q75 0 154 -28t124 -60q28 -22 8 -55l-98 -162q-20 -34 -57 -14q-70 36 -146 36q-64 0 -111 -44t-57 -121l-26 -187h500q15 0 23.5 -11t6.5 -28l-104 -741
q-3 -16 -14.5 -27.5t-26.5 -11.5h-232q-14 0 -22 11.5t-6 27.5l73 520h-235l-154 -1134q-1 -15 -14 -27t-27 -12h-243q-13 0 -22 12t-7 27l154 1134h-64z" />
    <glyph glyph-name="fl" unicode="fl" horiz-adv-x="1165" 
d="M86 559q-13 0 -22 12t-7 27l27 182q1 17 12.5 28t26.5 11h70l26 191q31 220 148 332t292 112q56 0 108.5 -13t88 -32t62.5 -37.5t40 -31.5l13 -13l43 84q5 8 15.5 15.5t19.5 7.5h96q13 0 22 -12t7 -27l-191 -1356q-1 -15 -14 -27t-27 -12h-235q-13 0 -22 12t-7 27
l149 1061q-13 21 -54 46t-89 25q-64 0 -103.5 -43.5t-50.5 -119.5l-26 -189h104q14 0 23 -11t8 -28l-27 -182q-1 -15 -14 -27t-25 -12h-106l-154 -1134q-1 -15 -14 -27t-27 -12h-243q-13 0 -22 12t-7 27l156 1134h-70z" />
    <glyph glyph-name="f_f" unicode="ff" horiz-adv-x="1292" 
d="M92 559q-15 0 -24 12t-7 27l27 182q1 17 13 28t26 11h63l23 158q30 215 160 336t303 121q175 0 276 -101q108 121 297 121q76 0 143.5 -25t90.5 -53q6 -8 6.5 -22t-6.5 -25l-99 -160q-7 -11 -17.5 -15.5t-25.5 1.5q-44 23 -96 23q-99 0 -123 -170l-26 -189h159
q15 0 23.5 -11t7.5 -28l-26 -182q-2 -15 -14 -27t-27 -12h-158l-154 -1134q-3 -15 -15.5 -27t-25.5 -12h-245q-13 0 -23 12t-8 27l153 1134h-272l-154 -1134q-1 -15 -14 -27t-27 -12h-245q-13 0 -23 12t-8 27l154 1134h-62zM508 819h272l27 189q2 16 7.5 48t6.5 38
q-41 63 -129 63q-64 0 -108.5 -51t-55.5 -129z" />
    <glyph glyph-name="f_f_i" unicode="ffi" horiz-adv-x="1703" 
d="M90 559q-15 0 -23.5 12t-5.5 27l25 182q3 17 14.5 28t26.5 11h63l25 158q34 217 161 337t302 120q173 0 274 -101q127 121 322 121q81 0 158.5 -26.5t128.5 -57.5q14 -8 16 -23t-8 -32l-109 -170q-7 -12 -22 -16.5t-25 1.5q-73 41 -158 41q-50 0 -85.5 -41t-47.5 -122
l-26 -189h499q15 0 23.5 -11t7.5 -28l-104 -741q-3 -16 -14.5 -27.5t-26.5 -11.5h-234q-15 0 -23 12t-5 27l71 520h-231l-150 -1134q-3 -15 -15.5 -27t-25.5 -12h-247q-14 0 -23 12t-6 27l149 1134h-270l-152 -1134q-2 -15 -13.5 -27t-24.5 -12h-248q-14 0 -23 12t-6 27
l150 1134h-64zM508 819h270l27 189q2 14 8 43.5t8 40.5q-42 65 -131 65q-63 0 -106 -51t-54 -129z" />
    <glyph glyph-name="f_f_l" unicode="ffl" horiz-adv-x="1759" 
d="M92 559q-15 0 -24 12t-7 27l27 182q1 17 13 28t26 11h63l23 158q29 210 159 333.5t302 123.5t278 -101q51 56 129 88.5t172 32.5q56 0 108.5 -13t88 -32t62.5 -37.5t40 -31.5l13 -13l43 84q14 23 34 23h97q13 0 21.5 -12t6.5 -27l-190 -1356q-1 -15 -14 -27t-27 -12h-236
q-13 0 -21.5 12t-6.5 27l149 1061q-13 21 -54 46t-89 25q-64 0 -103.5 -43.5t-50.5 -119.5l-28 -189h102q14 0 23 -11t8 -28l-27 -180q-1 -15 -14 -27t-27 -12h-100l-154 -1136q-3 -15 -15.5 -27t-25.5 -12h-245q-13 0 -23 12t-8 27l153 1134h-272l-154 -1134
q-1 -15 -14 -27t-27 -12h-245q-13 0 -23 12t-8 27l154 1134h-62zM508 819h272l27 189q2 15 7.5 45t6.5 39q-42 65 -129 65q-64 0 -108.5 -51t-55.5 -129z" />
    <glyph glyph-name="f_f_h" unicode="ffh" horiz-adv-x="2254" 
d="M92 559q-15 0 -24 12t-7 27l27 182q1 17 13 28t26 11h63l23 158q29 214 152.5 335.5t308.5 121.5q172 0 278 -101q51 56 129 88.5t172 32.5q56 0 108.5 -13t88 -32t62.5 -37.5t40 -31.5l13 -13l43 84q14 23 34 23h97q13 0 21.5 -12t6.5 -27l-86 -602q71 47 162 47
q105 0 182 -60t109 -158.5t16 -211.5l-51 -371q-3 -15 -15.5 -27t-25.5 -12h-227q-14 0 -22.5 11.5t-6.5 27.5l51 371q11 69 -18 115t-86 46q-100 0 -121 -161l-51 -371q-3 -21 -13 -30t-34 -9h-232q-14 0 -22.5 12t-5.5 27l151 1061q-13 21 -54 46t-89 25
q-64 0 -103.5 -43.5t-50.5 -119.5l-28 -189h102q14 0 23 -11t8 -28l-27 -182q-1 -15 -14 -27t-27 -12h-100l-154 -1134q-3 -15 -15.5 -27t-25.5 -12h-245q-13 0 -23 12t-8 27l153 1134h-272l-154 -1134q-1 -15 -14 -27t-27 -12h-245q-13 0 -23 12t-8 27l154 1134h-62z
M508 819h272l27 189q2 15 7.5 45t6.5 39q-42 65 -129 65q-64 0 -108.5 -51t-55.5 -129z" />
    <glyph glyph-name="f_k" unicode="fk" horiz-adv-x="1626" 
d="M86 559q-13 0 -22 12t-7 27l27 182q1 17 12.5 28t26.5 11h70l26 191q31 220 148.5 332t291.5 112q56 0 108.5 -13t88 -32t62.5 -37.5t40 -31.5l13 -13l35 68q20 39 55 39h84q13 0 22 -12t7 -27l-125 -887l229 287q20 24 49 24h258q25 0 33 -20t-10 -43l-293 -344
l198 -351q12 -21 0 -41t-36 -20h-252q-19 0 -25 16l-170 357l-47 -334q-3 -15 -15.5 -27t-25.5 -12h-235q-14 0 -23 12t-6 27l149 1061q-13 21 -54 46t-89 25q-64 0 -103.5 -43.5t-50.5 -119.5l-26 -189h104q14 0 23 -11t8 -28l-27 -182q-1 -15 -14 -27t-25 -12h-106
l-154 -1134q-1 -15 -14 -27t-27 -12h-243q-13 0 -22 12t-7 27l156 1134h-70z" />
    <glyph glyph-name="f_j" unicode="fj" horiz-adv-x="1196" 
d="M90 559q-15 0 -24 12t-7 27l27 182q1 17 12.5 28t26.5 11h65l27 191q30 211 162 327.5t354 116.5q88 0 170.5 -27.5t128.5 -60.5q28 -22 8 -55l-98 -162q-19 -33 -57 -14q-75 36 -166 36q-73 0 -126 -44t-63 -121l-26 -187h581q15 0 24.5 -11t6.5 -28l-133 -968
q-61 -447 -491 -447q-25 0 -38 7.5t-10 31.5l27 219q2 18 12.5 27t17 9.5t21.5 0.5q68 0 107 48t49 116l106 735h-317l-154 -1134q-1 -15 -14 -27t-27 -12h-243q-13 0 -22 12t-7 27l154 1134h-64z" />
    <glyph glyph-name="f_f_j" unicode="ffj" horiz-adv-x="1804" 
d="M90 559q-15 0 -23.5 12t-5.5 27l25 182q3 17 14.5 28t26.5 11h63l25 158q34 216 162 336.5t301 120.5q175 0 276 -101q127 121 320 121q84 0 162 -25.5t125 -58.5q28 -21 8 -55l-111 -170q-7 -12 -22 -16.5t-25 1.5q-80 41 -166 41q-100 0 -123 -163l-26 -189h598
q15 0 24 -11t6 -28l-133 -968q-61 -447 -491 -447q-25 0 -37.5 7.5t-9.5 31.5l26 219q2 18 12.5 27t17 9.5t21.5 0.5q68 0 107 48t49 116l107 735h-334l-150 -1134q-3 -15 -15.5 -27t-25.5 -12h-247q-14 0 -23 12t-6 27l149 1134h-270l-152 -1134q-2 -15 -13.5 -27
t-24.5 -12h-248q-14 0 -23 12t-6 27l150 1134h-64zM508 819h270l29 195q2 15 7 41t7 37q-42 65 -131 65q-63 0 -106 -51t-54 -129z" />
    <glyph glyph-name="f_b" unicode="fb" horiz-adv-x="1624" 
d="M86 559q-13 0 -22 12t-7 27l27 182q1 17 12.5 28t26.5 11h70l26 191q31 221 147.5 332.5t292.5 111.5q56 0 108.5 -13t88 -32t62.5 -37.5t40 -31.5l13 -13l35 68q20 39 55 39h84q13 0 22 -12t7 -27l-84 -588q59 33 127 33q143 0 239 -109t96 -266q0 -129 -57.5 -240.5
t-157.5 -178t-219 -66.5q-47 0 -88.5 13.5t-67 32t-44.5 37.5t-27 33l-8 13q-8 -12 -22.5 -44.5t-27 -48.5t-30.5 -16h-96q-14 0 -23 12t-6 27l149 1061q-13 21 -54 46t-89 25q-64 0 -103.5 -43.5t-50.5 -119.5l-26 -189h104q14 0 23 -11t8 -28l-27 -182q-1 -15 -14 -27
t-25 -12h-106l-154 -1134q-1 -15 -14 -27t-27 -12h-243q-13 0 -22 12t-7 27l156 1134h-70zM997 385q0 -58 33 -98.5t80 -40.5q62 0 110 55t48 133q0 58 -31 97.5t-78 39.5q-66 0 -114 -56t-48 -130z" />
    <glyph glyph-name="f_f_k" unicode="ffk" horiz-adv-x="2217" 
d="M92 559q-15 0 -24 12t-7 27l27 182q1 17 13 28t26 11h63l23 158q29 210 159 333.5t302 123.5t278 -101q51 56 129 88.5t172 32.5q56 0 108.5 -13t88 -32t62.5 -37.5t40 -31.5l13 -13l43 84q14 23 34 23h97q13 0 21.5 -12t6.5 -27l-125 -885l228 285q20 24 49 24h258
q25 0 33 -20t-10 -43l-293 -344l198 -351q12 -21 -0.5 -41t-36.5 -20h-251q-19 0 -25 16l-170 353l-45 -330q-3 -15 -15.5 -27t-25.5 -12h-236q-14 0 -22.5 12t-5.5 27l149 1061q-13 21 -54 46t-89 25q-64 0 -103.5 -43.5t-50.5 -119.5l-28 -189h102q14 0 23 -11t8 -28
l-27 -180q-1 -15 -14 -27t-27 -12h-100l-154 -1136q-3 -15 -15.5 -27t-25.5 -12h-245q-13 0 -23 12t-8 27l153 1134h-272l-154 -1134q-1 -15 -14 -27t-27 -12h-245q-13 0 -23 12t-8 27l154 1134h-62zM508 819h272l27 189q2 15 7.5 45t6.5 39q-42 65 -129 65
q-64 0 -108.5 -51t-55.5 -129z" />
    <glyph glyph-name="f_h" unicode="fh" horiz-adv-x="1662" 
d="M86 559q-13 0 -22 12t-7 27l27 182q1 17 12.5 28t26.5 11h70l26 191q31 220 148 332t292 112q56 0 108.5 -13t88 -32t62.5 -37.5t40 -31.5l13 -13l35 68q20 39 55 39h84q13 0 22 -12t7 -27l-87 -602q36 24 83 35.5t79 11.5q109 0 186 -60.5t107.5 -158t13.5 -211.5
l-51 -371q-3 -15 -15.5 -27t-25.5 -12h-227q-14 0 -22.5 11.5t-6.5 27.5l52 371q11 69 -18 115t-87 46q-38 0 -74 -39t-47 -122l-51 -371q-3 -21 -13 -30t-34 -9h-231q-14 0 -23 12t-6 27l151 1061q-13 21 -54 46t-89 25q-64 0 -103.5 -43.5t-50.5 -119.5l-26 -189h104
q14 0 23 -11t8 -28l-27 -182q-1 -15 -14 -27t-25 -12h-106l-154 -1134q-1 -15 -14 -27t-27 -12h-243q-13 0 -22 12t-7 27l156 1134h-70z" />
    <glyph glyph-name="f_f_b" unicode="ffb" horiz-adv-x="2217" 
d="M92 559q-15 0 -24 12t-7 27l27 182q1 17 13 28t26 11h63l23 158q29 211 157 334t304 123q172 0 278 -101q51 56 129 88.5t172 32.5q56 0 108.5 -13t88 -32t62.5 -37.5t40 -31.5l13 -13l43 84q14 23 34 23h97q13 0 21.5 -12t6.5 -27l-84 -588q59 33 127 33
q143 0 239.5 -109t96.5 -266q0 -130 -55.5 -241t-156 -177.5t-222.5 -66.5q-47 0 -88.5 13.5t-67 32t-44.5 37.5t-27 33l-8 13q-8 -12 -22.5 -44.5t-27 -48.5t-30.5 -16h-97q-14 0 -22.5 12t-5.5 27l149 1061q-13 21 -54 46t-89 25q-64 0 -103.5 -43.5t-50.5 -119.5
l-28 -189h102q14 0 23 -11t8 -28l-27 -180q-1 -15 -14 -27t-27 -12h-100l-154 -1136q-3 -15 -15.5 -27t-25.5 -12h-245q-13 0 -23 12t-8 27l153 1134h-272l-154 -1134q-1 -15 -14 -27t-27 -12h-245q-13 0 -23 12t-8 27l154 1134h-62zM508 819h272l27 189q2 15 7.5 45t6.5 39
q-42 65 -129 65q-64 0 -108.5 -51t-55.5 -129zM1591 385q0 -58 33 -98.5t80 -40.5q62 0 110 55t48 133q0 58 -31 97.5t-78 39.5q-66 0 -114 -56t-48 -130z" />
    <glyph glyph-name=".notdef" horiz-adv-x="1226" 
d="M102 61v1311q0 62 62 62h899q32 0 46.5 -15t14.5 -47v-1311q0 -32 -14.5 -46.5t-46.5 -14.5h-899q-32 0 -47 14.5t-15 46.5zM537 643q0 -10 8.5 -17.5t19.5 -7.5h74q31 0 31 27v53q0 23 16 44.5t40 39t51.5 40.5t51.5 46.5t40 59.5t16 78q0 99 -73 163t-183 64
q-50 0 -96 -13t-75.5 -31.5t-52.5 -36.5t-33 -31l-10 -13q-16 -24 0 -37l46 -45q17 -11 34 0q1 1 15 14.5t20.5 19t23.5 17.5t31.5 17.5t36.5 10.5t45 5q59 0 92 -31t33 -75q0 -35 -21 -65t-50.5 -53t-59 -47.5t-50.5 -59.5t-21 -77v-59zM502 319q0 -40 29 -69t69 -29
q41 0 70.5 29t29.5 69t-29.5 69.5t-70.5 29.5q-40 0 -69 -29.5t-29 -69.5z" />
    <glyph glyph-name=".null" horiz-adv-x="0" 
 />
    <glyph glyph-name="nonmarkingreturn" horiz-adv-x="682" 
 />
    <glyph glyph-name="space" unicode=" " horiz-adv-x="458" 
 />
    <glyph glyph-name="exclam" unicode="!" horiz-adv-x="636" 
d="M272 557q-12 0 -21 10.5t-9 22.5l-21 571l33 234q2 15 14 27t25 12h293q13 0 22.5 -12t7.5 -27l-32 -230l-185 -575q-3 -12 -15 -22.5t-24 -10.5h-88zM72 150q0 87 66 153t149 66q71 0 119.5 -51.5t48.5 -122.5q0 -86 -68 -150.5t-154 -64.5q-68 0 -114.5 50t-46.5 120z
" />
    <glyph glyph-name="quotedbl" unicode="&#x22;" horiz-adv-x="720" 
d="M504 1026q-13 0 -22 12t-7 27l47 330q2 15 14 27t25 12h219q19 0 27.5 -15t-0.5 -37l-141 -325q-5 -12 -16 -21.5t-23 -9.5h-123zM160 1026q-13 0 -22 12t-7 27l47 330q2 15 14 27t25 12h219q18 0 26 -15.5t1 -36.5l-141 -325q-16 -31 -39 -31h-123z" />
    <glyph glyph-name="numbersign" unicode="#" horiz-adv-x="1009" 
d="M117 45l86 334h-131q-14 0 -22.5 11.5t-6.5 27.5l4 35q1 17 13.5 28t27.5 11h143l91 329h-136q-13 0 -21.5 12t-6.5 27l4 35q1 15 14 27t27 12h147l125 467q3 12 14 22.5t23 10.5h37q14 0 22 -13.5t4 -31.5l-118 -455h299l123 467q3 12 15 22.5t24 10.5h34q17 0 25.5 -13
t3.5 -32l-119 -455h107q14 0 22 -11.5t6 -27.5l-4 -35q-1 -15 -14 -27t-27 -12h-123l-86 -329h111q14 0 22 -11t7 -28l-4 -35q-1 -15 -15 -27t-28 -12h-125l-90 -346q-3 -14 -14.5 -23.5t-24.5 -9.5h-33q-17 0 -25.5 13t-3.5 32l88 334h-303l-88 -346q-3 -13 -15 -23
t-24 -10h-33q-18 0 -25.5 13t-2.5 32zM338 492h301l86 329h-299z" />
    <glyph glyph-name="dollar" unicode="$" horiz-adv-x="1009" 
d="M25 137q-12 17 -13 25.5t13 32.5l108 155q12 19 35 21t31 -9q55 -48 96 -67q49 -22 108 -27l46 316q-11 9 -50.5 38.5t-56 43t-51.5 44t-52 51t-42 54t-37 62.5t-21.5 67t-9.5 78q0 81 27.5 154.5t80.5 134t139.5 98.5t194.5 43l11 66q3 17 16 27.5t29 10.5h18
q15 0 24.5 -10.5t6.5 -27.5l-10 -68q179 -17 338 -145q15 -12 19.5 -34t-7.5 -36l-125 -152q-12 -14 -33 -17t-33 7q-84 70 -198 98l-41 -274q13 -10 47 -33.5t56 -39t56.5 -44t57.5 -52t49.5 -58t42.5 -68t26.5 -76.5t10.5 -88q0 -87 -30.5 -166t-88 -142.5t-150 -103.5
t-206.5 -44l-29 -213q-1 -15 -14.5 -26t-28.5 -11h-18q-15 0 -25.5 11t-9.5 26l30 213q-190 16 -337 155zM502 942l35 240q-49 -10 -73 -42t-24 -73q0 -69 62 -125zM494 258q44 14 71 50.5t27 90.5q0 66 -62 131z" />
    <glyph glyph-name="percent" unicode="%" 
d="M338 903q-89 0 -152 70t-63 170q0 130 83.5 220.5t207.5 90.5q88 0 150.5 -69t62.5 -168q0 -130 -84.5 -222t-204.5 -92zM115 55l827 1358q10 21 35 21h121q20 0 27 -18t-5 -38l-827 -1358q-15 -20 -33 -20h-121q-22 0 -29 17.5t5 37.5zM367 1102q27 0 43 24.5t16 63.5
q0 65 -45 65q-27 0 -43 -26t-16 -64q0 -28 11.5 -45.5t33.5 -17.5zM618 219q0 130 83.5 220.5t207.5 90.5q88 0 150.5 -69t62.5 -168q0 -130 -84 -221.5t-204 -91.5q-89 0 -152.5 69.5t-63.5 169.5zM817 242q0 -28 11.5 -46t33.5 -18q27 0 43.5 24.5t16.5 63.5q0 66 -45 66
q-27 0 -43.5 -26t-16.5 -64z" />
    <glyph glyph-name="ampersand" unicode="&#x26;" horiz-adv-x="1357" 
d="M115 369q8 60 30.5 115.5t52 96.5t64 76.5t67 59t59 40t42.5 23.5l16 8v7l-34 43q-55 70 -80.5 132.5t-22.5 141.5q2 65 27.5 124t74 109t131 79.5t187.5 29.5q155 0 250.5 -88.5t95.5 -235.5q0 -67 -28 -131t-67.5 -107.5t-79 -77.5t-67.5 -50l-28 -16l160 -195
q53 74 90 164q7 16 11 25t12 20t15.5 14.5t19.5 3t26 -7.5l131 -67q12 -6 19 -15t9.5 -15.5t1 -18t-3 -16t-7 -17t-5.5 -13.5q-28 -64 -69.5 -129t-68.5 -100l-28 -35l139 -158q14 -17 18 -25t-2.5 -26.5t-33.5 -42.5l-102 -90q-45 -41 -86 6l-107 123q-7 -6 -21 -16.5
t-60.5 -37t-95.5 -47t-124 -37t-149 -15.5q-117 1 -209.5 53.5t-138 141.5t-31.5 194zM674 924q5 2 14.5 6.5t33.5 20t43.5 34t37.5 48t22 61.5q6 54 -29.5 92.5t-97.5 38.5q-54 0 -91.5 -32t-37.5 -79q0 -18 3 -33.5t13 -33.5t14 -25t20 -29t18 -24zM401 430
q-12 -87 32.5 -138.5t123.5 -51.5q43 0 82 10.5t64 25.5t44 30t27 26l8 10l-209 285q-6 -2 -16.5 -6.5t-38 -21t-49.5 -37t-42.5 -56t-25.5 -76.5z" />
    <glyph glyph-name="quotesingle" unicode="'" horiz-adv-x="374" 
d="M160 1026q-13 0 -22 12t-7 27l47 330q2 15 14 27t25 12h217q18 0 26 -15.5t1 -36.5l-142 -325q-15 -31 -38 -31h-121z" />
    <glyph glyph-name="parenleft" unicode="(" horiz-adv-x="673" 
d="M82 422q0 179 20.5 327t54.5 251.5t83.5 183.5t102 128t115.5 79.5t118 44.5t116 16q15 1 24 -10t7 -27l-16 -174q-2 -11 -11.5 -23.5t-19.5 -15.5q-58 -21 -106.5 -70.5t-90.5 -136.5t-66 -230.5t-24 -330.5q0 -290 131 -346q9 -4 15 -16t4 -23l-31 -172q-7 -39 -43 -39
q-57 4 -108.5 23.5t-103 63t-88.5 107t-60 164t-23 226.5z" />
    <glyph glyph-name="parenright" unicode=")" horiz-adv-x="677" 
d="M-8 51q4 28 31 37q58 22 106.5 71t90.5 135.5t65.5 229t23.5 328.5q0 139 -32 233t-99 119q-10 3 -16.5 14.5t-3.5 24.5l32 172q3 15 17 26.5t29 10.5q56 -4 107.5 -24t102 -64t87.5 -107.5t60 -163.5t23 -225q0 -182 -21 -331.5t-54.5 -253t-83.5 -182.5t-101.5 -125.5
t-115.5 -77.5t-117 -43t-115 -17q-15 0 -25.5 11t-9.5 26z" />
    <glyph glyph-name="asterisk" unicode="*" horiz-adv-x="706" 
d="M328 711q-14 0 -24 12t-7 27l31 184l-154 -105q-12 -8 -25.5 -4t-19.5 15l-37 71q-8 13 -4.5 30t18.5 26l181 104l-148 107q-11 8 -12.5 24.5t8.5 30.5l62 72q9 11 21.5 13t23.5 -5l125 -105l22 187q1 15 13 27t26 12h86q14 0 24 -12t7 -27l-29 -187l156 105q12 7 25.5 4
t19.5 -14l39 -70q8 -12 2 -30t-21 -27l-176 -105l146 -106q12 -9 13.5 -26.5t-9.5 -27.5l-64 -71q-27 -27 -47 -11l-123 103l-24 -182q-1 -15 -13 -27t-26 -12h-86z" />
    <glyph glyph-name="plus" unicode="+" horiz-adv-x="1036" 
d="M369 301l41 299h-260q-13 0 -22 12t-7 27l20 143q1 15 13 27t26 12h260l43 301q1 15 14 26t27 11h158q13 0 22 -11t7 -26l-43 -301h260q13 0 21.5 -12t6.5 -27l-20 -143q-2 -15 -14 -27t-25 -12h-260l-41 -299q-3 -15 -15 -26t-26 -11h-158q-14 0 -22.5 11t-5.5 26z" />
    <glyph glyph-name="comma" unicode="," horiz-adv-x="559" 
d="M2 147q0 89 69.5 153.5t168.5 64.5q34 0 67.5 -14t63.5 -42t48.5 -78.5t18.5 -115.5q0 -90 -25.5 -174t-60.5 -140t-82 -106.5t-78 -75t-61 -43.5q-42 -25 -59 2l-35 55q-6 7 -2 23t18 27q16 11 32.5 23.5t49.5 44.5t58.5 66t49 84t31.5 101l-34 -12q-38 -10 -78 -10
q-67 0 -113.5 49t-46.5 118z" />
    <glyph glyph-name="hyphen" unicode="-" horiz-adv-x="690" 
d="M100 365q-15 0 -22.5 10t-5.5 26l24 187q1 17 13.5 28t27.5 11h430q15 0 23 -11t6 -28l-25 -187q-1 -15 -13.5 -25.5t-27.5 -10.5h-430z" />
    <glyph glyph-name="period" unicode="." horiz-adv-x="495" 
d="M2 150q0 87 66.5 153t150.5 66q70 0 118 -51.5t48 -122.5q0 -86 -67 -150.5t-152 -64.5q-70 0 -117 50t-47 120z" />
    <glyph glyph-name="slash" unicode="/" horiz-adv-x="724" 
d="M2 0q-19 0 -26.5 14.5t1.5 36.5l551 1356q12 27 39 27h209q20 0 27 -15t-2 -37l-549 -1355q-12 -27 -39 -27h-211z" />
    <glyph glyph-name="zero" unicode="0" horiz-adv-x="1181" 
d="M514 -20q-180 0 -287.5 148.5t-107.5 397.5q0 267 69 467t202.5 311t316.5 111q179 0 287 -148.5t108 -396.5q0 -266 -71.5 -467.5t-205 -312t-311.5 -110.5zM551 293q67 0 118.5 78.5t77 205t25.5 277.5q0 116 -26 182t-76 66q-66 0 -117 -77.5t-77.5 -204.5t-26.5 -279
q0 -114 26.5 -181t75.5 -67z" />
    <glyph glyph-name="one" unicode="1" horiz-adv-x="743" 
d="M195 39l129 922h-187q-14 0 -21 11.5t-3 26.5l22 138q3 17 21 30l303 226h194q13 0 21 -12t6 -27l-184 -1315q-2 -15 -14 -27t-25 -12h-234q-15 0 -23 12t-5 27z" />
    <glyph glyph-name="two" unicode="2" horiz-adv-x="989" 
d="M10 0q-14 0 -22 11.5t-6 27.5l4 41l544 694q64 82 89.5 135t25.5 99q0 58 -38 90t-89 32q-96 0 -184 -102q-12 -12 -27 -12t-24 12l-119 135q-9 9 -7.5 25.5t13.5 28.5q6 8 17 21t50 47t81.5 60t110 47t138.5 21q179 0 282 -103.5t103 -273.5q0 -165 -170 -391l-282 -383
h293q13 0 21.5 -12t6.5 -27l-24 -184q-1 -15 -14 -27t-27 -12h-746z" />
    <glyph glyph-name="three" unicode="3" horiz-adv-x="983" 
d="M8 162q-7 12 -4 27t14 24l127 121q11 10 25 10t25 -10q13 -13 30 -27t60 -34.5t82 -20.5q83 0 131.5 52.5t48.5 129.5q0 62 -48.5 105t-125.5 43h-103q-13 0 -21.5 12t-6.5 27l22 170q1 17 12.5 27.5t26.5 10.5h105q93 0 147.5 51.5t54.5 129.5q0 56 -30.5 93.5
t-79.5 37.5q-37 0 -71 -16t-48.5 -29.5t-36.5 -36.5q-10 -12 -25 -12.5t-24 10.5l-115 137q-9 11 -6.5 26.5t14.5 26.5q23 22 36.5 34t54 41t77 45.5t94 31t117.5 14.5q149 0 255 -94t106 -234q0 -67 -23 -130.5t-60 -110.5t-77 -80.5t-80 -52.5v-6q67 -34 122.5 -112
t55.5 -183q0 -187 -130.5 -308.5t-360.5 -121.5q-75 0 -141 20t-110.5 52t-72 58.5t-43.5 51.5z" />
    <glyph glyph-name="four" unicode="4" horiz-adv-x="1128" 
d="M29 289q-15 0 -24 12t-7 27l31 217l753 858q12 12 29 12h154q14 0 22.5 -11t5.5 -28l-114 -839h145q13 0 22 -11t7 -26l-23 -170q-1 -15 -14 -27t-27 -12h-145l-33 -252q-1 -15 -14 -27t-27 -12h-225q-14 0 -23 12t-6 27l35 250h-522zM332 543h260l53 366z" />
    <glyph glyph-name="five" unicode="5" horiz-adv-x="1007" 
d="M49 150q-15 23 -14.5 37t20.5 32q68 64 131 117q9 9 25 9t25 -9q80 -80 190 -80q73 0 136 65t63 158q0 72 -41 120t-109 48h-278q-26 0 -38 22t-9 50l90 635q2 15 14 27t27 12h602q13 0 21.5 -12t6.5 -27l-24 -180q-1 -15 -14 -27t-27 -12h-363l-30 -220h114
q160 0 259.5 -114.5t99.5 -286.5q0 -152 -58 -271t-178.5 -191t-288.5 -72q-115 0 -213 55.5t-139 114.5z" />
    <glyph glyph-name="six" unicode="6" horiz-adv-x="1021" 
d="M72 434q0 145 33.5 275.5t87.5 226t126 177.5t144 137t147.5 96.5t130 62.5t97.5 31q16 3 29.5 -5.5t17.5 -29.5l37 -152q10 -42 -43 -59q-37 -12 -73.5 -27t-93.5 -45.5t-102 -65.5t-88 -88.5t-63 -113.5q80 39 172 39q124 0 217.5 -106.5t93.5 -272.5
q0 -146 -64.5 -268.5t-178 -194t-250.5 -71.5q-170 0 -273.5 128.5t-103.5 325.5zM483 262q79 0 133 66.5t54 158.5q0 71 -37 120.5t-94 49.5q-69 0 -120.5 -51t-62.5 -147q-9 -79 30 -138t97 -59z" />
    <glyph glyph-name="seven" unicode="7" horiz-adv-x="952" 
d="M25 0q-17 0 -26.5 10t-6.5 25l4 26l600 1069h-391q-13 0 -23 12t-8 27l27 185q1 15 14 27t27 12h786q13 0 22 -12t7 -27l-2 -15l-756 -1314q-14 -25 -43 -25h-231z" />
    <glyph glyph-name="eight" unicode="8" horiz-adv-x="1087" 
d="M55 324q0 65 26.5 128t62 107t78.5 81.5t70 55.5t42 25v6q-57 41 -102.5 111t-45.5 161q0 186 129 300t332 114q159 0 273 -91.5t114 -236.5q0 -54 -17.5 -105.5t-42 -89.5t-59 -74t-61.5 -57.5t-57 -41.5l-2 -8q30 -21 57.5 -46.5t57.5 -63t47.5 -87.5t17.5 -104
q0 -184 -138.5 -306t-371.5 -122q-178 0 -294 98.5t-116 245.5zM584 856q64 30 100.5 77.5t36.5 102.5q0 44 -25.5 77.5t-66.5 33.5q-54 0 -94.5 -46t-40.5 -108q0 -40 24.5 -77t65.5 -60zM389 371q0 -54 30.5 -87.5t78.5 -33.5q58 0 102.5 47.5t44.5 118.5q0 46 -26.5 89
t-75.5 62q-70 -26 -112 -80t-42 -116z" />
    <glyph glyph-name="nine" unicode="9" horiz-adv-x="1021" 
d="M174 0l-37 152q-10 42 43 59q37 12 73.5 27t93.5 45.5t102 65.5t88 88.5t63 113.5q-80 -39 -172 -39q-124 0 -217.5 106.5t-93.5 272.5q0 146 64.5 268.5t178 194t250.5 71.5q170 0 273.5 -128.5t103.5 -325.5q0 -145 -33.5 -275.5t-87.5 -226t-126 -177.5t-144 -137
t-147.5 -96.5t-130 -62.5t-97.5 -31q-16 -3 -29.5 5.5t-17.5 29.5zM520 748q69 0 120 50.5t62 147.5q9 79 -30 138t-97 59q-78 0 -132 -66.5t-54 -158.5q0 -71 37 -120.5t94 -49.5z" />
    <glyph glyph-name="colon" unicode=":" horiz-adv-x="507" 
d="M246 512q-58 0 -95.5 41t-37.5 100q0 74 54 129.5t124 55.5q59 0 97 -42t38 -102q0 -74 -54.5 -128t-125.5 -54zM39 123q0 75 53.5 129.5t124.5 54.5q58 0 96.5 -42t38.5 -101q0 -74 -54.5 -128t-125.5 -54q-58 0 -95.5 41t-37.5 100z" />
    <glyph glyph-name="semicolon" unicode=";" horiz-adv-x="471" 
d="M203 512q-58 0 -95.5 41t-37.5 100q0 74 54 129.5t124 55.5q59 0 97 -42t38 -102q0 -74 -54.5 -128t-125.5 -54zM4 106q0 68 52 117t126 49q56 0 101 -47.5t45 -142.5q0 -245 -230 -414q-24 -19 -37 -2l-28 39q-18 25 10 43q13 8 33.5 26t49.5 49t53 77t32 94l-38 -10
q-25 -4 -48 -4q-52 0 -86.5 36t-34.5 90z" />
    <glyph glyph-name="less" unicode="&#x3c;" horiz-adv-x="815" 
d="M35 430q-17 13 -15 35l3 14q2 16 22 31l711 434q19 11 34.5 3t12.5 -29l-31 -195q-3 -20 -18 -29l-367 -231l303 -223q13 -8 10 -27l-20 -170q-3 -25 -20.5 -35t-34.5 2z" />
    <glyph glyph-name="equal" unicode="=" horiz-adv-x="929" 
d="M160 678q-13 0 -23 12t-8 27l21 143q1 15 13.5 27t26.5 12h641q14 0 22.5 -11.5t6.5 -27.5l-20 -143q-2 -15 -13 -27t-26 -12h-641zM98 246q-14 0 -22.5 12t-5.5 27l20 145q2 15 14 27t25 12h641q15 0 24 -12t7 -27l-21 -145q-2 -15 -14 -27t-27 -12h-641z" />
    <glyph glyph-name="greater" unicode="&#x3e;" horiz-adv-x="815" 
d="M35 10q-17 -11 -33.5 -2.5t-13.5 29.5l28 194q3 21 19 29l364 223l-301 232q-13 9 -10 26l23 170q3 24 21.5 34.5t33.5 -1.5l588 -434q17 -10 14 -31l-2 -18q-3 -19 -23 -31z" />
    <glyph glyph-name="question" unicode="?" horiz-adv-x="870" 
d="M285 557q-14 0 -23 11t-6 28l12 86q7 50 41.5 98t77.5 85.5t85 74t70.5 78t28.5 82.5q0 35 -25 58.5t-65 23.5q-88 0 -178 -80q-32 -28 -53 -4l-111 133q-10 11 -8 27.5t14 27.5q24 23 36 34t55 41t82.5 46.5t103 31.5t131.5 15q136 0 240 -88.5t104 -220.5
q0 -71 -33 -138t-80.5 -116t-96 -91.5t-85 -82t-41.5 -70.5l-8 -51q-3 -17 -14.5 -28t-26.5 -11h-227zM156 150q0 87 66 153t149 66q71 0 119.5 -51.5t48.5 -122.5q0 -86 -68 -150.5t-154 -64.5q-68 0 -114.5 50t-46.5 120z" />
    <glyph glyph-name="at" unicode="@" horiz-adv-x="1867" 
d="M35 334q0 157 35.5 303.5t101 269.5t160 225t209.5 173t253 110t287 39q166 0 302.5 -56.5t228 -158t141 -242t49.5 -307.5q0 -97 -19.5 -194t-62.5 -191t-105 -165.5t-154 -115.5t-201 -44q-158 0 -201 159h-15q-43 -69 -114 -114t-156 -45q-86 0 -153 53t-101.5 137
t-34.5 180q0 129 56.5 242t153 180.5t206.5 67.5q44 0 82 -13t61 -32t39.5 -37.5t23.5 -31.5l7 -13l35 78q16 28 45 28h84q14 0 23 -11t8 -28l-49 -344q-28 -200 69 -200q47 0 84.5 45.5t59.5 115.5t33.5 144.5t11.5 142.5q0 148 -50.5 261.5t-160 182t-267.5 68.5
q-214 0 -381.5 -106t-260.5 -296.5t-93 -433.5q0 -193 88.5 -352.5t237.5 -232.5q10 -7 14.5 -20t-0.5 -27l-84 -168q-22 -36 -49 -25q-139 54 -248.5 178.5t-169 287.5t-59.5 333zM739 367q0 -53 29.5 -89t69.5 -36q51 0 96.5 62.5t46.5 152.5q1 65 -29 101t-73 36
q-54 0 -97 -66.5t-43 -160.5z" />
    <glyph glyph-name="A" unicode="A" 
d="M-51 0q-21 0 -28.5 16.5t3.5 36.5l776 1379q15 22 35 22h19q21 0 28 -22l385 -1379q6 -20 -5.5 -36.5t-33.5 -16.5h-231q-29 0 -44.5 11t-21.5 40l-34 162h-453l-80 -164q-22 -49 -82 -49h-233zM489 492h230l-64 342h-2z" />
    <glyph glyph-name="B" unicode="B" horiz-adv-x="1163" 
d="M96 39l191 1356q2 15 13 27t26 12h434q150 0 251 -97.5t101 -240.5q0 -67 -26.5 -128.5t-69.5 -107t-86 -77.5t-88 -54q31 -15 55 -29.5t54.5 -41t50.5 -56t34.5 -73.5t14.5 -95q0 -185 -132.5 -309.5t-328.5 -124.5h-465q-15 0 -23.5 12t-5.5 27zM526 852h97
q66 0 106.5 51t40.5 131q0 43 -22 74t-58 31h-123zM451 293h104q74 -1 118 50t44 134q0 45 -29.5 77t-69.5 32h-126z" />
    <glyph glyph-name="C" unicode="C" horiz-adv-x="1261" 
d="M92 625q0 231 99 420.5t275.5 299t393.5 109.5q267 0 430 -190q9 -12 7 -29t-15 -29l-176 -155q-25 -22 -47 0q-38 43 -98.5 68.5t-122.5 25.5q-104 0 -194.5 -67t-144 -179t-53.5 -240q0 -148 77 -250t200 -102q51 0 116.5 30.5t121.5 76.5q11 9 26 8t23 -10l139 -185
q8 -13 4.5 -28.5t-14.5 -26.5q-206 -192 -463 -192q-114 0 -221 50.5t-187 136.5t-128 206t-48 252z" />
    <glyph glyph-name="D" unicode="D" horiz-adv-x="1388" 
d="M96 39l191 1356q1 15 13 27t26 12h456q157 0 286 -90t199 -232t70 -301q0 -164 -58 -313.5t-157 -259t-240 -174t-300 -64.5h-459q-13 0 -21.5 12t-5.5 27zM455 303h153q104 0 193 64.5t141.5 176t52.5 242.5q0 148 -74 247.5t-196 99.5h-154z" />
    <glyph glyph-name="E" unicode="E" horiz-adv-x="1114" 
d="M96 39l191 1356q1 15 13 27t26 12h772q15 0 23.5 -11.5t6.5 -27.5l-32 -224q-2 -15 -13 -26.5t-26 -11.5h-488l-37 -254h398q13 0 23 -12t8 -27l-33 -224q-3 -17 -15 -27.5t-26 -10.5h-395l-39 -277h487q14 0 22.5 -11.5t6.5 -27.5l-31 -223q-2 -15 -14 -27t-27 -12h-772
q-15 0 -23.5 12t-5.5 27z" />
    <glyph glyph-name="F" unicode="F" horiz-adv-x="1069" 
d="M96 39l191 1356q1 15 13 27t26 12h772q15 0 23.5 -11.5t6.5 -27.5l-32 -224q-2 -15 -13 -26.5t-26 -11.5h-488l-41 -295h396q13 0 22.5 -12t7.5 -27l-32 -224q-1 -15 -13 -26.5t-26 -11.5h-398l-69 -498q-3 -15 -15.5 -27t-25.5 -12h-250q-15 0 -23.5 12t-5.5 27z" />
    <glyph glyph-name="G" unicode="G" horiz-adv-x="1318" 
d="M94 633q0 224 98 411.5t275 298.5t395 111q112 0 228 -51.5t196 -140.5q12 -11 11 -27.5t-13 -28.5l-168 -166q-12 -12 -28 -12t-25 10q-42 42 -100.5 66t-120.5 24q-98 0 -188.5 -64t-146.5 -173.5t-56 -233.5q0 -145 79 -247.5t199 -102.5q81 0 131 33l17 119h-95
q-15 0 -23.5 11t-6.5 26l28 202q3 17 14.5 28t26.5 11h383q13 0 22 -12t7 -27l-76 -551q-2 -19 -20 -32q-9 -5 -24.5 -14.5t-66 -32.5t-103 -41t-130 -32.5t-151.5 -14.5q-156 0 -286.5 87t-206 237.5t-75.5 328.5z" />
    <glyph glyph-name="H" unicode="H" horiz-adv-x="1464" 
d="M96 39l191 1356q1 15 14 27t27 12h250q15 0 23.5 -11.5t6.5 -27.5l-73 -516h479l71 516q2 15 14 27t27 12h252q13 0 23 -12t8 -27l-190 -1356q-1 -15 -14 -27t-27 -12h-254q-14 0 -22.5 11.5t-6.5 27.5l76 539h-477l-76 -539q-3 -16 -14.5 -27.5t-26.5 -11.5h-252
q-13 0 -22 12t-7 27z" />
    <glyph glyph-name="I" unicode="I" horiz-adv-x="665" 
d="M96 39l191 1356q1 15 13 27t26 12h256q13 0 21.5 -12t6.5 -27l-190 -1356q-2 -15 -14 -27t-25 -12h-256q-13 0 -22 12t-7 27z" />
    <glyph glyph-name="J" unicode="J" horiz-adv-x="831" 
d="M-68 129q-15 23 9 51l135 133q25 25 47 0q33 -39 88 -39q41 0 76.5 45t46.5 125l131 951q2 15 13 27t26 12h256q15 0 25 -12t8 -27l-138 -967q-32 -227 -143 -337.5t-303 -110.5q-60 0 -111 16.5t-84 43.5t-51 47.5t-31 41.5z" />
    <glyph glyph-name="K" unicode="K" horiz-adv-x="1290" 
d="M98 49l189 1335q3 21 17 35.5t34 14.5h248q19 0 30.5 -15t8.5 -35l-76 -538l426 567q14 21 37 21h297q26 0 34 -26.5t-10 -49.5l-489 -623l340 -676q11 -22 -6 -40.5t-35 -18.5h-283q-29 0 -41 27l-297 632l-86 -610q-1 -20 -16.5 -34.5t-34.5 -14.5h-248q-20 0 -30.5 14
t-8.5 35z" />
    <glyph glyph-name="L" unicode="L" horiz-adv-x="964" 
d="M96 39l191 1356q2 15 14 27t27 12h254q13 0 21.5 -12t6.5 -27l-153 -1094h417q14 0 22.5 -11.5t6.5 -27.5l-31 -223q-2 -15 -14 -27t-27 -12h-704q-15 0 -24 12t-7 27z" />
    <glyph glyph-name="M" unicode="M" horiz-adv-x="1656" 
d="M43 0q-16 0 -25.5 13t-3.5 32l394 1376q11 33 38 33h29q22 0 29 -20l301 -885h4l582 885q13 20 34 20h31q11 0 19 -10t8 -23l10 -1376q0 -19 -13.5 -32t-29.5 -13h-252q-12 0 -21.5 10.5t-9.5 22.5l23 633h-4l-391 -664q-15 -22 -35 -22h-33q-22 0 -29 22l-206 664h-5
l-151 -633q-3 -13 -14 -23t-27 -10h-252z" />
    <glyph glyph-name="N" unicode="N" horiz-adv-x="1462" 
d="M96 35l193 1382q1 15 14 26t27 11h45l610 -790h2l98 731q2 15 13 27t26 12h250q14 0 24 -11t9 -24l-193 -1383q-1 -15 -12.5 -25.5t-25.5 -10.5h-52l-610 815h-2l-92 -756q-3 -16 -14.5 -27.5t-26.5 -11.5h-252q-12 0 -22 11t-9 24z" />
    <glyph glyph-name="O" unicode="O" horiz-adv-x="1482" 
d="M90 614q0 171 61 326.5t164 268t245.5 179t299.5 66.5q156 0 287.5 -86t208 -233.5t76.5 -321.5q0 -227 -102 -418.5t-279.5 -303t-388.5 -111.5q-155 0 -286.5 84.5t-208.5 230.5t-77 319zM702 307q100 0 191 63t147 171.5t56 232.5q0 147 -79 249.5t-200 102.5
q-98 0 -188.5 -63.5t-146.5 -172.5t-56 -233q0 -145 78.5 -247.5t197.5 -102.5z" />
    <glyph glyph-name="P" unicode="P" horiz-adv-x="1114" 
d="M96 39l191 1356q2 15 14 27t27 12h450q151 0 253 -120t102 -286q0 -134 -64.5 -251t-176 -187t-241.5 -70h-168l-67 -481q-1 -15 -14 -27t-27 -12h-250q-14 0 -22.5 11.5t-6.5 27.5zM526 819h148q55 0 98 55t43 132q0 54 -27.5 90.5t-68.5 36.5h-150z" />
    <glyph glyph-name="Q" unicode="Q" horiz-adv-x="1486" 
d="M92 614q0 171 61 326.5t164 268t245.5 179t299.5 66.5q156 0 287.5 -86t208 -233.5t76.5 -321.5q0 -243 -116.5 -443t-309.5 -304l182 -410q9 -22 -3 -42t-34 -20h-276q-19 0 -27 21l-143 367q-7 0 -21.5 -1t-21.5 -1q-155 0 -286.5 84.5t-208.5 230.5t-77 319zM705 307
q100 0 191 63t146.5 171.5t55.5 232.5q0 147 -79 249.5t-200 102.5q-98 0 -188.5 -63.5t-146.5 -172.5t-56 -233q0 -145 78.5 -247.5t198.5 -102.5z" />
    <glyph glyph-name="R" unicode="R" horiz-adv-x="1273" 
d="M96 39l191 1356q1 15 13 27t26 12h553q158 0 259 -111.5t101 -273.5q0 -166 -89.5 -293t-246.5 -176l178 -521q8 -21 -4 -40t-35 -19h-264q-24 0 -28 18l-168 543h-90l-74 -522q-2 -15 -14 -27t-25 -12h-254q-15 0 -23.5 12t-5.5 27zM526 821h226q70 0 118 57t48 132
q0 57 -29 94t-82 37h-236z" />
    <glyph glyph-name="S" unicode="S" horiz-adv-x="1054" 
d="M47 137q-21 26 0 58l111 165q12 18 34 20t31 -7q122 -90 238 -90q57 0 95 37t36 88q-1 54 -34 98t-101 88q-48 32 -82 57.5t-80 68.5t-74 84.5t-48.5 99t-20.5 118.5q0 85 30 161t87.5 137.5t152.5 97.5t215 36q207 0 389 -149q15 -12 19.5 -34t-7.5 -36l-129 -158
q-12 -14 -33.5 -17t-31.5 7q-14 12 -41.5 30t-83.5 40t-105 22q-54 0 -92.5 -29.5t-38.5 -74.5q0 -52 35.5 -89.5t132.5 -95.5q40 -24 71.5 -45.5t78 -63.5t77 -85t53.5 -106.5t23 -131.5q0 -91 -32 -171.5t-93 -145.5t-161 -103t-226 -38q-76 0 -146.5 17t-119 43.5
t-80.5 51t-49 45.5z" />
    <glyph glyph-name="T" unicode="T" horiz-adv-x="952" 
d="M238 39l153 1094h-250q-15 0 -23.5 11.5t-6.5 26.5l32 224q1 15 13 27t26 12h828q15 0 23.5 -11.5t6.5 -27.5l-32 -224q-2 -15 -13 -26.5t-26 -11.5h-252l-154 -1094q-1 -15 -14 -27t-27 -12h-254q-13 0 -22.5 12t-7.5 27z" />
    <glyph glyph-name="U" unicode="U" horiz-adv-x="1368" 
d="M147 532l119 863q2 15 14 27t25 12h260q13 0 23 -12t8 -27l-117 -846q-15 -106 32 -174t132 -68q92 0 160.5 67.5t83.5 174.5l117 846q2 16 12.5 27.5t25.5 11.5h258q13 0 23 -12t8 -27l-119 -863q-36 -253 -197.5 -402.5t-412.5 -149.5q-102 0 -193 43t-154.5 116
t-93.5 176.5t-14 216.5z" />
    <glyph glyph-name="V" unicode="V" 
d="M489 2l-385 1378q-5 21 7 37.5t32 16.5h275q23 0 28 -23l162 -747h17l372 747q3 8 13 15.5t20 7.5h295q21 0 28.5 -17t-3.5 -37l-779 -1378q-11 -22 -34 -22h-19q-22 0 -29 22z" />
    <glyph glyph-name="W" unicode="W" horiz-adv-x="1673" 
d="M319 8l-153 1376q-3 21 8.5 35.5t30.5 14.5h248q10 0 19 -9t9 -20l39 -694h8l381 721q11 22 35 22h33q10 0 18.5 -6.5t10.5 -15.5l178 -721h6l237 694q5 11 16 20t21 9h246q20 0 28 -14t-1 -36l-541 -1376q-4 -12 -15 -20t-22 -8h-31q-21 0 -28 22l-221 838h-9l-456 -838
q-15 -22 -35 -22h-29q-12 0 -20.5 8t-10.5 20z" />
    <glyph glyph-name="X" unicode="X" horiz-adv-x="1265" 
d="M2 0q-22 0 -29.5 18.5t9.5 38.5l483 688l-285 631q-8 21 4.5 39.5t36.5 18.5h295q19 0 27 -19l143 -391h2l252 391q11 19 33 19h317q24 0 32 -19t-9 -39l-467 -651l295 -668q10 -21 -2.5 -39t-34.5 -18h-285q-22 0 -28 18l-166 424h-4l-279 -424q-12 -18 -35 -18h-305z
" />
    <glyph glyph-name="Y" unicode="Y" horiz-adv-x="1105" 
d="M311 39l92 651l-303 684q-8 21 4 40.5t33 19.5h258q21 0 29 -19l170 -420l289 420q14 19 32 19h289q23 0 30 -20t-7 -40l-502 -682l-90 -653q-1 -15 -14 -27t-27 -12h-254q-14 0 -22.5 11.5t-6.5 27.5z" />
    <glyph glyph-name="Z" unicode="Z" horiz-adv-x="1040" 
d="M14 0q-13 0 -21.5 12t-6.5 27l4 37l600 1057h-363q-13 0 -22.5 11.5t-7.5 26.5l32 224q1 15 14 27t27 12h791q14 0 24 -12t7 -27l-5 -27l-579 -1067h358q14 0 22.5 -11.5t6.5 -27.5l-31 -223q-3 -16 -14.5 -27.5t-26.5 -11.5h-809z" />
    <glyph glyph-name="bracketleft" unicode="[" horiz-adv-x="704" 
d="M270 -373h232q14 0 22.5 -11t7.5 -26l-24 -165q-1 -15 -14 -27t-27 -12h-477q-13 0 -23 12t-8 27l279 1970q2 15 13.5 27t24.5 12h480q13 0 21.5 -12t6.5 -27l-22 -164q-3 -17 -15 -28t-26 -11h-229z" />
    <glyph glyph-name="backslash" unicode="\" horiz-adv-x="722" 
d="M319 27l-167 1355q-3 22 9 37t32 15h206q11 0 20.5 -8.5t10.5 -18.5l170 -1356q3 -21 -9.5 -36t-31.5 -15h-209q-11 0 -20.5 8.5t-10.5 18.5z" />
    <glyph glyph-name="bracketright" unicode="]" horiz-adv-x="704" 
d="M-61 -373h231l219 1565h-229q-14 0 -24 11t-7 28l25 164q2 15 14 27t25 12h479q14 0 22.5 -12t5.5 -27l-276 -1970q-1 -15 -14 -27t-27 -12h-477q-13 0 -23 12t-8 27l25 165q1 15 13 26t26 11z" />
    <glyph glyph-name="asciicircum" unicode="^" horiz-adv-x="966" 
d="M-53 774q-22 0 -28.5 18.5t7.5 38.5l477 611q16 20 35 20h11q20 0 28 -20l297 -611q8 -20 -3.5 -38.5t-33.5 -18.5h-174q-11 0 -20 17l-144 305l-233 -305q-13 -17 -27 -17h-192z" />
    <glyph glyph-name="underscore" unicode="_" horiz-adv-x="827" 
d="M-12 -20h686q15 0 24.5 -11t6.5 -28l-15 -105q-1 -15 -13.5 -26t-27.5 -11h-686q-15 0 -24 11t-7 26l15 105q3 17 14.5 28t26.5 11z" />
    <glyph glyph-name="grave" unicode="`" horiz-adv-x="557" 
d="M336 1049l-322 168q-12 7 -14 22t12 39l80 113q19 29 49 6l291 -213q8 -5 10.5 -16t-4.5 -23l-49 -78q-21 -35 -53 -18z" />
    <glyph glyph-name="a" unicode="a" horiz-adv-x="972" 
d="M895 780l-111 -741q-3 -15 -15.5 -27t-25.5 -12h-106q-12 0 -20.5 8.5t-10.5 22.5l-12 71q-40 -44 -114.5 -83t-162.5 -39q-137 0 -212.5 107t-75.5 271q0 200 124 341t293 141q46 0 88.5 -13.5t69.5 -32t47.5 -37.5t29.5 -33l9 -13l41 84q12 24 39 24h96q14 0 23 -11
t6 -28zM414 246q69 0 115 52t46 130q0 60 -32.5 101.5t-81.5 41.5q-59 0 -107.5 -55t-48.5 -131q0 -59 31 -99t78 -40z" />
    <glyph glyph-name="b" unicode="b" horiz-adv-x="978" 
d="M33 39l190 1356q1 15 13 27t26 12h236q13 0 22.5 -12t7.5 -27l-84 -588q59 33 127 33q147 0 241.5 -109.5t94.5 -265.5q0 -130 -56.5 -241t-157 -177.5t-220.5 -66.5q-47 0 -88.5 13.5t-67 32t-44.5 37.5t-27 33l-8 13l-41 -80q-15 -29 -39 -29h-97q-14 0 -22.5 12
t-5.5 27zM352 385q0 -58 33 -98.5t80 -40.5q62 0 110 55t48 133q0 58 -31 97.5t-78 39.5q-66 0 -114 -56t-48 -130z" />
    <glyph glyph-name="c" unicode="c" horiz-adv-x="804" 
d="M25 358q0 203 133 342.5t323 139.5q166 0 269 -148q9 -14 3.5 -30t-20.5 -27l-129 -111q-6 -6 -17 -5.5t-20 9.5q-43 43 -100 43q-60 0 -106 -55.5t-46 -132.5q0 -58 29 -97.5t74 -39.5q26 0 49.5 10t37 20.5t34.5 30.5q7 9 19.5 10t25.5 -10l108 -108q27 -27 6 -58
q-63 -86 -141 -123.5t-182 -37.5q-145 0 -247.5 109.5t-102.5 268.5z" />
    <glyph glyph-name="d" unicode="d" horiz-adv-x="983" 
d="M338 -20q-93 0 -165 54t-108 140t-36 188q0 133 62 244t161 172.5t209 61.5q39 0 74.5 -8t50.5 -16l16 -9l84 588q3 20 12 29.5t31 9.5h232q13 0 22.5 -12t7.5 -27l-190 -1356q-3 -15 -15.5 -27t-25.5 -12h-96q-9 0 -18.5 8t-12.5 17l-23 77q-41 -45 -113 -83.5
t-159 -38.5zM426 246q61 0 109.5 54t48.5 128q1 60 -34 101.5t-83 41.5q-61 0 -107.5 -55t-46.5 -131q0 -58 33 -98.5t80 -40.5z" />
    <glyph glyph-name="e" unicode="e" horiz-adv-x="811" 
d="M25 338q0 137 61.5 252t172 182.5t245.5 67.5q109 0 189.5 -59.5t80.5 -155.5q0 -132 -127.5 -204.5t-353.5 -72.5q-2 -50 22.5 -85.5t85.5 -35.5q58 0 119 49q8 9 24 7.5t27 -15.5l86 -112q9 -11 7 -28t-11 -28q-117 -120 -293 -120q-152 0 -243.5 105t-91.5 253z
M317 504q8 0 22 1t49 6t61.5 13t48.5 24.5t22 37.5q0 19 -14 30t-35 11q-46 0 -92.5 -36t-61.5 -87z" />
    <glyph glyph-name="f" unicode="f" horiz-adv-x="702" 
d="M88 559q-14 0 -22.5 11.5t-6.5 27.5l27 182q1 17 12.5 28t26.5 11h65l27 189q31 214 151 330t306 116q65 0 129.5 -25.5t87.5 -52.5q7 -8 7 -22t-7 -25l-98 -160q-6 -10 -19 -14.5t-24 0.5q-44 23 -95 23q-101 0 -125 -170l-26 -189h160q15 0 24 -11t8 -28l-26 -182
q-1 -15 -14.5 -27t-28.5 -12h-160l-154 -1134q-1 -15 -14 -27t-27 -12h-243q-13 0 -22 12t-7 27l154 1134h-66z" />
    <glyph glyph-name="g" unicode="g" horiz-adv-x="980" 
d="M94 -199q31 37 68 0q65 -75 157 -75q59 0 103.5 48.5t60.5 159.5l9 78q-70 -32 -150 -32q-124 0 -218.5 109t-94.5 263q0 130 56 241.5t154.5 178t215.5 66.5q52 0 96 -13.5t70 -32t44.5 -37.5t25.5 -33l7 -13l35 82q11 28 45 28h96q14 0 23 -11t6 -28l-117 -846
q-67 -466 -452 -466q-66 0 -126.5 18t-101 44.5t-65 48.5t-35.5 38q-10 13 -14 19.5t-3.5 22.5t13.5 32zM422 246q69 0 115.5 52t46.5 130q0 60 -33 101.5t-82 41.5q-59 0 -107.5 -55t-48.5 -131q0 -59 31 -99t78 -40z" />
    <glyph glyph-name="h" unicode="h" horiz-adv-x="1019" 
d="M33 39l190 1356q1 15 14 27t27 12h236q13 0 22.5 -12t7.5 -27l-86 -602q71 47 162 47q108 0 185 -60.5t108 -158t14 -211.5l-51 -371q-3 -15 -15.5 -27t-25.5 -12h-227q-14 0 -22.5 11.5t-6.5 27.5l51 371q11 69 -18 115t-86 46q-100 0 -121 -161l-51 -371
q-3 -21 -13 -30t-34 -9h-232q-14 0 -22.5 12t-5.5 27z" />
    <glyph glyph-name="i" unicode="i" horiz-adv-x="522" 
d="M330 1067q-59 0 -98 41t-39 100q0 75 55 130t127 55q59 0 99 -42.5t40 -101.5q0 -75 -56 -128.5t-128 -53.5zM33 39l104 741q3 17 15 28t26 11h236q14 0 22.5 -11t7.5 -28l-104 -741q-1 -15 -14 -27t-27 -12h-236q-13 0 -22.5 12t-7.5 27z" />
    <glyph glyph-name="j" unicode="j" horiz-adv-x="524" 
d="M332 1067q-59 0 -98 41t-39 100q0 75 55 130t129 55q59 0 98 -42t39 -102q0 -75 -55.5 -128.5t-128.5 -53.5zM2 -188l135 968q3 17 15 28t26 11h240q14 0 22.5 -11t5.5 -28l-137 -968q-29 -215 -147.5 -331t-308.5 -116q-66 0 -132 25.5t-88 52.5q-6 7 -6 22t6 25l97 164
q7 13 22 16t23 -2q52 -26 96 -26q107 0 131 170z" />
    <glyph glyph-name="k" unicode="k" horiz-adv-x="980" 
d="M33 39l190 1356q1 15 13 27t26 12h236q13 0 22.5 -12t7.5 -27l-125 -887l230 287q20 24 49 24h258q25 0 33 -20t-10 -43l-293 -344l198 -351q12 -21 -0.5 -41t-36.5 -20h-251q-19 0 -25 16l-170 357l-47 -334q-3 -15 -15.5 -27t-25.5 -12h-236q-14 0 -22.5 12t-5.5 27z
" />
    <glyph glyph-name="l" unicode="l" horiz-adv-x="520" 
d="M33 39l190 1356q1 15 14 27t27 12h234q13 0 22.5 -12t7.5 -27l-190 -1356q-1 -15 -14 -27t-27 -12h-236q-13 0 -21.5 12t-6.5 27z" />
    <glyph glyph-name="m" unicode="m" horiz-adv-x="1484" 
d="M33 39l102 741q3 17 14.5 28t26.5 11h96q18 0 29 -22l23 -84q46 51 117.5 89t148.5 38q73 0 123.5 -31t95.5 -96q43 50 117 88.5t157 38.5q107 0 180.5 -59t101.5 -156t11 -215l-51 -371q-3 -16 -15 -27.5t-26 -11.5h-223q-15 0 -23.5 12t-5.5 27l53 387q21 145 -86 145
q-48 0 -84 -35t-45 -96l-57 -401q-3 -16 -15 -27.5t-26 -11.5h-203q-15 0 -23 12t-5 27l53 387q21 145 -84 145q-47 0 -83.5 -37t-45.5 -98l-55 -397q-3 -15 -15.5 -27t-25.5 -12h-224q-15 0 -23 12t-5 27z" />
    <glyph glyph-name="n" unicode="n" horiz-adv-x="1011" 
d="M33 39l102 741q3 17 15 28t26 11h98q8 0 17 -7t12 -17l23 -82q122 127 276 127q157 0 243.5 -126t61.5 -304l-51 -371q-3 -15 -15.5 -27t-25.5 -12h-227q-15 0 -23.5 12t-5.5 27l53 387q9 65 -14.5 105t-81.5 40q-47 0 -87.5 -37.5t-49.5 -97.5l-55 -397
q-3 -20 -19.5 -29.5t-36.5 -9.5h-207q-14 0 -22.5 12t-5.5 27z" />
    <glyph glyph-name="o" unicode="o" horiz-adv-x="880" 
d="M27 358q0 130 54.5 239.5t157.5 176t232 66.5q140 0 239 -112t99 -271q0 -130 -57 -239t-159.5 -173.5t-227.5 -64.5q-139 0 -238.5 109t-99.5 269zM395 246q60 0 106 55.5t46 132.5q0 57 -31 97t-76 40q-59 0 -104 -55.5t-45 -132.5q0 -58 29.5 -97.5t74.5 -39.5z" />
    <glyph glyph-name="p" unicode="p" horiz-adv-x="983" 
d="M336 12l-84 -587q-5 -39 -51 -39h-224q-13 0 -22.5 12t-7.5 27l190 1355q3 17 15 28t26 11h96q9 0 18.5 -7t12.5 -17l23 -82q110 127 270 127q132 0 222.5 -109.5t90.5 -261.5q0 -101 -36 -192.5t-96.5 -156t-142.5 -102.5t-171 -38q-30 0 -62.5 8t-49.5 16zM354 389
q-3 -54 30.5 -98.5t86.5 -44.5q61 0 107.5 55t46.5 131q0 59 -32 99t-79 40q-60 0 -110 -54.5t-50 -127.5z" />
    <glyph glyph-name="q" unicode="q" horiz-adv-x="980" 
d="M344 -20q-141 0 -228 110.5t-87 271.5q0 129 56 239t154 174.5t216 64.5q48 0 91 -13.5t69.5 -33t46 -38.5t28.5 -33l8 -13l41 84q13 26 39 26h96q14 0 23 -11t6 -28l-190 -1358q-1 -15 -13 -26.5t-26 -11.5h-236q-13 0 -22.5 11.5t-7.5 26.5l84 590q-66 -32 -148 -32z
M422 246q69 0 115.5 52t46.5 130q0 60 -33 101.5t-82 41.5q-59 0 -107.5 -55t-48.5 -131q0 -59 31 -99t78 -40z" />
    <glyph glyph-name="r" unicode="r" horiz-adv-x="671" 
d="M33 39l104 741q1 17 13 28t26 11h98q24 0 31 -24l25 -90q4 5 10.5 14.5t28 32.5t45 41t59.5 32.5t72 14.5q48 0 85.5 -12t53.5 -27q22 -19 4 -47l-125 -174q-18 -27 -41 -15q-16 8 -37 8q-34 0 -63.5 -30t-36.5 -80l-59 -424q-3 -21 -12.5 -30t-32.5 -9h-220
q-14 0 -22.5 12t-5.5 27z" />
    <glyph glyph-name="s" unicode="s" horiz-adv-x="710" 
d="M6 49q-22 22 -8 43l84 150q7 10 19 14t26 -2q66 -39 137 -39q26 0 38.5 11t12.5 26q0 19 -17.5 35.5t-64.5 44.5q-88 52 -132 107.5t-44 127.5q0 115 87 194t239 79q79 0 149 -23t105 -45q23 -16 4 -47l-80 -143q-6 -9 -17 -13t-22 0q-82 37 -145 37q-45 0 -45 -28
q0 -17 14.5 -30.5t48.5 -33.5q55 -31 88 -54t66 -54.5t48 -67t15 -78.5q0 -129 -91.5 -204.5t-266.5 -75.5q-82 0 -151 22t-97 47z" />
    <glyph glyph-name="t" unicode="t" horiz-adv-x="681" 
d="M113 264l41 295h-70q-13 0 -21 12t-6 27l25 182q1 17 13 28t26 11h69l31 228q1 15 14 26.5t27 11.5h230q13 0 20.5 -11t5.5 -27l-31 -228h119q15 0 23 -11t6 -28l-25 -182q-2 -15 -14 -27t-27 -12h-118l-35 -254q-7 -49 43 -49q19 0 55 8q13 3 24.5 -3.5t12.5 -22.5
l16 -152q5 -37 -30 -59q-21 -13 -92 -30t-140 -17q-102 0 -157 74.5t-35 209.5z" />
    <glyph glyph-name="u" unicode="u" horiz-adv-x="985" 
d="M334 -20q-156 0 -224 113t-40 317l53 370q1 17 13 28t26 11h227q14 0 23 -11t8 -28l-55 -385q-21 -149 69 -149q49 0 82 39t41 98l57 397q3 22 14 30.5t40 8.5h206q14 0 23 -11t8 -28l-104 -741q-1 -15 -14 -27t-27 -12h-98q-21 0 -29 25l-23 79q-40 -48 -111 -86
t-165 -38z" />
    <glyph glyph-name="v" unicode="v" horiz-adv-x="800" 
d="M281 0l-248 764q-7 20 5.5 37.5t33.5 17.5h211q23 0 30 -22l66 -267h6l129 267q6 13 15 17.5t30 4.5h234q22 0 29 -17.5t-5 -37.5l-465 -764q-12 -20 -33 -20h-10q-24 0 -28 20z" />
    <glyph glyph-name="w" unicode="w" horiz-adv-x="1167" 
d="M193 4l-146 764q-4 20 8 35.5t31 15.5h184q11 0 20.5 -7t10.5 -17l59 -273h2l211 281q12 16 31 16h21q16 0 24 -16l131 -281h2l127 273q6 11 9 14.5t11 6.5t23 3h195q20 0 29 -15.5t0 -35.5l-365 -764q-10 -24 -35 -24h-8q-19 0 -27 16l-186 393l-293 -393
q-10 -16 -33 -16h-8q-25 0 -28 24z" />
    <glyph glyph-name="x" unicode="x" horiz-adv-x="899" 
d="M-16 0q-23 0 -29.5 20.5t10.5 40.5l307 365l-204 340q-12 20 -2.5 36.5t32.5 16.5h232q20 0 28 -16l93 -172h2l116 172q12 16 33 16h264q23 0 30.5 -20.5t-9.5 -40.5l-299 -357l203 -346q12 -20 1.5 -37.5t-32.5 -17.5h-230q-19 0 -26 18l-94 189h-4l-134 -191
q-12 -16 -32 -16h-256z" />
    <glyph glyph-name="y" unicode="y" horiz-adv-x="868" 
d="M213 92l-172 682q-5 20 5 32.5t32 12.5h209q9 0 17 -6.5t9 -15.5l90 -375h3l182 375q11 22 35 22h237q20 0 27 -16.5t-4 -36.5l-754 -1356q-12 -24 -35 -24h-239q-20 0 -26.5 14.5t5.5 36.5z" />
    <glyph glyph-name="z" unicode="z" horiz-adv-x="710" 
d="M23 0q-14 0 -24 12t-7 27l4 20l256 492v4h-135q-13 0 -22 12t-7 27l27 186q3 17 14 28t25 11h508q21 0 28 -16.5t-4 -38.5l-278 -498v-4h139q31 0 28 -39l-24 -184q-2 -15 -14 -27t-27 -12h-487z" />
    <glyph glyph-name="braceleft" unicode="{" horiz-adv-x="733" 
d="M106 -39l29 213q4 32 -5.5 57.5t-28.5 40t-37.5 22t-38.5 11.5q-11 2 -16.5 12t-4.5 25l16 119q1 12 10.5 23t20.5 14q6 2 15 5.5t33.5 16.5t44 27t37 36t20.5 46l30 227q16 110 44.5 199t62.5 149.5t79 106t86.5 71t93.5 42t91.5 22.5t87.5 8q15 2 24.5 -8t8.5 -27
l-16 -174q-2 -29 -31 -39q-207 -58 -252 -350l-29 -186q-7 -45 -29.5 -89t-49.5 -74t-52.5 -53t-43.5 -34l-17 -12v-9q20 -11 40 -28.5t42.5 -46.5t33.5 -73.5t5 -96.5l-25 -193q-39 -293 154 -350q22 -9 18 -39l-33 -172q-3 -15 -15.5 -25.5t-25.5 -9.5q-60 4 -117 25
t-113.5 64.5t-92.5 111.5t-54.5 166.5t0.5 228.5z" />
    <glyph glyph-name="bar" unicode="|" horiz-adv-x="342" 
d="M-43 -578l295 2096q1 17 13 27.5t26 10.5h37q14 0 21.5 -10.5t6.5 -27.5l-295 -2096q-1 -15 -14 -25.5t-27 -10.5h-32q-14 0 -23 10.5t-8 25.5z" />
    <glyph glyph-name="braceright" unicode="}" horiz-adv-x="731" 
d="M178 -39l27 193q7 52 30 96.5t54 73.5t56.5 46.5t49.5 28.5v9q-6 4 -15.5 11.5t-32.5 33.5t-39.5 54.5t-27 73t-4.5 89.5l27 186q42 292 -153 350q-10 3 -16.5 15t-4.5 24l33 174q3 17 15 27t26 8q50 -3 97.5 -17.5t97.5 -44.5t87.5 -76t66.5 -111.5t35.5 -151.5
t-5.5 -197l-31 -227q-3 -24 7 -46t27 -36.5t34.5 -26t30.5 -16.5l12 -6q8 -3 13.5 -14t4.5 -23l-16 -119q-1 -12 -11.5 -23.5t-21.5 -13.5q-20 -4 -40.5 -11.5t-44 -22t-40.5 -40t-21 -57.5l-28 -213q-15 -111 -43.5 -201t-62 -150t-80 -105t-87.5 -69.5t-94 -40.5
t-91 -21.5t-87 -8.5q-14 -2 -24 9t-9 26l17 172q2 12 11 24t21 15q208 59 250 350z" />
    <glyph glyph-name="asciitilde" unicode="~" horiz-adv-x="995" 
d="M143 356l-108 125q-9 9 -8 23.5t12 25.5q6 8 17.5 22.5t47 50.5t72 63.5t88.5 50t101 22.5q35 0 67.5 -12.5t53 -27.5t49.5 -40q4 -3 14.5 -12t15 -12t13.5 -10t14.5 -10t14.5 -7.5t16.5 -6.5t16.5 -3.5t19 -1.5q50 0 127 96q12 15 28 15.5t26 -13.5l102 -121
q8 -9 7.5 -25t-9.5 -26l-16.5 -22t-44 -50t-69 -63t-87 -49.5t-100.5 -22.5q-44 0 -83.5 15t-60.5 30t-57 46q-29 26 -50 37.5t-48 11.5q-45 0 -125 -95q-13 -15 -29.5 -15.5t-26.5 11.5z" />
    <glyph glyph-name="uni00A0" unicode="&#xa0;" horiz-adv-x="458" 
 />
    <glyph glyph-name="exclamdown" unicode="&#xa1;" horiz-adv-x="559" 
d="M266 451q-71 0 -119.5 51.5t-48.5 122.5q0 87 67.5 151t153.5 64q68 0 115 -50t47 -120q0 -87 -66 -153t-149 -66zM154 229q3 12 15 22.5t24 10.5h88q12 0 21 -10.5t9 -22.5l21 -571l-33 -233q-1 -15 -13 -27t-26 -12h-293q-13 0 -22.5 12t-7.5 27l32 229z" />
    <glyph glyph-name="cent" unicode="&#xa2;" horiz-adv-x="784" 
d="M215 12q-92 45 -148.5 138t-56.5 208q0 203 133.5 342.5t323.5 139.5q33 0 63 -6l33 86q6 15 20 22.5t27 3.5l33 -10q29 -10 16 -47l-34 -92q59 -34 110 -105q9 -14 4 -30t-20 -27l-129 -111q-6 -6 -17 -5.5t-20 9.5l-25 21l-116 -303q24 1 46.5 11.5t33 19.5t32.5 30
q7 9 19.5 10t25.5 -10l109 -108q27 -27 6 -58q-63 -86 -141.5 -123.5t-182.5 -37.5q-17 0 -49 4l-75 -201q-6 -15 -20.5 -23t-27.5 -4l-30 11q-14 5 -20.5 17.5t-0.5 27.5zM319 281l115 303q-57 -12 -98 -71t-41 -134q0 -61 24 -98z" />
    <glyph glyph-name="sterling" unicode="&#xa3;" horiz-adv-x="915" 
d="M53 39l4 37q82 134 111.5 259t26.5 257h-78q-13 0 -22 12t-7 27l4 35q2 16 12.5 27.5t28.5 11.5h55q-14 126 -14 219q0 254 121 392t334 138q55 0 108 -15.5t92.5 -41t65.5 -46.5t45 -42q9 -9 8 -25.5t-12 -28.5l-123 -149q-14 -13 -30.5 -12.5t-26.5 10.5
q-76 70 -148 70q-48 0 -83.5 -49t-35.5 -132q0 -26 16 -123t21 -165h144q14 0 22 -11.5t6 -27.5l-4 -37q-1 -15 -13.5 -26t-27.5 -11h-127q-15 -173 -55 -318h281q14 0 21.5 -10.5t4.5 -27.5l-26 -197q-3 -15 -14.5 -27t-24.5 -12h-631q-13 0 -22 12t-7 27z" />
    <glyph glyph-name="currency" unicode="&#xa4;" horiz-adv-x="870" 
d="M172 297l-96 111q-9 11 -7 27.5t13 27.5l117 106q-11 86 24 197l-86 108q-8 10 -6 28.5t14 27.5l115 96q12 9 25.5 9.5t21.5 -9.5l84 -104q91 45 176 6l113 104q11 10 25.5 9.5t23.5 -11.5l98 -108q9 -9 7 -26t-13 -28l-114 -104q18 -101 -35 -213l84 -105q8 -10 4.5 -27
t-15.5 -26l-112 -96q-13 -10 -26 -11t-21 9l-90 108q-90 -39 -158 0l-117 -106q-11 -10 -25.5 -9.5t-23.5 9.5zM391 604q19 -25 51 -24.5t58 26.5q24 23 29 59t-11 60q-20 25 -51.5 25t-56.5 -25q-27 -24 -32.5 -60.5t13.5 -60.5z" />
    <glyph glyph-name="yen" unicode="&#xa5;" horiz-adv-x="1208" 
d="M219 242q-13 0 -20.5 11.5t-5.5 27.5l4 34q1 15 13 27t26 12h174l18 133h-174q-13 0 -21 12t-6 27l4 35q1 15 13 27t26 12h174l13 90l-303 684q-8 21 3.5 40.5t32.5 19.5h259q20 0 28 -19l170 -420l289 420q14 19 33 19h288q23 0 30 -20t-7 -40l-502 -682l-14 -92h172
q15 0 24.5 -12t6.5 -27l-6 -37q-3 -15 -14.5 -26t-26.5 -11h-170l-19 -133h170q15 0 24.5 -12t6.5 -27l-6 -36q-3 -15 -14.5 -26t-26.5 -11h-170l-27 -203q-1 -15 -14 -27t-27 -12h-254q-14 0 -22 11.5t-6 27.5l28 203h-174z" />
    <glyph glyph-name="brokenbar" unicode="&#xa6;" horiz-adv-x="604" 
d="M322 803q-14 0 -23 11t-8 26l96 678q1 17 13 27.5t26 10.5h37q14 0 22 -10.5t7 -27.5l-97 -678q-1 -15 -13 -26t-26 -11h-34zM186 100q3 17 15 28t26 11h37q14 0 22 -11t7 -28l-96 -678q-1 -15 -14 -25.5t-27 -10.5h-33q-14 0 -23 10.5t-8 25.5z" />
    <glyph glyph-name="section" unicode="&#xa7;" horiz-adv-x="964" 
d="M63 -154q27 41 60 11q22 -19 97.5 -54.5t129.5 -35.5q55 0 90 29t35 81q0 113 -162 211q-41 25 -68 43.5t-67 54.5t-64.5 72.5t-42.5 91t-18 115.5q0 101 44.5 177t125.5 140q-86 117 -86 254q0 62 15 120t49.5 113t85 95.5t128 65t171.5 24.5q61 0 120.5 -15
t112.5 -43.5t78 -44.5t61 -42q14 -11 13 -30t-10 -30l-119 -147q-14 -17 -37 -18t-31 10q-1 1 -14.5 10l-27 18t-35.5 20.5t-42.5 20.5t-46.5 15t-49 6q-44 0 -77 -31.5t-33 -79.5q0 -46 36.5 -87t124.5 -91q27 -16 42.5 -25t48.5 -32t53.5 -42t47.5 -51t42.5 -63.5
t27 -74.5t11.5 -89q0 -58 -15 -109t-44.5 -93t-57 -71t-66.5 -63q45 -45 76 -114t31 -144q0 -65 -14 -124t-48.5 -116t-86.5 -99t-134 -67.5t-184 -25.5q-123 0 -228.5 51.5t-150.5 98.5q-13 13 -14 22t12 29zM504 313q6 7 15 20.5t24.5 57.5t15.5 90q0 33 -16 63.5t-38 50
t-44.5 35t-38.5 22.5l-16 7q-3 -2 -7 -6.5t-15 -20t-19.5 -33t-15.5 -45t-7 -56.5q0 -35 16.5 -67t40.5 -52.5t48 -36t41 -22.5z" />
    <glyph glyph-name="dieresis" unicode="&#xa8;" horiz-adv-x="763" 
d="M471 1096q-54 0 -86 42.5t-23 102.5q7 60 50.5 101.5t97.5 41.5t87 -41.5t26 -101.5q-9 -60 -53.5 -102.5t-98.5 -42.5zM92 1096q-54 0 -85.5 42.5t-22.5 102.5q7 60 50 101.5t97 41.5t87 -41.5t26 -101.5q-9 -60 -53.5 -102.5t-98.5 -42.5z" />
    <glyph glyph-name="copyright" unicode="&#xa9;" horiz-adv-x="1466" 
d="M84 621q0 167 61.5 321.5t165 266.5t245 178.5t294.5 66.5q154 0 286.5 -86t210.5 -234t78 -321q0 -168 -62.5 -322.5t-166.5 -266t-245 -178t-292 -66.5q-154 0 -286.5 86t-210.5 234t-78 321zM258 641q0 -201 119 -342t299 -141q110 0 215.5 51t184.5 136t127 203
t48 245q0 132 -53 242t-149 174.5t-215 64.5q-110 0 -215 -50t-184.5 -134.5t-128 -202.5t-48.5 -246zM422 672q0 185 111.5 305.5t281.5 120.5q59 0 116 -20t95 -58q11 -12 9 -29t-15 -30l-100 -99q-9 -9 -23 -10.5t-23 4.5q-35 27 -81 27q-61 0 -106.5 -57t-45.5 -134
q0 -59 29.5 -98t77.5 -39q43 0 90 35q9 7 22 5t19 -11l75 -111q9 -11 5.5 -28t-15.5 -29q-104 -86 -221 -86q-123 0 -212 99.5t-89 242.5z" />
    <glyph glyph-name="ordfeminine" unicode="&#xaa;" horiz-adv-x="612" 
d="M268 811q-79 0 -125.5 48t-46.5 130q0 98 69 161.5t181 63.5q24 0 46 -3.5t32 -6.5l10 -4q9 43 -7 65.5t-54 22.5q-47 0 -135 -18q-17 -3 -24 5.5t-5 27.5l-2 86q1 35 55 50t160 15q130 0 180 -62t31 -198l-49 -340q-2 -11 -11 -20t-18 -9h-70q-13 0 -20 21l-16 43
q-26 -23 -45.5 -37t-56.5 -27.5t-79 -13.5zM348 961q21 0 36 21t15 54q0 56 -41 56q-23 0 -39 -23t-16 -53q0 -24 12.5 -39.5t32.5 -15.5z" />
    <glyph glyph-name="guillemotleft" unicode="&#xab;" horiz-adv-x="978" 
d="M451 397q-11 23 6 49l233 304q19 24 37 24h182q24 0 29.5 -19t-8.5 -44l-164 -305l59 -281q5 -26 -5 -44t-32 -18h-165q-17 0 -25 17zM172 80l-147 317q-11 23 6 49l233 304q19 24 37 24h182q24 0 29.5 -19t-8.5 -44l-164 -305l59 -281q5 -26 -5 -44t-32 -18h-165
q-17 0 -25 17z" />
    <glyph glyph-name="logicalnot" unicode="&#xac;" horiz-adv-x="1034" 
d="M104 600q-14 0 -22.5 12t-5.5 27l20 143q2 15 14 27t25 12h748q14 0 22 -12t6 -27l-67 -483q-1 -15 -14 -26t-27 -11h-146q-14 0 -22.5 11t-7.5 26l43 301h-566z" />
    <glyph glyph-name="uni00AD" unicode="&#xad;" horiz-adv-x="638" 
d="M72 365q-15 0 -23 10.5t-6 25.5l25 187q1 17 13.5 28t27.5 11h430q31 0 28 -39l-24 -187q-1 -15 -13.5 -25.5t-27.5 -10.5h-430z" />
    <glyph glyph-name="registered" unicode="&#xae;" horiz-adv-x="1466" 
d="M84 621q0 167 61.5 321.5t165 266.5t245 178.5t294.5 66.5q154 0 286.5 -86t210.5 -234t78 -321q0 -168 -62.5 -322.5t-166.5 -266t-245 -178t-292 -66.5q-154 0 -286.5 86t-210.5 234t-78 321zM258 641q0 -201 119 -342t299 -141q110 0 215.5 51t184.5 136t127 203
t48 245q0 132 -53 242t-149 174.5t-215 64.5q-110 0 -215 -50t-184.5 -134.5t-128 -202.5t-48.5 -246zM477 344q-15 0 -23 12t-5 27l94 672q1 15 13 27t26 12h297q82 0 143 -64t61 -164q0 -192 -155 -262l39 -205q5 -21 -7 -38t-32 -17h-125q-10 0 -18.5 9t-10.5 20l-29 217
h-73l-31 -207q-2 -15 -13 -27t-26 -12h-125zM688 756h115q22 0 40.5 23.5t18.5 54.5q0 24 -12 40.5t-27 16.5h-114z" />
    <glyph glyph-name="macron" unicode="&#xaf;" horiz-adv-x="763" 
d="M-27 1153q-15 0 -22.5 10.5t-5.5 26.5l10 84q1 17 13.5 28t27.5 11h473q14 0 23 -11t6 -28l-13 -84q-2 -15 -13 -26t-26 -11h-473z" />
    <glyph glyph-name="degree" unicode="&#xb0;" horiz-adv-x="569" 
d="M332 903q-89 0 -152 70t-63 170q0 130 83.5 220.5t207.5 90.5q88 0 150.5 -69t62.5 -168q0 -130 -84.5 -222t-204.5 -92zM360 1102q27 0 43.5 24.5t16.5 63.5q0 65 -45 65q-27 0 -43.5 -26t-16.5 -64q0 -28 11.5 -45.5t33.5 -17.5z" />
    <glyph glyph-name="plusminus" unicode="&#xb1;" horiz-adv-x="1103" 
d="M465 489q-14 0 -23 11t-8 26l31 197h-258q-13 0 -23 12t-8 27l21 143q1 15 14 27t27 12h258l43 301q1 15 13 26t26 11h159q14 0 23 -11t6 -26l-41 -301h260q13 0 22 -12t7 -27l-21 -143q-1 -15 -13 -27t-26 -12h-262l-28 -197q-1 -15 -14 -26t-27 -11h-158zM104 80
q-14 0 -22.5 12t-5.5 27l18 143q3 15 15.5 27t25.5 12h748q13 0 21.5 -12t6.5 -27l-20 -143q-1 -15 -13 -27t-26 -12h-748z" />
    <glyph glyph-name="twosuperior" unicode="&#xb2;" horiz-adv-x="507" 
d="M139 1032q-8 0 -12.5 6t-3.5 13l6 36l217 267q43 50 43 94q0 43 -37 43q-33 0 -69 -29q-9 -8 -20 -6.5t-15 14.5l-31 86q-8 18 -5 31t24 25q78 47 176 47q76 0 125 -46t49 -120q0 -96 -74 -199l-78 -108h86q8 0 13 -6t4 -13l-17 -116q0 -7 -7.5 -13t-12.5 -6h-361z" />
    <glyph glyph-name="threesuperior" unicode="&#xb3;" horiz-adv-x="485" 
d="M291 1012q-93 0 -152 59q-21 21 -2 45l49 66q20 23 43 8q29 -19 60 -19q23 0 37 15t14 45q0 41 -37 41h-65q-22 0 -17 33l8 69q3 35 41 35h52q15 0 29 15.5t14 41.5q0 37 -33 37q-21 0 -53 -24q-8 -7 -16.5 -6.5t-16.5 14.5l-43 80q-13 26 8 43q66 49 166 49
q87 0 137.5 -40.5t50.5 -107.5q0 -111 -116 -168q90 -39 90 -133t-72.5 -146t-175.5 -52z" />
    <glyph glyph-name="acute" unicode="&#xb4;" horiz-adv-x="557" 
d="M51 1049q-34 -15 -47 18l-37 96q-4 11 1.5 22.5t15.5 16.5l352 213q8 8 25.5 6t25.5 -20l53 -123q7 -24 1 -39t-21 -22z" />
    <glyph glyph-name="mu" unicode="&#xb5;" horiz-adv-x="997" 
d="M319 -18l-77 -555q-1 -15 -14 -27t-27 -12h-226q-13 0 -22.5 12t-7.5 27l192 1353q1 17 13 28t26 11h227q14 0 23 -11t8 -28l-59 -413q-9 -59 12 -90t62 -31q49 0 81.5 38.5t40.5 98.5l58 397q3 22 13.5 30.5t39.5 8.5h207q14 0 23 -11t8 -28l-105 -741q-1 -15 -14 -27
t-27 -12h-98q-21 0 -29 25l-22 79q-40 -48 -111.5 -86t-165.5 -38q-19 0 -29 2z" />
    <glyph glyph-name="paragraph" unicode="&#xb6;" horiz-adv-x="1312" 
d="M340 -575l162 1150h-80q-140 0 -234 107.5t-94 265.5q0 127 59 240t156.5 179.5t206.5 66.5h858q13 0 23 -12t8 -27l-19 -123q-3 -17 -13.5 -28t-24.5 -11h-93l-254 -1808q-2 -15 -13.5 -27t-26.5 -12h-152q-14 0 -23 12t-6 27l254 1806h-221l-254 -1806q-1 -15 -13 -27
t-26 -12h-149q-13 0 -23 12t-8 27z" />
    <glyph glyph-name="periodcentered" unicode="&#xb7;" horiz-adv-x="563" 
d="M256 305q-78 0 -131 56.5t-53 134.5q0 100 74.5 173.5t170.5 73.5q84 0 138.5 -56.5t54.5 -139.5q0 -97 -77.5 -169.5t-176.5 -72.5z" />
    <glyph glyph-name="cedilla" unicode="&#xb8;" horiz-adv-x="454" 
d="M115 0h143l-16 -106q69 -17 103 -64t34 -115q0 -108 -61 -177.5t-162 -69.5q-42 0 -79.5 21.5t-56.5 49.5q-16 24 9 49l45 50q10 10 21.5 8.5t21.5 -11.5q18 -18 41 -18q25 0 44 21.5t19 56.5q0 28 -22 47.5t-86 26.5q-35 3 -27 36z" />
    <glyph glyph-name="onesuperior" unicode="&#xb9;" horiz-adv-x="405" 
d="M236 1032q-7 0 -12 5.5t-5 13.5l53 376h-104q-12 0 -12 23l14 78q3 13 18 22l156 88h131q7 0 11.5 -5t2.5 -13l-79 -569q-4 -19 -21 -19h-153z" />
    <glyph glyph-name="ordmasculine" unicode="&#xba;" horiz-adv-x="579" 
d="M326 807q-100 0 -154.5 68.5t-54.5 185.5q0 182 77 287.5t214 105.5q100 0 155 -68t55 -186q0 -180 -77.5 -286.5t-214.5 -106.5zM346 985q34 0 56 70t22 151q0 30 -11 50t-26 20q-31 0 -54.5 -63t-23.5 -154q0 -74 37 -74z" />
    <glyph glyph-name="guillemotright" unicode="&#xbb;" horiz-adv-x="980" 
d="M434 127l164 305l-59 281q-5 26 4.5 43.5t31.5 17.5h166q17 0 25 -16l147 -318q11 -23 -6 -49l-233 -303q-20 -25 -37 -25h-182q-24 0 -29.5 19.5t8.5 44.5zM29 63q-24 0 -29.5 19.5t8.5 44.5l164 305l-59 281q-5 26 5 43.5t32 17.5h165q17 0 25 -16l147 -318
q11 -23 -6 -49l-233 -303q-20 -25 -37 -25h-182z" />
    <glyph glyph-name="onequarter" unicode="&#xbc;" horiz-adv-x="1271" 
d="M66 55l827 1358q11 21 35 21h121q20 0 27 -18t-5 -38l-827 -1358q-15 -20 -33 -20h-121q-22 0 -29 17.5t5 37.5zM215 827q-16 0 -16 19l53 377h-105q-12 0 -12 22l15 78q3 14 18 23l156 88h131q7 0 11.5 -5.5t2.5 -13.5l-80 -569q-4 -19 -20 -19h-154zM625 131l18 127
l336 342q6 6 16 6h103q6 0 10.5 -5.5t3.5 -12.5l-47 -334h70q7 0 11.5 -5t2.5 -11l-14 -105q-4 -18 -19 -18h-72l-12 -97q-4 -18 -20 -18h-140q-8 0 -12.5 5.5t-3.5 12.5l14 97h-231q-7 0 -11.5 5t-2.5 11zM797 250h94l18 115z" />
    <glyph glyph-name="onehalf" unicode="&#xbd;" horiz-adv-x="1210" 
d="M66 55l827 1358q11 21 35 21h121q20 0 27 -18t-5 -38l-827 -1358q-15 -20 -33 -20h-121q-22 0 -29 17.5t5 37.5zM215 827q-16 0 -16 19l53 377h-105q-12 0 -12 22l15 78q3 14 18 23l156 88h131q7 0 11.5 -5.5t2.5 -13.5l-80 -569q-4 -19 -20 -19h-154zM633 18l6 37
l217 267q43 50 43 94q0 43 -37 43q-33 0 -69 -29q-9 -8 -20 -6.5t-15 14.5l-31 86q-8 18 -5.5 31t23.5 25q78 47 177 47q76 0 125 -46t49 -120q0 -96 -74 -199l-78 -108h86q8 0 13 -6t4 -13l-17 -117q0 -7 -7.5 -12.5t-12.5 -5.5h-361q-8 0 -12.5 5.5t-3.5 12.5z" />
    <glyph glyph-name="threequarters" unicode="&#xbe;" horiz-adv-x="1349" 
d="M260 807q-92 0 -151 59q-21 21 -3 45l50 66q20 23 43 8q27 -18 59 -18q23 0 37 15t14 44q0 41 -37 41h-65q-22 0 -17 33l9 69q3 35 41 35h51q15 0 29 16t14 42q0 36 -33 36q-21 0 -53 -24q-8 -7 -16.5 -6.5t-16.5 14.5l-43 80q-13 26 8 43q66 49 166 49q87 0 138 -40
t51 -107q0 -111 -117 -168q90 -39 90 -133q0 -95 -72.5 -147t-175.5 -52zM143 55l828 1358q11 21 35 21h120q20 0 27.5 -18t-4.5 -38l-827 -1358q-15 -20 -33 -20h-121q-22 0 -29.5 17.5t4.5 37.5zM702 131l19 127l336 342q6 6 16 6h103q6 0 10.5 -5.5t3.5 -12.5l-47 -334
h69q7 0 12 -5t3 -11l-15 -105q-4 -18 -18 -18h-72l-12 -97q-4 -18 -20 -18h-140q-8 0 -12.5 5.5t-3.5 12.5l14 97h-231q-7 0 -12 5t-3 11zM874 250h95l18 115z" />
    <glyph glyph-name="questiondown" unicode="&#xbf;" horiz-adv-x="851" 
d="M436 451q-71 0 -119.5 51.5t-48.5 122.5q0 87 67.5 151t153.5 64q68 0 115 -50t47 -120q0 -87 -66 -153t-149 -66zM246 172l8 51q3 17 14.5 28t26.5 11h227q14 0 23 -11t6 -28l-12 -86q-7 -50 -41.5 -98t-77.5 -85.5t-85 -74t-70.5 -78t-28.5 -82.5q0 -35 25 -58t65 -23
q89 0 178 79q32 28 53 4l111 -133q10 -11 8 -27.5t-14 -27.5q-24 -23 -36 -34t-55 -41t-82.5 -46.5t-103 -31.5t-131.5 -15q-136 0 -240 88.5t-104 220.5q0 71 33 138t80.5 116t96 91.5t85 82t41.5 70.5z" />
    <glyph glyph-name="Agrave" unicode="&#xc0;" 
d="M-51 0q-21 0 -28.5 16.5t3.5 36.5l776 1379q15 22 35 22h19q21 0 28 -22l385 -1379q6 -20 -5.5 -36.5t-33.5 -16.5h-231q-29 0 -44.5 11t-21.5 40l-34 162h-453l-80 -164q-22 -49 -82 -49h-233zM489 492h230l-64 342h-2zM895 1561l-322 168q-12 7 -14 22t12 39l80 113
q19 29 49 6l291 -213q8 -5 10.5 -16t-4.5 -23l-49 -78q-21 -35 -53 -18z" />
    <glyph glyph-name="Aacute" unicode="&#xc1;" 
d="M-51 0q-21 0 -28.5 16.5t3.5 36.5l776 1379q15 22 35 22h19q21 0 28 -22l385 -1379q6 -20 -5.5 -36.5t-33.5 -16.5h-231q-29 0 -44.5 11t-21.5 40l-34 162h-453l-80 -164q-22 -49 -82 -49h-233zM489 492h230l-64 342h-2zM627 1561q-34 -15 -47 18l-37 96q-4 11 1 22.5
t15 16.5l352 213q8 8 26 6t26 -20l53 -123q7 -24 0.5 -39t-21.5 -22z" />
    <glyph glyph-name="Acircumflex" unicode="&#xc2;" 
d="M-51 0q-21 0 -28.5 16.5t3.5 36.5l776 1379q15 22 35 22h19q21 0 28 -22l385 -1379q6 -20 -5.5 -36.5t-33.5 -16.5h-231q-29 0 -44.5 11t-21.5 40l-34 162h-453l-80 -164q-22 -49 -82 -49h-233zM489 492h230l-64 342h-2zM559 1561q-25 -15 -39 8l-55 96q-12 21 16 39
l285 213q29 20 49 0l234 -213q20 -20 6 -39l-74 -94q-7 -10 -20 -12.5t-19 2.5l-166 122z" />
    <glyph glyph-name="Atilde" unicode="&#xc3;" 
d="M-51 0q-21 0 -28.5 16.5t3.5 36.5l776 1379q15 22 35 22h19q21 0 28 -22l385 -1379q6 -20 -5.5 -36.5t-33.5 -16.5h-231q-29 0 -44.5 11t-21.5 40l-34 162h-453l-80 -164q-22 -49 -82 -49h-233zM489 492h230l-64 342h-2zM549 1608l-66 57q-17 17 -4 47q9 20 25.5 44.5
t44 55.5t67 51.5t80.5 20.5q35 0 69 -24t65 -48t61 -24q21 0 41 18t31 39q18 35 51 10l63 -53q9 -12 7 -22.5t-13 -36.5q-7 -17 -21.5 -39.5t-39.5 -52t-63 -49t-79 -19.5q-32 0 -62.5 15.5t-49 33.5t-42 33.5t-44.5 15.5q-40 0 -72 -61q-8 -16 -21.5 -19.5t-27.5 7.5z" />
    <glyph glyph-name="Adieresis" unicode="&#xc4;" 
d="M-51 0q-21 0 -28.5 16.5t3.5 36.5l776 1379q15 22 35 22h19q21 0 28 -22l385 -1379q6 -20 -5.5 -36.5t-33.5 -16.5h-231q-29 0 -44.5 11t-21.5 40l-34 162h-453l-80 -164q-22 -49 -82 -49h-233zM489 492h230l-64 342h-2zM1004 1573q-54 0 -86 42.5t-23 102.5
q8 60 50.5 102t96.5 42t87 -42t26 -102q-9 -60 -53 -102.5t-98 -42.5zM514 1573q-54 0 -85.5 42.5t-22.5 102.5q8 60 50.5 102t96.5 42t87 -42t26 -102q-9 -60 -53.5 -102.5t-98.5 -42.5z" />
    <glyph glyph-name="Aring" unicode="&#xc5;" 
d="M-51 0q-21 0 -28.5 16.5t3.5 36.5l776 1379q15 22 35 22h19q21 0 28 -22l385 -1379q6 -20 -5.5 -36.5t-33.5 -16.5h-231q-29 0 -44.5 11t-21.5 40l-34 162h-453l-80 -164q-22 -49 -82 -49h-233zM489 492h230l-64 342h-2zM758 1540q-76 0 -132.5 60t-56.5 145
q0 110 71.5 188t174.5 78q77 0 133 -60.5t56 -144.5q0 -111 -71 -188.5t-175 -77.5zM774 1686q33 0 59.5 31.5t26.5 70.5q0 31 -17.5 53.5t-43.5 22.5q-31 0 -58.5 -31t-27.5 -70q0 -31 17.5 -54t43.5 -23z" />
    <glyph glyph-name="AE" unicode="&#xc6;" horiz-adv-x="1673" 
d="M-80 0q-21 0 -24.5 16.5t10.5 36.5l923 1317q19 26 27 36t25 19t39 9h739q14 0 22.5 -11.5t6.5 -27.5l-31 -224q-2 -15 -14 -26.5t-27 -11.5h-477l-35 -254h387q13 0 22 -12t7 -27l-31 -224q-3 -17 -15 -27.5t-26 -10.5h-387l-39 -277h477q14 0 22.5 -11.5t6.5 -27.5
l-31 -223q-2 -15 -14 -27t-27 -12h-762q-14 0 -22 11.5t-6 27.5l24 174h-291l-141 -190q-6 -9 -18 -16t-21 -7h-299zM547 492h182l53 358z" />
    <glyph glyph-name="Ccedilla" unicode="&#xc7;" horiz-adv-x="1265" 
d="M553 -4q-194 47 -326.5 223.5t-132.5 405.5q0 231 99 420.5t275.5 299t393.5 109.5q267 0 430 -190q9 -12 7 -29t-15 -29l-176 -155q-25 -22 -47 0q-38 43 -98.5 68.5t-122.5 25.5q-103 0 -193.5 -67t-144 -179t-53.5 -240q0 -149 76.5 -250.5t199.5 -101.5
q51 0 116.5 30.5t121.5 76.5q11 9 26 8t23 -10l139 -185q8 -13 4.5 -28.5t-14.5 -26.5q-200 -186 -447 -192l-12 -86q69 -17 103 -64t34 -115q0 -108 -61 -177.5t-162 -69.5q-42 0 -79 21t-56 50q-16 25 8 49l45 50q10 10 21.5 8.5t21.5 -11.5q18 -18 41 -18q25 0 44.5 21.5
t19.5 56.5q0 28 -22.5 47.5t-86.5 26.5q-35 3 -27 36z" />
    <glyph glyph-name="Egrave" unicode="&#xc8;" horiz-adv-x="1114" 
d="M96 39l191 1356q1 15 13 27t26 12h772q15 0 23.5 -11.5t6.5 -27.5l-32 -224q-2 -15 -13 -26.5t-26 -11.5h-488l-37 -254h398q13 0 23 -12t8 -27l-33 -224q-3 -17 -15 -27.5t-26 -10.5h-395l-39 -277h487q14 0 22.5 -11.5t6.5 -27.5l-31 -223q-2 -15 -14 -27t-27 -12h-772
q-15 0 -23.5 12t-5.5 27zM870 1561l-321 168q-12 7 -14 22t12 39l80 113q19 29 49 6l291 -213q8 -5 10.5 -16t-4.5 -23l-49 -78q-21 -35 -54 -18z" />
    <glyph glyph-name="Eacute" unicode="&#xc9;" horiz-adv-x="1114" 
d="M96 39l191 1356q1 15 13 27t26 12h772q15 0 23.5 -11.5t6.5 -27.5l-32 -224q-2 -15 -13 -26.5t-26 -11.5h-488l-37 -254h398q13 0 23 -12t8 -27l-33 -224q-3 -17 -15 -27.5t-26 -10.5h-395l-39 -277h487q14 0 22.5 -11.5t6.5 -27.5l-31 -223q-2 -15 -14 -27t-27 -12h-772
q-15 0 -23.5 12t-5.5 27zM598 1561q-34 -15 -47 18l-37 96q-4 11 1 22.5t15 16.5l353 213q8 8 25.5 6t25.5 -20l53 -123q7 -24 1 -39t-21 -22z" />
    <glyph glyph-name="Ecircumflex" unicode="&#xca;" horiz-adv-x="1114" 
d="M96 39l191 1356q1 15 13 27t26 12h772q15 0 23.5 -11.5t6.5 -27.5l-32 -224q-2 -15 -13 -26.5t-26 -11.5h-488l-37 -254h398q13 0 23 -12t8 -27l-33 -224q-3 -17 -15 -27.5t-26 -10.5h-395l-39 -277h487q14 0 22.5 -11.5t6.5 -27.5l-31 -223q-2 -15 -14 -27t-27 -12h-772
q-15 0 -23.5 12t-5.5 27zM532 1561q-15 -8 -22.5 -6.5t-15.5 14.5l-56 96q-12 21 17 39l284 213q29 20 49 0l234 -213q20 -20 6 -39l-74 -94q-7 -10 -20 -12.5t-19 2.5l-165 122z" />
    <glyph glyph-name="Edieresis" unicode="&#xcb;" horiz-adv-x="1114" 
d="M96 39l191 1356q1 15 13 27t26 12h772q15 0 23.5 -11.5t6.5 -27.5l-32 -224q-2 -15 -13 -26.5t-26 -11.5h-488l-37 -254h398q13 0 23 -12t8 -27l-33 -224q-3 -17 -15 -27.5t-26 -10.5h-395l-39 -277h487q14 0 22.5 -11.5t6.5 -27.5l-31 -223q-2 -15 -14 -27t-27 -12h-772
q-15 0 -23.5 12t-5.5 27zM975 1573q-54 0 -86 42.5t-23 102.5q7 60 50.5 102t97.5 42t86.5 -42t25.5 -102q-9 -60 -53 -102.5t-98 -42.5zM485 1573q-54 0 -85.5 42.5t-22.5 102.5q8 60 50.5 102t96.5 42t87 -42t26 -102q-9 -60 -53.5 -102.5t-98.5 -42.5z" />
    <glyph glyph-name="Igrave" unicode="&#xcc;" horiz-adv-x="665" 
d="M96 39l191 1356q1 15 13 27t26 12h256q13 0 21.5 -12t6.5 -27l-190 -1356q-2 -15 -14 -27t-25 -12h-256q-13 0 -22 12t-7 27zM606 1561l-321 168q-12 7 -14 22t12 39l79 113q9 13 23 15t27 -9l290 -213q8 -5 11 -16t-4 -23l-50 -78q-21 -35 -53 -18z" />
    <glyph glyph-name="Iacute" unicode="&#xcd;" horiz-adv-x="665" 
d="M96 39l191 1356q1 15 13 27t26 12h256q13 0 21.5 -12t6.5 -27l-190 -1356q-2 -15 -14 -27t-25 -12h-256q-13 0 -22 12t-7 27zM338 1561q-34 -15 -47 18l-37 96q-4 11 1 22.5t15 16.5l353 213q8 8 25.5 6t25.5 -20l53 -123q7 -24 1 -39t-21 -22z" />
    <glyph glyph-name="Icircumflex" unicode="&#xce;" horiz-adv-x="665" 
d="M96 39l191 1356q1 15 13 27t26 12h256q13 0 21.5 -12t6.5 -27l-190 -1356q-2 -15 -14 -27t-25 -12h-256q-13 0 -22 12t-7 27zM268 1561q-25 -15 -39 8l-55 96q-12 21 16 39l285 213q29 20 49 0l234 -213q20 -20 6 -39l-74 -94q-7 -10 -20 -12.5t-19 2.5l-166 122z" />
    <glyph glyph-name="Idieresis" unicode="&#xcf;" horiz-adv-x="665" 
d="M96 39l191 1356q1 15 13 27t26 12h256q13 0 21.5 -12t6.5 -27l-190 -1356q-2 -15 -14 -27t-25 -12h-256q-13 0 -22 12t-7 27zM715 1573q-54 0 -86 42.5t-23 102.5q7 60 50.5 102t97.5 42t86.5 -42t25.5 -102q-9 -60 -53 -102.5t-98 -42.5zM225 1573q-54 0 -85.5 42.5
t-22.5 102.5q8 60 50.5 102t96.5 42t87 -42t26 -102q-9 -60 -53.5 -102.5t-98.5 -42.5z" />
    <glyph glyph-name="Eth" unicode="&#xd0;" horiz-adv-x="1398" 
d="M106 39l87 614h-54q-14 0 -22.5 12t-5.5 27l6 35q3 16 13.5 27.5t23.5 11.5h55l88 629q1 15 13 27t26 12h457q118 0 222.5 -51t177 -136.5t114 -199t41.5 -236.5q0 -164 -58.5 -313.5t-159 -259t-241 -174t-297.5 -64.5h-459q-13 0 -21.5 12t-5.5 27zM465 303h153
q159 0 273.5 141.5t114.5 341.5q0 148 -74.5 247.5t-196.5 99.5h-153l-54 -367h234q15 0 24.5 -12t6.5 -27l-7 -37q-3 -15 -14.5 -26t-26.5 -11h-231z" />
    <glyph glyph-name="Ntilde" unicode="&#xd1;" horiz-adv-x="1462" 
d="M96 35l193 1382q1 15 14 26t27 11h45l610 -790h2l98 731q2 15 13 27t26 12h250q14 0 24 -11t9 -24l-193 -1383q-1 -15 -12.5 -25.5t-25.5 -10.5h-52l-610 815h-2l-92 -756q-3 -16 -14.5 -27.5t-26.5 -11.5h-252q-12 0 -22 11t-9 24zM623 1608l-66 57q-17 17 -4 47
q9 20 25.5 44.5t44 55.5t67 51.5t80.5 20.5q35 0 69 -24t65 -48t61 -24q21 0 40.5 18t30.5 39q18 35 51 10l64 -53q9 -12 7 -22.5t-13 -36.5q-7 -17 -21.5 -39.5t-39.5 -52t-63 -49t-79 -19.5q-32 0 -62.5 15.5t-49.5 33.5t-42.5 33.5t-44.5 15.5q-39 0 -71 -61
q-8 -16 -21.5 -19.5t-27.5 7.5z" />
    <glyph glyph-name="Ograve" unicode="&#xd2;" horiz-adv-x="1482" 
d="M90 614q0 171 61 326.5t164 268t245.5 179t299.5 66.5q156 0 287.5 -86t208 -233.5t76.5 -321.5q0 -227 -102 -418.5t-279.5 -303t-388.5 -111.5q-155 0 -286.5 84.5t-208.5 230.5t-77 319zM702 307q100 0 191 63t147 171.5t56 232.5q0 147 -79 249.5t-200 102.5
q-98 0 -188.5 -63.5t-146.5 -172.5t-56 -233q0 -145 78.5 -247.5t197.5 -102.5zM1016 1561l-322 168q-12 7 -14 22t12 39l80 113q19 29 49 6l291 -213q8 -5 10.5 -16t-4.5 -23l-49 -78q-21 -35 -53 -18z" />
    <glyph glyph-name="Oacute" unicode="&#xd3;" horiz-adv-x="1482" 
d="M90 614q0 171 61 326.5t164 268t245.5 179t299.5 66.5q156 0 287.5 -86t208 -233.5t76.5 -321.5q0 -227 -102 -418.5t-279.5 -303t-388.5 -111.5q-155 0 -286.5 84.5t-208.5 230.5t-77 319zM702 307q100 0 191 63t147 171.5t56 232.5q0 147 -79 249.5t-200 102.5
q-98 0 -188.5 -63.5t-146.5 -172.5t-56 -233q0 -145 78.5 -247.5t197.5 -102.5zM745 1561q-34 -15 -47 18l-36 96q-4 11 1 22.5t15 16.5l352 213q8 8 25.5 6t25.5 -20l54 -123q7 -24 0.5 -39t-21.5 -22z" />
    <glyph glyph-name="Ocircumflex" unicode="&#xd4;" horiz-adv-x="1482" 
d="M90 614q0 171 61 326.5t164 268t245.5 179t299.5 66.5q156 0 287.5 -86t208 -233.5t76.5 -321.5q0 -227 -102 -418.5t-279.5 -303t-388.5 -111.5q-155 0 -286.5 84.5t-208.5 230.5t-77 319zM702 307q100 0 191 63t147 171.5t56 232.5q0 147 -79 249.5t-200 102.5
q-98 0 -188.5 -63.5t-146.5 -172.5t-56 -233q0 -145 78.5 -247.5t197.5 -102.5zM680 1561q-25 -15 -39 8l-55 96q-12 21 16 39l285 213q29 20 49 0l233 -213q20 -20 7 -39l-74 -94q-7 -10 -20 -12.5t-19 2.5l-166 122z" />
    <glyph glyph-name="Otilde" unicode="&#xd5;" horiz-adv-x="1482" 
d="M90 614q0 171 61 326.5t164 268t245.5 179t299.5 66.5q156 0 287.5 -86t208 -233.5t76.5 -321.5q0 -227 -102 -418.5t-279.5 -303t-388.5 -111.5q-155 0 -286.5 84.5t-208.5 230.5t-77 319zM702 307q100 0 191 63t147 171.5t56 232.5q0 147 -79 249.5t-200 102.5
q-98 0 -188.5 -63.5t-146.5 -172.5t-56 -233q0 -145 78.5 -247.5t197.5 -102.5zM668 1608l-66 57q-17 17 -4 47q9 20 25.5 44.5t44 55.5t67 51.5t80.5 20.5q35 0 69 -24t65 -48t61 -24q21 0 40.5 18t30.5 39q19 36 52 10l63 -53q9 -12 7 -22.5t-13 -36.5q-7 -17 -21.5 -39.5
t-39.5 -52t-63 -49t-79 -19.5q-32 0 -62.5 15.5t-49.5 33.5t-42.5 33.5t-44.5 15.5q-39 0 -71 -61q-8 -16 -21.5 -19.5t-27.5 7.5z" />
    <glyph glyph-name="Odieresis" unicode="&#xd6;" horiz-adv-x="1482" 
d="M90 614q0 171 61 326.5t164 268t245.5 179t299.5 66.5q156 0 287.5 -86t208 -233.5t76.5 -321.5q0 -227 -102 -418.5t-279.5 -303t-388.5 -111.5q-155 0 -286.5 84.5t-208.5 230.5t-77 319zM702 307q100 0 191 63t147 171.5t56 232.5q0 147 -79 249.5t-200 102.5
q-98 0 -188.5 -63.5t-146.5 -172.5t-56 -233q0 -145 78.5 -247.5t197.5 -102.5zM1120 1573q-54 0 -85.5 42.5t-22.5 102.5q8 60 50.5 102t96.5 42t87 -42t26 -102q-9 -60 -53.5 -102.5t-98.5 -42.5zM631 1573q-54 0 -86 42.5t-23 102.5q7 60 50.5 102t97.5 42t86.5 -42
t25.5 -102q-9 -60 -53 -102.5t-98 -42.5z" />
    <glyph glyph-name="multiply" unicode="&#xd7;" horiz-adv-x="886" 
d="M178 342l-94 107q-9 9 -6.5 26t14.5 27l219 215l-153 211q-8 10 -6 27t12 26l110 96q11 9 26.5 9.5t23.5 -9.5l153 -209l223 215q12 10 26.5 9.5t23.5 -11.5l94 -106q9 -9 7 -25.5t-13 -27.5l-224 -215l158 -211q8 -10 5 -27.5t-15 -26.5l-111 -94q-13 -10 -26 -11t-21 9
l-158 211l-221 -215q-11 -10 -24.5 -9.5t-22.5 9.5z" />
    <glyph glyph-name="Oslash" unicode="&#xd8;" horiz-adv-x="1495" 
d="M41 47q-8 10 -6 26.5t12 26.5l154 148q-105 162 -105 366q0 171 61 326.5t164 268t245.5 179t299.5 66.5q117 0 221.5 -49.5t182.5 -138.5l157 151q12 12 26.5 11.5t23.5 -11.5l20 -24q10 -11 8 -26.5t-16 -27.5l-160 -151q109 -170 109 -375q0 -227 -102 -418.5
t-279.5 -303t-388.5 -111.5q-117 0 -222 48.5t-184 137.5l-151 -146q-11 -10 -25.5 -9t-22.5 12zM461 496l559 532q-81 98 -197 98q-98 0 -188.5 -63.5t-146.5 -172.5t-56 -233q0 -82 29 -161zM514 406q76 -99 195 -99q100 0 191 63t146.5 171.5t55.5 232.5q0 80 -31 164z
" />
    <glyph glyph-name="Ugrave" unicode="&#xd9;" horiz-adv-x="1372" 
d="M150 532l118 863q2 15 14 27t25 12h260q13 0 23 -12t8 -27l-117 -846q-15 -106 32 -174t132 -68q92 0 160.5 67.5t83.5 174.5l117 846q2 16 12.5 27.5t25.5 11.5h259q13 0 22.5 -12t7.5 -27l-119 -863q-36 -253 -197.5 -402.5t-412.5 -149.5q-102 0 -193 43t-154 116
t-93 176t-14 217zM965 1561l-322 168q-12 7 -14 22t12 39l80 113q19 29 49 6l291 -213q8 -5 10.5 -16t-4.5 -23l-49 -78q-21 -35 -53 -18z" />
    <glyph glyph-name="Uacute" unicode="&#xda;" horiz-adv-x="1372" 
d="M150 532l118 863q2 15 14 27t25 12h260q13 0 23 -12t8 -27l-117 -846q-15 -106 32 -174t132 -68q92 0 160.5 67.5t83.5 174.5l117 846q2 16 12.5 27.5t25.5 11.5h259q13 0 22.5 -12t7.5 -27l-119 -863q-36 -253 -197.5 -402.5t-412.5 -149.5q-102 0 -193 43t-154 116
t-93 176t-14 217zM696 1561q-34 -15 -47 18l-37 96q-4 11 1.5 22.5t15.5 16.5l352 213q8 8 25.5 6t25.5 -20l53 -123q7 -24 1 -39t-21 -22z" />
    <glyph glyph-name="Ucircumflex" unicode="&#xdb;" horiz-adv-x="1372" 
d="M150 532l118 863q2 15 14 27t25 12h260q13 0 23 -12t8 -27l-117 -846q-15 -106 32 -174t132 -68q92 0 160.5 67.5t83.5 174.5l117 846q2 16 12.5 27.5t25.5 11.5h259q13 0 22.5 -12t7.5 -27l-119 -863q-36 -253 -197.5 -402.5t-412.5 -149.5q-102 0 -193 43t-154 116
t-93 176t-14 217zM627 1561q-25 -15 -39 8l-56 96q-12 21 17 39l285 213q29 20 49 0l233 -213q20 -20 6 -39l-73 -94q-7 -10 -20 -12.5t-19 2.5l-166 122z" />
    <glyph glyph-name="Udieresis" unicode="&#xdc;" horiz-adv-x="1372" 
d="M150 532l118 863q2 15 14 27t25 12h260q13 0 23 -12t8 -27l-117 -846q-15 -106 32 -174t132 -68q92 0 160.5 67.5t83.5 174.5l117 846q2 16 12.5 27.5t25.5 11.5h259q13 0 22.5 -12t7.5 -27l-119 -863q-36 -253 -197.5 -402.5t-412.5 -149.5q-102 0 -193 43t-154 116
t-93 176t-14 217zM1073 1573q-54 0 -85.5 42.5t-22.5 102.5q8 60 50.5 102t96.5 42t87 -42t26 -102q-9 -60 -53.5 -102.5t-98.5 -42.5zM584 1573q-54 0 -86 42.5t-23 102.5q7 60 50.5 102t97.5 42t86.5 -42t25.5 -102q-9 -60 -53 -102.5t-98 -42.5z" />
    <glyph glyph-name="Yacute" unicode="&#xdd;" horiz-adv-x="1105" 
d="M311 39l92 651l-303 684q-8 21 4 40.5t33 19.5h258q21 0 29 -19l170 -420l289 420q14 19 32 19h289q23 0 30 -20t-7 -40l-502 -682l-90 -653q-1 -15 -14 -27t-27 -12h-254q-14 0 -22.5 11.5t-6.5 27.5zM545 1561q-34 -15 -47 18l-37 96q-4 11 1 22.5t15 16.5l352 213
q8 8 26 6t26 -20l53 -123q7 -24 0.5 -39t-21.5 -22z" />
    <glyph glyph-name="Thorn" unicode="&#xde;" horiz-adv-x="1107" 
d="M96 39l191 1356q2 15 14 27t27 12h250q13 0 21.5 -12t6.5 -27l-31 -221h166q153 0 254 -116t101 -280q0 -140 -64 -259t-175 -189t-243 -70h-168l-30 -221q-1 -15 -14 -27t-27 -12h-250q-15 0 -23.5 12t-5.5 27zM489 559h148q55 0 98 55t43 131q0 54 -27.5 90.5
t-68.5 36.5h-150z" />
    <glyph glyph-name="germandbls" unicode="&#xdf;" horiz-adv-x="1058" 
d="M522 10l-4 176q0 15 11 29.5t26 17.5q55 9 83.5 26.5t35.5 59.5q4 24 -15 57.5t-47.5 69.5t-56.5 75.5t-44 87.5t-9 93q8 49 40 107t66 103t64.5 99.5t36.5 98.5q5 30 -9 51t-45 21q-21 0 -50 -21.5t-62 -64t-63 -123t-44 -182.5l-192 -1366q-1 -15 -14.5 -27t-28.5 -12
h-224q-15 0 -23.5 11.5t-6.5 27.5l190 1357q96 672 563 672q47 0 93.5 -11.5t90.5 -38.5t74.5 -66.5t44.5 -100.5t3 -135q-10 -66 -40 -129t-61 -103t-58 -86t-32 -82q-4 -29 14.5 -62t46 -67.5t55 -74t42.5 -95.5t6 -118q-42 -296 -422 -305q-13 0 -24 8.5t-11 21.5z" />
    <glyph glyph-name="agrave" unicode="&#xe0;" horiz-adv-x="972" 
d="M705 1049l-322 168q-12 7 -14 22t12 39l80 113q19 29 49 6l291 -213q8 -5 10.5 -16t-4.5 -23l-49 -78q-21 -35 -53 -18zM895 780l-111 -741q-3 -15 -15.5 -27t-25.5 -12h-106q-12 0 -20.5 8.5t-10.5 22.5l-12 71q-40 -44 -114.5 -83t-162.5 -39q-137 0 -212.5 107
t-75.5 271q0 200 124 341t293 141q46 0 88.5 -13.5t69.5 -32t47.5 -37.5t29.5 -33l9 -13l41 84q12 24 39 24h96q14 0 23 -11t6 -28zM414 246q69 0 115 52t46 130q0 60 -32.5 101.5t-81.5 41.5q-59 0 -107.5 -55t-48.5 -131q0 -59 31 -99t78 -40z" />
    <glyph glyph-name="aacute" unicode="&#xe1;" horiz-adv-x="972" 
d="M432 1049q-34 -15 -47 18l-37 96q-4 11 1.5 22.5t15.5 16.5l352 213q8 8 25.5 6t25.5 -20l53 -123q7 -24 1 -39t-21 -22zM895 780l-111 -741q-3 -15 -15.5 -27t-25.5 -12h-106q-12 0 -20.5 8.5t-10.5 22.5l-12 71q-40 -44 -114.5 -83t-162.5 -39q-137 0 -212.5 107
t-75.5 271q0 200 124 341t293 141q46 0 88.5 -13.5t69.5 -32t47.5 -37.5t29.5 -33l9 -13l41 84q12 24 39 24h96q14 0 23 -11t6 -28zM414 246q69 0 115 52t46 130q0 60 -32.5 101.5t-81.5 41.5q-59 0 -107.5 -55t-48.5 -131q0 -59 31 -99t78 -40z" />
    <glyph glyph-name="acircumflex" unicode="&#xe2;" horiz-adv-x="972" 
d="M365 1049q-25 -15 -39 8l-56 96q-12 21 17 39l284 213q30 20 50 0l233 -213q20 -20 6 -39l-74 -94q-7 -10 -19.5 -12.5t-18.5 2.5l-166 122zM895 780l-111 -741q-3 -15 -15.5 -27t-25.5 -12h-106q-12 0 -20.5 8.5t-10.5 22.5l-12 71q-40 -44 -114.5 -83t-162.5 -39
q-137 0 -212.5 107t-75.5 271q0 200 124 341t293 141q46 0 88.5 -13.5t69.5 -32t47.5 -37.5t29.5 -33l9 -13l41 84q12 24 39 24h96q14 0 23 -11t6 -28zM414 246q69 0 115 52t46 130q0 60 -32.5 101.5t-81.5 41.5q-59 0 -107.5 -55t-48.5 -131q0 -59 31 -99t78 -40z" />
    <glyph glyph-name="atilde" unicode="&#xe3;" horiz-adv-x="972" 
d="M362 1137l-65 57q-17 17 -4 47q9 20 25.5 44.5t44 55.5t67 51.5t80.5 20.5q35 0 69 -24t65 -48t61 -24q21 0 40.5 18t30.5 39q18 35 51 10l64 -53q9 -12 7 -22.5t-13 -36.5q-7 -17 -21.5 -39.5t-39.5 -52t-63 -49t-79 -19.5q-32 0 -62.5 15.5t-49.5 33.5t-42.5 33.5
t-44.5 15.5q-39 0 -71 -61q-8 -16 -22 -19.5t-28 7.5zM895 780l-111 -741q-3 -15 -15.5 -27t-25.5 -12h-106q-12 0 -20.5 8.5t-10.5 22.5l-12 71q-40 -44 -114.5 -83t-162.5 -39q-137 0 -212.5 107t-75.5 271q0 200 124 341t293 141q46 0 88.5 -13.5t69.5 -32t47.5 -37.5
t29.5 -33l9 -13l41 84q12 24 39 24h96q14 0 23 -11t6 -28zM414 246q69 0 115 52t46 130q0 60 -32.5 101.5t-81.5 41.5q-59 0 -107.5 -55t-48.5 -131q0 -59 31 -99t78 -40z" />
    <glyph glyph-name="adieresis" unicode="&#xe4;" horiz-adv-x="972" 
d="M758 1096q-54 0 -86 42.5t-23 102.5q7 60 50.5 101.5t97.5 41.5t86.5 -41.5t25.5 -101.5q-9 -60 -53 -102.5t-98 -42.5zM379 1096q-54 0 -86 42.5t-23 102.5q7 60 50.5 101.5t97.5 41.5t86.5 -41.5t25.5 -101.5q-9 -60 -53 -102.5t-98 -42.5zM895 780l-111 -741
q-3 -15 -15.5 -27t-25.5 -12h-106q-12 0 -20.5 8.5t-10.5 22.5l-12 71q-40 -44 -114.5 -83t-162.5 -39q-137 0 -212.5 107t-75.5 271q0 200 124 341t293 141q46 0 88.5 -13.5t69.5 -32t47.5 -37.5t29.5 -33l9 -13l41 84q12 24 39 24h96q14 0 23 -11t6 -28zM414 246
q69 0 115 52t46 130q0 60 -32.5 101.5t-81.5 41.5q-59 0 -107.5 -55t-48.5 -131q0 -59 31 -99t78 -40z" />
    <glyph glyph-name="aring" unicode="&#xe5;" horiz-adv-x="972" 
d="M557 983q-76 0 -132 60t-56 145q0 111 71.5 188.5t173.5 77.5q77 0 133 -60.5t56 -144.5q0 -111 -71 -188.5t-175 -77.5zM573 1128q32 0 59 32t27 71q0 31 -17.5 53.5t-43.5 22.5q-31 0 -58.5 -31t-27.5 -70q0 -31 17.5 -54.5t43.5 -23.5zM895 780l-111 -741
q-3 -15 -15.5 -27t-25.5 -12h-106q-12 0 -20.5 8.5t-10.5 22.5l-12 71q-40 -44 -114.5 -83t-162.5 -39q-137 0 -212.5 107t-75.5 271q0 200 124 341t293 141q46 0 88.5 -13.5t69.5 -32t47.5 -37.5t29.5 -33l9 -13l41 84q12 24 39 24h96q14 0 23 -11t6 -28zM414 246
q69 0 115 52t46 130q0 60 -32.5 101.5t-81.5 41.5q-59 0 -107.5 -55t-48.5 -131q0 -59 31 -99t78 -40z" />
    <glyph glyph-name="ae" unicode="&#xe6;" horiz-adv-x="1206" 
d="M225 -20q-105 0 -167 62t-62 169q0 132 98.5 219.5t241.5 87.5q28 0 60 -5t50 -10l17 -5q24 118 -88 118q-81 0 -189 -22q-14 -2 -26.5 8t-12.5 25v141q0 14 11 26.5t24 14.5q152 31 250 31q148 0 221 -80q106 80 256 80q105 0 182.5 -56t77.5 -151q0 -134 -125.5 -209.5
t-349.5 -75.5q-4 -121 103 -121q57 0 118 49q9 8 23.5 8.5t22.5 -8.5l92 -120q9 -11 7 -28t-11 -28q-133 -120 -297 -120q-167 0 -240 129q-42 -46 -116.5 -87.5t-170.5 -41.5zM727 516q7 0 19.5 1.5t44.5 7t56 13t44 23t20 35.5q0 18 -12.5 27.5t-32.5 9.5q-42 0 -84 -35
t-55 -82zM242 248q0 -31 18 -52.5t47 -21.5q37 0 66.5 28t29.5 72q0 32 -20 54t-51 22q-36 0 -63 -31t-27 -71z" />
    <glyph glyph-name="ccedilla" unicode="&#xe7;" horiz-adv-x="811" 
d="M260 2q-103 39 -167 135.5t-64 220.5q0 203 133 342.5t323 139.5q166 0 269 -148q9 -14 3.5 -30t-20.5 -27l-129 -111q-6 -6 -17 -5.5t-20 9.5q-43 43 -100 43q-60 0 -106 -55.5t-46 -132.5q0 -58 29 -97.5t74 -39.5q26 0 49.5 10t37 20.5t34.5 30.5q7 9 19.5 10
t25.5 -10l108 -108q27 -27 6 -58q-60 -82 -133.5 -120t-169.5 -41l-12 -86q69 -17 103 -64t34 -115q0 -108 -61 -177.5t-162 -69.5q-42 0 -79 21t-56 50q-16 25 8 49l45 50q10 10 21.5 8.5t21.5 -11.5q18 -18 41 -18q25 0 44.5 21.5t19.5 56.5q0 28 -22.5 47.5t-86.5 26.5
q-35 3 -27 36z" />
    <glyph glyph-name="egrave" unicode="&#xe8;" horiz-adv-x="811" 
d="M25 338q0 137 61.5 252t172 182.5t245.5 67.5q109 0 189.5 -59.5t80.5 -155.5q0 -132 -127.5 -204.5t-353.5 -72.5q-2 -50 22.5 -85.5t85.5 -35.5q58 0 119 49q8 9 24 7.5t27 -15.5l86 -112q9 -11 7 -28t-11 -28q-117 -120 -293 -120q-152 0 -243.5 105t-91.5 253z
M317 504q8 0 22 1t49 6t61.5 13t48.5 24.5t22 37.5q0 19 -14 30t-35 11q-46 0 -92.5 -36t-61.5 -87zM666 1049l-322 168q-12 7 -14 22t12 39l80 113q19 29 49 6l291 -213q8 -5 10.5 -16t-4.5 -23l-49 -78q-21 -35 -53 -18z" />
    <glyph glyph-name="eacute" unicode="&#xe9;" horiz-adv-x="811" 
d="M25 338q0 137 61.5 252t172 182.5t245.5 67.5q109 0 189.5 -59.5t80.5 -155.5q0 -132 -127.5 -204.5t-353.5 -72.5q-2 -50 22.5 -85.5t85.5 -35.5q58 0 119 49q8 9 24 7.5t27 -15.5l86 -112q9 -11 7 -28t-11 -28q-117 -120 -293 -120q-152 0 -243.5 105t-91.5 253z
M317 504q8 0 22 1t49 6t61.5 13t48.5 24.5t22 37.5q0 19 -14 30t-35 11q-46 0 -92.5 -36t-61.5 -87zM395 1049q-34 -15 -47 18l-37 96q-4 11 1.5 22.5t15.5 16.5l352 213q8 8 25.5 6t25.5 -20l53 -123q7 -24 1 -39t-21 -22z" />
    <glyph glyph-name="ecircumflex" unicode="&#xea;" horiz-adv-x="811" 
d="M25 338q0 137 61.5 252t172 182.5t245.5 67.5q109 0 189.5 -59.5t80.5 -155.5q0 -132 -127.5 -204.5t-353.5 -72.5q-2 -50 22.5 -85.5t85.5 -35.5q58 0 119 49q8 9 24 7.5t27 -15.5l86 -112q9 -11 7 -28t-11 -28q-117 -120 -293 -120q-152 0 -243.5 105t-91.5 253z
M317 504q8 0 22 1t49 6t61.5 13t48.5 24.5t22 37.5q0 19 -14 30t-35 11q-46 0 -92.5 -36t-61.5 -87zM326 1049q-25 -15 -39 8l-56 96q-12 21 17 39l284 213q30 20 50 0l233 -213q20 -20 6 -39l-73 -94q-7 -10 -20 -12.5t-19 2.5l-166 122z" />
    <glyph glyph-name="edieresis" unicode="&#xeb;" horiz-adv-x="811" 
d="M25 338q0 137 61.5 252t172 182.5t245.5 67.5q109 0 189.5 -59.5t80.5 -155.5q0 -132 -127.5 -204.5t-353.5 -72.5q-2 -50 22.5 -85.5t85.5 -35.5q58 0 119 49q8 9 24 7.5t27 -15.5l86 -112q9 -11 7 -28t-11 -28q-117 -120 -293 -120q-152 0 -243.5 105t-91.5 253z
M317 504q8 0 22 1t49 6t61.5 13t48.5 24.5t22 37.5q0 19 -14 30t-35 11q-46 0 -92.5 -36t-61.5 -87zM719 1096q-54 0 -86 42.5t-23 102.5q7 60 50.5 101.5t97.5 41.5t86.5 -41.5t25.5 -101.5q-9 -60 -53 -102.5t-98 -42.5zM340 1096q-54 0 -86 42.5t-23 102.5
q7 60 50.5 101.5t97.5 41.5t87 -41.5t26 -101.5q-9 -60 -53.5 -102.5t-98.5 -42.5z" />
    <glyph glyph-name="igrave" unicode="&#xec;" horiz-adv-x="522" 
d="M461 1049l-322 168q-12 7 -14 22t12 39l80 113q19 29 49 6l291 -213q8 -5 10.5 -16t-4.5 -23l-49 -78q-21 -35 -53 -18zM33 39l104 741q3 17 15 28t26 11h236q14 0 22.5 -11t7.5 -28l-104 -741q-1 -15 -14 -27t-27 -12h-236q-13 0 -22.5 12t-7.5 27z" />
    <glyph glyph-name="iacute" unicode="&#xed;" horiz-adv-x="522" 
d="M195 1049q-35 -15 -48 18l-36 96q-4 11 1 22.5t15 16.5l352 213q8 8 25.5 6t25.5 -20l54 -123q7 -24 0.5 -39t-21.5 -22zM33 39l104 741q3 17 15 28t26 11h236q14 0 22.5 -11t7.5 -28l-104 -741q-1 -15 -14 -27t-27 -12h-236q-13 0 -22.5 12t-7.5 27z" />
    <glyph glyph-name="icircumflex" unicode="&#xee;" horiz-adv-x="522" 
d="M33 39l104 741q3 17 15 28t26 11h236q14 0 22.5 -11t7.5 -28l-104 -741q-1 -15 -14 -27t-27 -12h-236q-13 0 -22.5 12t-7.5 27zM127 1049q-25 -15 -39 8l-55 96q-12 21 16 39l285 213q29 20 49 0l233 -213q20 -20 7 -39l-74 -94q-7 -10 -20 -12.5t-19 2.5l-166 122z" />
    <glyph glyph-name="idieresis" unicode="&#xef;" horiz-adv-x="522" 
d="M514 1096q-54 0 -85.5 42.5t-22.5 102.5q7 60 50 101.5t97 41.5t87 -41.5t26 -101.5q-9 -60 -53.5 -102.5t-98.5 -42.5zM135 1096q-54 0 -85.5 42.5t-22.5 102.5q7 60 50 101.5t97 41.5t87 -41.5t26 -101.5q-9 -60 -53.5 -102.5t-98.5 -42.5zM31 39l104 741q3 17 15 28
t26 11h236q14 0 22.5 -11t7.5 -28l-104 -741q-1 -15 -14 -27t-27 -12h-236q-13 0 -22.5 12t-7.5 27z" />
    <glyph glyph-name="eth" unicode="&#xf0;" horiz-adv-x="985" 
d="M33 379q0 126 37.5 227t100 162t139 93t159.5 32q39 0 84.5 -13.5t71.5 -35.5q-8 133 -123 241l-158 -90q-28 -17 -43 13l-16 30q-6 12 0 29t18 25l107 61q-54 33 -93 47q-21 6 -28.5 22t2.5 38l71 145q8 18 25.5 28.5t36.5 4.5q126 -43 238 -140l135 78q27 15 43 -16
l14 -29q6 -13 0.5 -29.5t-18.5 -23.5l-99 -57q189 -213 189 -531q0 -102 -17 -199.5t-57 -191t-99.5 -163.5t-151.5 -113t-206 -43q-150 0 -256 115.5t-106 283.5zM438 262q81 0 132 71.5t51 164.5q0 71 -32.5 115t-94.5 44q-78 0 -130.5 -70t-52.5 -165q0 -71 32.5 -115.5
t94.5 -44.5z" />
    <glyph glyph-name="ntilde" unicode="&#xf1;" horiz-adv-x="1011" 
d="M33 39l102 741q3 17 15 28t26 11h98q8 0 17 -7t12 -17l23 -82q122 127 276 127q157 0 243.5 -126t61.5 -304l-51 -371q-3 -15 -15.5 -27t-25.5 -12h-227q-15 0 -23.5 12t-5.5 27l53 387q9 65 -14.5 105t-81.5 40q-47 0 -87.5 -37.5t-49.5 -97.5l-55 -397
q-3 -20 -19.5 -29.5t-36.5 -9.5h-207q-14 0 -22.5 12t-5.5 27zM383 1137l-66 57q-17 17 -4 47q9 20 25.5 44.5t44 55.5t67 51.5t80.5 20.5q35 0 69 -24t65 -48t61 -24q21 0 41 18t31 39q18 35 51 10l63 -53q9 -12 7 -22.5t-13 -36.5q-7 -17 -21.5 -39.5t-39.5 -52t-63 -49
t-79 -19.5q-32 0 -62.5 15.5t-49 33.5t-42 33.5t-44.5 15.5q-40 0 -72 -61q-8 -16 -21.5 -19.5t-27.5 7.5z" />
    <glyph glyph-name="ograve" unicode="&#xf2;" horiz-adv-x="880" 
d="M27 358q0 130 54.5 239.5t157.5 176t232 66.5q140 0 239 -112t99 -271q0 -130 -57 -239t-159.5 -173.5t-227.5 -64.5q-139 0 -238.5 109t-99.5 269zM395 246q60 0 106 55.5t46 132.5q0 57 -31 97t-76 40q-59 0 -104 -55.5t-45 -132.5q0 -58 29.5 -97.5t74.5 -39.5z
M637 1049l-322 168q-12 7 -14 22t12 39l80 113q19 29 49 6l291 -213q8 -5 10.5 -16t-4.5 -23l-49 -78q-21 -35 -53 -18z" />
    <glyph glyph-name="oacute" unicode="&#xf3;" horiz-adv-x="880" 
d="M27 358q0 130 54.5 239.5t157.5 176t232 66.5q140 0 239 -112t99 -271q0 -130 -57 -239t-159.5 -173.5t-227.5 -64.5q-139 0 -238.5 109t-99.5 269zM395 246q60 0 106 55.5t46 132.5q0 57 -31 97t-76 40q-59 0 -104 -55.5t-45 -132.5q0 -58 29.5 -97.5t74.5 -39.5z
M367 1049q-35 -15 -48 18l-36 96q-4 11 1 22.5t15 16.5l352 213q8 8 25.5 6t25.5 -20l54 -123q7 -24 0.5 -39t-21.5 -22z" />
    <glyph glyph-name="ocircumflex" unicode="&#xf4;" horiz-adv-x="880" 
d="M27 358q0 130 54.5 239.5t157.5 176t232 66.5q140 0 239 -112t99 -271q0 -130 -57 -239t-159.5 -173.5t-227.5 -64.5q-139 0 -238.5 109t-99.5 269zM395 246q60 0 106 55.5t46 132.5q0 57 -31 97t-76 40q-59 0 -104 -55.5t-45 -132.5q0 -58 29.5 -97.5t74.5 -39.5z
M295 1049q-25 -15 -39 8l-55 96q-12 21 16 39l285 213q29 20 49 0l233 -213q20 -20 7 -39l-74 -94q-7 -10 -20 -12.5t-19 2.5l-166 122z" />
    <glyph glyph-name="otilde" unicode="&#xf5;" horiz-adv-x="880" 
d="M27 358q0 130 54.5 239.5t157.5 176t232 66.5q140 0 239 -112t99 -271q0 -130 -57 -239t-159.5 -173.5t-227.5 -64.5q-139 0 -238.5 109t-99.5 269zM395 246q60 0 106 55.5t46 132.5q0 57 -31 97t-76 40q-59 0 -104 -55.5t-45 -132.5q0 -58 29.5 -97.5t74.5 -39.5z
M293 1137l-66 57q-17 17 -4 47q9 20 25.5 44.5t44 55.5t67 51.5t80.5 20.5q35 0 69 -24t65 -48t61 -24q21 0 41 18t31 39q18 35 51 10l63 -53q9 -12 7 -22.5t-13 -36.5q-7 -17 -21.5 -39.5t-39.5 -52t-63 -49t-79 -19.5q-32 0 -62.5 15.5t-49 33.5t-42 33.5t-44.5 15.5
q-40 0 -72 -61q-8 -16 -21.5 -19.5t-27.5 7.5z" />
    <glyph glyph-name="odieresis" unicode="&#xf6;" horiz-adv-x="880" 
d="M27 358q0 130 54.5 239.5t157.5 176t232 66.5q140 0 239 -112t99 -271q0 -130 -57 -239t-159.5 -173.5t-227.5 -64.5q-139 0 -238.5 109t-99.5 269zM395 246q60 0 106 55.5t46 132.5q0 57 -31 97t-76 40q-59 0 -104 -55.5t-45 -132.5q0 -58 29.5 -97.5t74.5 -39.5z
M692 1096q-54 0 -85.5 42.5t-22.5 102.5q7 60 50 101.5t97 41.5t87 -41.5t26 -101.5q-9 -60 -53.5 -102.5t-98.5 -42.5zM313 1096q-54 0 -85.5 42.5t-22.5 102.5q7 60 50 101.5t97 41.5t87 -41.5t26 -101.5q-9 -60 -53.5 -102.5t-98.5 -42.5z" />
    <glyph glyph-name="divide" unicode="&#xf7;" horiz-adv-x="933" 
d="M516 965q-53 0 -87 39t-34 94q0 71 49.5 121.5t114.5 50.5q55 0 91 -38.5t36 -94.5q0 -70 -51.5 -121t-118.5 -51zM98 598q-13 0 -21.5 12t-6.5 27l20 143q2 15 14 27t25 12h748q13 0 21.5 -12t6.5 -27l-20 -143q-1 -15 -13 -27t-26 -12h-748zM279 297q0 70 50 120
t115 50q55 0 91 -38.5t36 -94.5q0 -70 -51.5 -121t-118.5 -51q-53 0 -87.5 39t-34.5 96z" />
    <glyph glyph-name="oslash" unicode="&#xf8;" horiz-adv-x="886" 
d="M39 18l-23 25q-8 10 -6.5 26.5t13.5 26.5l59 58q-51 91 -51 204q0 130 54.5 239.5t157.5 176t232 66.5q126 0 223 -97l66 64q12 12 26 11.5t23 -11.5l21 -25q9 -10 6.5 -25.5t-15.5 -27.5l-67 -63q55 -96 55 -209q0 -130 -57 -239t-159.5 -173.5t-227.5 -64.5
q-130 0 -224 94l-59 -58q-12 -10 -25.5 -9.5t-21.5 11.5zM285 348l223 213q-24 21 -59 21q-64 0 -114 -61t-50 -146v-27zM334 256q23 -20 61 -20q65 0 115.5 61t50.5 145q0 5 -1 15.5t-1 15.5z" />
    <glyph glyph-name="ugrave" unicode="&#xf9;" horiz-adv-x="985" 
d="M334 -20q-156 0 -224 113t-40 317l53 370q1 17 13 28t26 11h227q14 0 23 -11t8 -28l-55 -385q-21 -149 69 -149q49 0 82 39t41 98l57 397q3 22 14 30.5t40 8.5h206q14 0 23 -11t8 -28l-104 -741q-1 -15 -14 -27t-27 -12h-98q-21 0 -29 25l-23 79q-40 -48 -111 -86
t-165 -38zM684 1049l-322 168q-12 7 -14 22t12 39l80 113q19 29 49 6l291 -213q8 -5 10.5 -16t-4.5 -23l-49 -78q-21 -35 -53 -18z" />
    <glyph glyph-name="uacute" unicode="&#xfa;" horiz-adv-x="985" 
d="M334 -20q-156 0 -224 113t-40 317l53 370q1 17 13 28t26 11h227q14 0 23 -11t8 -28l-55 -385q-21 -149 69 -149q49 0 82 39t41 98l57 397q3 22 14 30.5t40 8.5h206q14 0 23 -11t8 -28l-104 -741q-1 -15 -14 -27t-27 -12h-98q-21 0 -29 25l-23 79q-40 -48 -111 -86
t-165 -38zM418 1049q-34 -15 -47 18l-37 96q-4 11 1 22.5t15 16.5l352 213q8 8 26 6t26 -20l53 -123q7 -24 0.5 -39t-21.5 -22z" />
    <glyph glyph-name="ucircumflex" unicode="&#xfb;" horiz-adv-x="985" 
d="M334 -20q-156 0 -224 113t-40 317l53 370q1 17 13 28t26 11h227q14 0 23 -11t8 -28l-55 -385q-21 -149 69 -149q49 0 82 39t41 98l57 397q3 22 14 30.5t40 8.5h206q14 0 23 -11t8 -28l-104 -741q-1 -15 -14 -27t-27 -12h-98q-21 0 -29 25l-23 79q-40 -48 -111 -86
t-165 -38zM342 1049q-25 -15 -39 8l-55 96q-12 21 16 39l285 213q29 20 49 0l233 -213q20 -20 7 -39l-74 -94q-7 -10 -20 -12.5t-19 2.5l-166 122z" />
    <glyph glyph-name="udieresis" unicode="&#xfc;" horiz-adv-x="985" 
d="M334 -20q-156 0 -224 113t-40 317l53 370q1 17 13 28t26 11h227q14 0 23 -11t8 -28l-55 -385q-21 -149 69 -149q49 0 82 39t41 98l57 397q3 22 14 30.5t40 8.5h206q14 0 23 -11t8 -28l-104 -741q-1 -15 -14 -27t-27 -12h-98q-21 0 -29 25l-23 79q-40 -48 -111 -86
t-165 -38zM739 1096q-54 0 -85.5 42.5t-22.5 102.5q7 60 50 101.5t97 41.5t87 -41.5t26 -101.5q-9 -60 -53.5 -102.5t-98.5 -42.5zM360 1096q-54 0 -85.5 42.5t-22.5 102.5q7 60 50 101.5t97 41.5t87 -41.5t26 -101.5q-9 -60 -53.5 -102.5t-98.5 -42.5z" />
    <glyph glyph-name="yacute" unicode="&#xfd;" horiz-adv-x="868" 
d="M213 92l-172 682q-5 20 5 32.5t32 12.5h209q9 0 17 -6.5t9 -15.5l90 -375h3l182 375q11 22 35 22h237q20 0 27 -16.5t-4 -36.5l-754 -1356q-12 -24 -35 -24h-239q-20 0 -26.5 14.5t5.5 36.5zM362 1049q-34 -15 -47 18l-36 96q-4 11 1 22.5t15 16.5l352 213q8 8 25.5 6
t25.5 -20l54 -123q7 -24 0.5 -39t-21.5 -22z" />
    <glyph glyph-name="thorn" unicode="&#xfe;" horiz-adv-x="987" 
d="M324 12l-82 -590q-3 -15 -15.5 -26.5t-25.5 -11.5h-226q-14 0 -22.5 11.5t-5.5 26.5l276 1973q3 15 15.5 27t25.5 12h225q14 0 23 -12t6 -27l-84 -604q78 47 176 47q145 0 235.5 -127t65.5 -301q-27 -186 -150.5 -308t-297.5 -122q-26 0 -74 11t-65 21zM471 246
q61 0 104 46.5t54 117.5q9 70 -20.5 115.5t-90.5 45.5q-60 0 -103.5 -46t-52.5 -115q-11 -71 19 -117.5t90 -46.5z" />
    <glyph glyph-name="ydieresis" unicode="&#xff;" horiz-adv-x="868" 
d="M213 92l-172 682q-5 20 5 32.5t32 12.5h209q9 0 17 -6.5t9 -15.5l90 -375h3l182 375q11 22 35 22h237q20 0 27 -16.5t-4 -36.5l-754 -1356q-12 -24 -35 -24h-239q-20 0 -26.5 14.5t5.5 36.5zM688 1096q-54 0 -85.5 42.5t-22.5 102.5q7 60 50 101.5t97 41.5t87 -41.5
t26 -101.5q-9 -60 -53.5 -102.5t-98.5 -42.5zM309 1096q-54 0 -85.5 42.5t-22.5 102.5q7 60 50 101.5t97 41.5t87 -41.5t26 -101.5q-9 -60 -53.5 -102.5t-98.5 -42.5z" />
    <glyph glyph-name="Amacron" unicode="&#x100;" 
d="M-51 0q-21 0 -28.5 16.5t3.5 36.5l776 1379q15 22 35 22h19q21 0 28 -22l385 -1379q6 -20 -5.5 -36.5t-33.5 -16.5h-231q-29 0 -44.5 11t-21.5 40l-34 162h-453l-80 -164q-22 -49 -82 -49h-233zM489 492h230l-64 342h-2zM528 1640q-15 0 -23.5 11t-6.5 26l12 84
q3 17 14.5 28t26.5 11h475q15 0 23.5 -11t5.5 -28l-15 -84q-3 -15 -14.5 -26t-26.5 -11h-471z" />
    <glyph glyph-name="amacron" unicode="&#x101;" horiz-adv-x="972" 
d="M340 1153q-15 0 -23 11t-6 26l11 84q1 17 13 28t27 11h474q14 0 22.5 -11t5.5 -28l-12 -84q-2 -15 -13 -26t-26 -11h-473zM895 780l-111 -741q-3 -15 -15.5 -27t-25.5 -12h-106q-12 0 -20.5 8.5t-10.5 22.5l-12 71q-40 -44 -114.5 -83t-162.5 -39q-137 0 -212.5 107
t-75.5 271q0 200 124 341t293 141q46 0 88.5 -13.5t69.5 -32t47.5 -37.5t29.5 -33l9 -13l41 84q12 24 39 24h96q14 0 23 -11t6 -28zM414 246q69 0 115 52t46 130q0 60 -32.5 101.5t-81.5 41.5q-59 0 -107.5 -55t-48.5 -131q0 -59 31 -99t78 -40z" />
    <glyph glyph-name="Abreve" unicode="&#x102;" 
d="M-51 0q-21 0 -28.5 16.5t3.5 36.5l776 1379q15 22 35 22h19q21 0 28 -22l385 -1379q6 -20 -5.5 -36.5t-33.5 -16.5h-231q-29 0 -44.5 11t-21.5 40l-34 162h-453l-80 -164q-22 -49 -82 -49h-233zM489 492h230l-64 342h-2zM764 1563q-97 0 -163.5 70.5t-65.5 174.5
q0 19 11.5 32t28.5 13h89q9 0 16.5 -7.5t9.5 -16.5q6 -42 31 -70t59 -28q31 0 64 29.5t51 68.5q10 24 35 24h102q17 0 26 -13t5 -32q-25 -109 -105.5 -177t-193.5 -68z" />
    <glyph glyph-name="abreve" unicode="&#x103;" horiz-adv-x="972" 
d="M549 1079q-97 0 -164 71t-66 175q0 19 12 32t29 13h89q9 0 16.5 -7.5t9.5 -16.5q6 -42 31 -70.5t59 -28.5q31 0 64 30t51 69q10 24 35 24h102q17 0 26 -13t5 -32q-25 -109 -105.5 -177.5t-193.5 -68.5zM895 780l-111 -741q-3 -15 -15.5 -27t-25.5 -12h-106
q-12 0 -20.5 8.5t-10.5 22.5l-12 71q-40 -44 -114.5 -83t-162.5 -39q-137 0 -212.5 107t-75.5 271q0 200 124 341t293 141q46 0 88.5 -13.5t69.5 -32t47.5 -37.5t29.5 -33l9 -13l41 84q12 24 39 24h96q14 0 23 -11t6 -28zM414 246q69 0 115 52t46 130q0 60 -32.5 101.5
t-81.5 41.5q-59 0 -107.5 -55t-48.5 -131q0 -59 31 -99t78 -40z" />
    <glyph glyph-name="Aogonek" unicode="&#x104;" 
d="M-51 0q-21 0 -28.5 16.5t3.5 36.5l776 1379q15 22 35 22h19q21 0 28 -22l385 -1379q6 -20 -5.5 -36.5t-33.5 -16.5h-170q-110 -105 -110 -219q0 -49 28.5 -81t88.5 -32q11 0 69 13q21 4 31.5 -7.5t7.5 -31.5l-10 -68q-1 -13 -12 -24.5t-23 -14.5q-43 -16 -115 -16
q-98 0 -167.5 52t-69.5 146q0 57 19 111t47.5 92.5t52 62t43.5 37.5l-41 193h-453l-80 -164q-22 -49 -82 -49h-233zM489 492h230l-64 342h-2z" />
    <glyph glyph-name="aogonek" unicode="&#x105;" horiz-adv-x="972" 
d="M895 780l-111 -741q-3 -15 -15.5 -27t-25.5 -12h-12q-110 -105 -110 -219q0 -49 28 -81t88 -32q11 0 70 13q21 4 31.5 -7.5t7.5 -31.5l-10 -68q-1 -13 -12 -24.5t-23 -14.5q-43 -16 -115 -16q-98 0 -167.5 52t-69.5 146q0 55 18 107.5t47 91.5t51 62t43 40l-14 84
q-40 -44 -114.5 -83t-162.5 -39q-137 0 -212.5 107t-75.5 271q0 200 124 341t293 141q46 0 88.5 -13.5t69.5 -32t47.5 -37.5t29.5 -33l9 -13l41 84q12 24 39 24h96q14 0 23 -11t6 -28zM414 246q69 0 115 52t46 130q0 60 -32.5 101.5t-81.5 41.5q-59 0 -107.5 -55t-48.5 -131
q0 -59 31 -99t78 -40z" />
    <glyph glyph-name="Cacute" unicode="&#x106;" horiz-adv-x="1261" 
d="M92 625q0 231 99 420.5t275.5 299t393.5 109.5q267 0 430 -190q9 -12 7 -29t-15 -29l-176 -155q-25 -22 -47 0q-38 43 -98.5 68.5t-122.5 25.5q-104 0 -194.5 -67t-144 -179t-53.5 -240q0 -148 77 -250t200 -102q51 0 116.5 30.5t121.5 76.5q11 9 26 8t23 -10l139 -185
q8 -13 4.5 -28.5t-14.5 -26.5q-206 -192 -463 -192q-114 0 -221 50.5t-187 136.5t-128 206t-48 252zM743 1561q-34 -15 -47 18l-37 96q-4 11 1.5 22.5t15.5 16.5l352 213q8 8 25.5 6t25.5 -20l54 -123q7 -24 0.5 -39t-21.5 -22z" />
    <glyph glyph-name="cacute" unicode="&#x107;" horiz-adv-x="804" 
d="M25 358q0 203 133 342.5t323 139.5q166 0 269 -148q9 -14 3.5 -30t-20.5 -27l-129 -111q-6 -6 -17 -5.5t-20 9.5q-43 43 -100 43q-60 0 -106 -55.5t-46 -132.5q0 -58 29 -97.5t74 -39.5q26 0 49.5 10t37 20.5t34.5 30.5q7 9 19.5 10t25.5 -10l108 -108q27 -27 6 -58
q-63 -86 -141 -123.5t-182 -37.5q-145 0 -247.5 109.5t-102.5 268.5zM377 1049q-34 -15 -47 18l-37 96q-4 11 1 22.5t15 16.5l353 213q8 8 25.5 6t25.5 -20l53 -123q7 -24 0.5 -39t-21.5 -22z" />
    <glyph glyph-name="Ccircumflex" unicode="&#x108;" horiz-adv-x="1261" 
d="M92 625q0 231 99 420.5t275.5 299t393.5 109.5q267 0 430 -190q9 -12 7 -29t-15 -29l-176 -155q-25 -22 -47 0q-38 43 -98.5 68.5t-122.5 25.5q-104 0 -194.5 -67t-144 -179t-53.5 -240q0 -148 77 -250t200 -102q51 0 116.5 30.5t121.5 76.5q11 9 26 8t23 -10l139 -185
q8 -13 4.5 -28.5t-14.5 -26.5q-206 -192 -463 -192q-114 0 -221 50.5t-187 136.5t-128 206t-48 252zM676 1561q-25 -15 -39 8l-55 96q-12 21 16 39l285 213q29 20 49 0l233 -213q20 -20 6 -39l-73 -94q-7 -10 -20 -12.5t-19 2.5l-166 122z" />
    <glyph glyph-name="ccircumflex" unicode="&#x109;" horiz-adv-x="804" 
d="M25 358q0 203 133 342.5t323 139.5q166 0 269 -148q9 -14 3.5 -30t-20.5 -27l-129 -111q-6 -6 -17 -5.5t-20 9.5q-43 43 -100 43q-60 0 -106 -55.5t-46 -132.5q0 -58 29 -97.5t74 -39.5q26 0 49.5 10t37 20.5t34.5 30.5q7 9 19.5 10t25.5 -10l108 -108q27 -27 6 -58
q-63 -86 -141 -123.5t-182 -37.5q-145 0 -247.5 109.5t-102.5 268.5zM307 1049q-25 -15 -39 8l-55 96q-12 21 16 39l285 213q29 20 49 0l234 -213q20 -20 6 -39l-74 -94q-7 -10 -20 -12.5t-19 2.5l-166 122z" />
    <glyph glyph-name="Cdotaccent" unicode="&#x10a;" horiz-adv-x="1261" 
d="M92 625q0 231 99 420.5t275.5 299t393.5 109.5q267 0 430 -190q9 -12 7 -29t-15 -29l-176 -155q-25 -22 -47 0q-38 43 -98.5 68.5t-122.5 25.5q-104 0 -194.5 -67t-144 -179t-53.5 -240q0 -148 77 -250t200 -102q51 0 116.5 30.5t121.5 76.5q11 9 26 8t23 -10l139 -185
q8 -13 4.5 -28.5t-14.5 -26.5q-206 -192 -463 -192q-114 0 -221 50.5t-187 136.5t-128 206t-48 252zM874 1585q-58 0 -95.5 41t-37.5 100q0 75 54 130t125 55q59 0 98 -42t39 -102q0 -74 -55.5 -128t-127.5 -54z" />
    <glyph glyph-name="cdotaccent" unicode="&#x10b;" horiz-adv-x="804" 
d="M25 358q0 203 133 342.5t323 139.5q166 0 269 -148q9 -14 3.5 -30t-20.5 -27l-129 -111q-6 -6 -17 -5.5t-20 9.5q-43 43 -100 43q-60 0 -106 -55.5t-46 -132.5q0 -58 29 -97.5t74 -39.5q26 0 49.5 10t37 20.5t34.5 30.5q7 9 19.5 10t25.5 -10l108 -108q27 -27 6 -58
q-63 -86 -141 -123.5t-182 -37.5q-145 0 -247.5 109.5t-102.5 268.5zM508 1067q-58 0 -95.5 41t-37.5 100q0 74 54.5 129.5t125.5 55.5q58 0 96.5 -42.5t38.5 -101.5q0 -74 -55 -128t-127 -54z" />
    <glyph glyph-name="Ccaron" unicode="&#x10c;" horiz-adv-x="1261" 
d="M92 625q0 231 99 420.5t275.5 299t393.5 109.5q267 0 430 -190q9 -12 7 -29t-15 -29l-176 -155q-25 -22 -47 0q-38 43 -98.5 68.5t-122.5 25.5q-104 0 -194.5 -67t-144 -179t-53.5 -240q0 -148 77 -250t200 -102q51 0 116.5 30.5t121.5 76.5q11 9 26 8t23 -10l139 -185
q8 -13 4.5 -28.5t-14.5 -26.5q-206 -192 -463 -192q-114 0 -221 50.5t-187 136.5t-128 206t-48 252zM852 1561l-234 213q-19 19 -6 38l74 95q7 10 20 12.5t19 -2.5l166 -123l217 123q25 15 39 -8l55 -97q12 -21 -16 -38l-285 -213q-29 -20 -49 0z" />
    <glyph glyph-name="ccaron" unicode="&#x10d;" horiz-adv-x="804" 
d="M25 358q0 203 133 342.5t323 139.5q166 0 269 -148q9 -14 3.5 -30t-20.5 -27l-129 -111q-6 -6 -17 -5.5t-20 9.5q-43 43 -100 43q-60 0 -106 -55.5t-46 -132.5q0 -58 29 -97.5t74 -39.5q26 0 49.5 10t37 20.5t34.5 30.5q7 9 19.5 10t25.5 -10l108 -108q27 -27 6 -58
q-63 -86 -141 -123.5t-182 -37.5q-145 0 -247.5 109.5t-102.5 268.5zM481 1049l-233 213q-19 19 -6 38l73 95q7 10 20 12.5t19 -2.5l166 -123l217 123q25 15 39 -8l55 -97q12 -21 -16 -38l-285 -213q-29 -20 -49 0z" />
    <glyph glyph-name="Dcaron" unicode="&#x10e;" horiz-adv-x="1388" 
d="M96 39l191 1356q1 15 13 27t26 12h456q157 0 286 -90t199 -232t70 -301q0 -164 -58 -313.5t-157 -259t-240 -174t-300 -64.5h-459q-13 0 -21.5 12t-5.5 27zM455 303h153q104 0 193 64.5t141.5 176t52.5 242.5q0 148 -74 247.5t-196 99.5h-154zM715 1561l-234 213
q-19 19 -6 38l74 95q7 10 20 12.5t19 -2.5l166 -123l217 123q25 15 39 -8l55 -97q12 -21 -16 -38l-285 -213q-29 -20 -49 0z" />
    <glyph glyph-name="dcaron" unicode="&#x10f;" horiz-adv-x="1064" 
d="M338 -20q-93 0 -165 54t-108 140t-36 188q0 133 62 244t161 172.5t209 61.5q39 0 74.5 -8t50.5 -16l16 -9l84 588q3 20 12 29.5t31 9.5h232q13 0 22.5 -12t7.5 -27l-190 -1356q-3 -15 -15.5 -27t-25.5 -12h-96q-9 0 -18.5 8t-12.5 17l-23 77q-41 -45 -113 -83.5
t-159 -38.5zM426 246q61 0 109.5 54t48.5 128q1 60 -34 101.5t-83 41.5q-61 0 -107.5 -55t-46.5 -131q0 -58 33 -98.5t80 -40.5zM1133 848l-29 39q-18 25 10 43q13 8 33.5 26t49.5 49t53 77t32 94l-36 -10q-25 -5 -50 -5q-52 0 -86.5 36.5t-34.5 90.5q0 68 52 117t126 49
q56 0 101 -47.5t45 -142.5q0 -245 -230 -414q-24 -18 -36 -2z" />
    <glyph glyph-name="Dcroat" unicode="&#x110;" horiz-adv-x="1398" 
d="M106 39l87 614h-54q-14 0 -22.5 12t-5.5 27l6 35q3 16 13.5 27.5t23.5 11.5h55l88 629q1 15 13 27t26 12h457q118 0 222.5 -51t177 -136.5t114 -199t41.5 -236.5q0 -164 -58.5 -313.5t-159 -259t-241 -174t-297.5 -64.5h-459q-13 0 -21.5 12t-5.5 27zM465 303h153
q159 0 273.5 141.5t114.5 341.5q0 148 -74.5 247.5t-196.5 99.5h-153l-54 -367h234q15 0 24.5 -12t6.5 -27l-7 -37q-3 -15 -14.5 -26t-26.5 -11h-231z" />
    <glyph glyph-name="dcroat" unicode="&#x111;" horiz-adv-x="983" 
d="M338 -20q-93 0 -165 54t-108 140t-36 188q0 133 62 244t161 172.5t209 61.5q39 0 74.5 -8t50.5 -16l16 -9l39 280h-152q-15 0 -24 11t-6 26l6 37q3 15 14.5 27t24.5 12h153l29 195q3 20 12 29.5t31 9.5h232q13 0 22.5 -12t7.5 -27l-28 -195h59q14 0 24 -12t7 -27l-6 -35
q-3 -15 -14.5 -27t-24.5 -12h-60l-147 -1048q-3 -15 -15.5 -27t-25.5 -12h-96q-9 0 -18.5 8t-12.5 17l-23 77q-41 -45 -113 -83.5t-159 -38.5zM426 246q61 0 109.5 54t48.5 128q1 60 -34 101.5t-83 41.5q-61 0 -107.5 -55t-46.5 -131q0 -58 33 -98.5t80 -40.5z" />
    <glyph glyph-name="Emacron" unicode="&#x112;" horiz-adv-x="1114" 
d="M96 39l191 1356q1 15 13 27t26 12h772q15 0 23.5 -11.5t6.5 -27.5l-32 -224q-2 -15 -13 -26.5t-26 -11.5h-488l-37 -254h398q13 0 23 -12t8 -27l-33 -224q-3 -17 -15 -27.5t-26 -10.5h-395l-39 -277h487q14 0 22.5 -11.5t6.5 -27.5l-31 -223q-2 -15 -14 -27t-27 -12h-772
q-15 0 -23.5 12t-5.5 27zM504 1640q-15 0 -24 11t-7 26l12 84q3 17 14.5 28t26.5 11h475q15 0 23.5 -11t5.5 -28l-14 -84q-3 -15 -14.5 -26t-26.5 -11h-471z" />
    <glyph glyph-name="emacron" unicode="&#x113;" horiz-adv-x="811" 
d="M25 338q0 137 61.5 252t172 182.5t245.5 67.5q109 0 189.5 -59.5t80.5 -155.5q0 -132 -127.5 -204.5t-353.5 -72.5q-2 -50 22.5 -85.5t85.5 -35.5q58 0 119 49q8 9 24 7.5t27 -15.5l86 -112q9 -11 7 -28t-11 -28q-117 -120 -293 -120q-152 0 -243.5 105t-91.5 253z
M317 504q8 0 22 1t49 6t61.5 13t48.5 24.5t22 37.5q0 19 -14 30t-35 11q-46 0 -92.5 -36t-61.5 -87zM303 1153q-15 0 -23 11t-6 26l11 84q1 17 13.5 28t27.5 11h473q14 0 22.5 -11t5.5 -28l-12 -84q-2 -15 -13 -26t-26 -11h-473z" />
    <glyph glyph-name="Ebreve" unicode="&#x114;" horiz-adv-x="1114" 
d="M96 39l191 1356q1 15 13 27t26 12h772q15 0 23.5 -11.5t6.5 -27.5l-32 -224q-2 -15 -13 -26.5t-26 -11.5h-488l-37 -254h398q13 0 23 -12t8 -27l-33 -224q-3 -17 -15 -27.5t-26 -10.5h-395l-39 -277h487q14 0 22.5 -11.5t6.5 -27.5l-31 -223q-2 -15 -14 -27t-27 -12h-772
q-15 0 -23.5 12t-5.5 27zM735 1563q-97 0 -163.5 70.5t-65.5 174.5q0 19 12 32t29 13h88q9 0 17 -7.5t10 -16.5q6 -42 31 -70t59 -28q31 0 63.5 29.5t50.5 68.5q10 24 35 24h103q17 0 26 -13t4 -32q-25 -109 -105.5 -177t-193.5 -68z" />
    <glyph glyph-name="ebreve" unicode="&#x115;" horiz-adv-x="811" 
d="M25 338q0 137 61.5 252t172 182.5t245.5 67.5q109 0 189.5 -59.5t80.5 -155.5q0 -132 -127.5 -204.5t-353.5 -72.5q-2 -50 22.5 -85.5t85.5 -35.5q58 0 119 49q8 9 24 7.5t27 -15.5l86 -112q9 -11 7 -28t-11 -28q-117 -120 -293 -120q-152 0 -243.5 105t-91.5 253z
M317 504q8 0 22 1t49 6t61.5 13t48.5 24.5t22 37.5q0 19 -14 30t-35 11q-46 0 -92.5 -36t-61.5 -87zM541 1079q-97 0 -164 71t-66 175q0 19 12 32t29 13h88q9 0 17 -7.5t10 -16.5q6 -42 31 -70.5t59 -28.5q31 0 64 30t51 69q10 24 35 24h102q17 0 26 -13t5 -32
q-25 -109 -105.5 -177.5t-193.5 -68.5z" />
    <glyph glyph-name="Edotaccent" unicode="&#x116;" horiz-adv-x="1114" 
d="M96 39l191 1356q1 15 13 27t26 12h772q15 0 23.5 -11.5t6.5 -27.5l-32 -224q-2 -15 -13 -26.5t-26 -11.5h-488l-37 -254h398q13 0 23 -12t8 -27l-33 -224q-3 -17 -15 -27.5t-26 -10.5h-395l-39 -277h487q14 0 22.5 -11.5t6.5 -27.5l-31 -223q-2 -15 -14 -27t-27 -12h-772
q-15 0 -23.5 12t-5.5 27zM731 1585q-58 0 -95.5 41t-37.5 100q0 75 53.5 130t124.5 55q59 0 98 -42t39 -102q0 -74 -55 -128t-127 -54z" />
    <glyph glyph-name="edotaccent" unicode="&#x117;" horiz-adv-x="811" 
d="M25 338q0 137 61.5 252t172 182.5t245.5 67.5q109 0 189.5 -59.5t80.5 -155.5q0 -132 -127.5 -204.5t-353.5 -72.5q-2 -50 22.5 -85.5t85.5 -35.5q58 0 119 49q8 9 24 7.5t27 -15.5l86 -112q9 -11 7 -28t-11 -28q-117 -120 -293 -120q-152 0 -243.5 105t-91.5 253z
M317 504q8 0 22 1t49 6t61.5 13t48.5 24.5t22 37.5q0 19 -14 30t-35 11q-46 0 -92.5 -36t-61.5 -87zM526 1067q-58 0 -95.5 41t-37.5 100q0 74 54.5 129.5t125.5 55.5q58 0 97 -42.5t39 -101.5q0 -74 -55.5 -128t-127.5 -54z" />
    <glyph glyph-name="Eogonek" unicode="&#x118;" horiz-adv-x="1114" 
d="M96 39l191 1356q1 15 13 27t26 12h772q15 0 23.5 -11.5t6.5 -27.5l-32 -224q-2 -15 -13 -26.5t-26 -11.5h-488l-37 -254h398q13 0 23 -12t8 -27l-33 -224q-3 -17 -15 -27.5t-26 -10.5h-395l-39 -277h487q14 0 22.5 -11.5t6.5 -27.5l-27 -199q-1 -12 -6.5 -22.5t-10 -15.5
t-14 -13.5t-12.5 -11.5q-111 -106 -111 -219q0 -49 28.5 -81t88.5 -32q11 0 70 13q21 4 31.5 -7.5t7.5 -31.5l-10 -68q-1 -13 -12 -24.5t-23 -14.5q-43 -16 -115 -16q-98 0 -168 52t-70 146q0 154 140 283h-631q-15 0 -23.5 12t-5.5 27z" />
    <glyph glyph-name="eogonek" unicode="&#x119;" horiz-adv-x="811" 
d="M276 -10q-117 27 -184 124.5t-67 223.5q0 137 61.5 252t172 182.5t245.5 67.5q109 0 189.5 -59.5t80.5 -155.5q0 -132 -127.5 -204.5t-353.5 -72.5q-2 -50 22.5 -85.5t85.5 -35.5q58 0 119 49q8 9 24 7.5t27 -15.5l86 -112q9 -11 7 -28t-11 -28q-94 -97 -237 -116
q-94 -98 -94 -203q0 -49 28 -81t88 -32q12 0 70 13q21 4 31.5 -7.5t7.5 -31.5l-10 -68q-1 -13 -12 -24.5t-23 -14.5q-43 -16 -115 -16q-98 0 -167.5 52t-69.5 146q0 147 126 273zM317 504q8 0 22 1t49 6t61.5 13t48.5 24.5t22 37.5q0 19 -14 30t-35 11q-46 0 -92.5 -36
t-61.5 -87z" />
    <glyph glyph-name="Ecaron" unicode="&#x11a;" horiz-adv-x="1114" 
d="M96 39l191 1356q1 15 13 27t26 12h772q15 0 23.5 -11.5t6.5 -27.5l-32 -224q-2 -15 -13 -26.5t-26 -11.5h-488l-37 -254h398q13 0 23 -12t8 -27l-33 -224q-3 -17 -15 -27.5t-26 -10.5h-395l-39 -277h487q14 0 22.5 -11.5t6.5 -27.5l-31 -223q-2 -15 -14 -27t-27 -12h-772
q-15 0 -23.5 12t-5.5 27zM700 1561l-233 213q-19 19 -6 38l74 95q7 10 19.5 12.5t18.5 -2.5l166 -123l217 123q25 15 39 -8l56 -97q12 -20 -17 -38l-284 -213q-30 -20 -50 0z" />
    <glyph glyph-name="ecaron" unicode="&#x11b;" horiz-adv-x="811" 
d="M25 338q0 137 61.5 252t172 182.5t245.5 67.5q109 0 189.5 -59.5t80.5 -155.5q0 -132 -127.5 -204.5t-353.5 -72.5q-2 -50 22.5 -85.5t85.5 -35.5q58 0 119 49q8 9 24 7.5t27 -15.5l86 -112q9 -11 7 -28t-11 -28q-117 -120 -293 -120q-152 0 -243.5 105t-91.5 253z
M317 504q8 0 22 1t49 6t61.5 13t48.5 24.5t22 37.5q0 19 -14 30t-35 11q-46 0 -92.5 -36t-61.5 -87zM496 1049l-234 213q-19 19 -6 38l74 95q7 10 20 12.5t19 -2.5l166 -123l217 123q25 15 39 -8l55 -97q12 -20 -17 -38l-284 -213q-29 -20 -49 0z" />
    <glyph glyph-name="Gcircumflex" unicode="&#x11c;" horiz-adv-x="1318" 
d="M94 633q0 224 98 411.5t275 298.5t395 111q112 0 228 -51.5t196 -140.5q12 -11 11 -27.5t-13 -28.5l-168 -166q-12 -12 -28 -12t-25 10q-42 42 -100.5 66t-120.5 24q-98 0 -188.5 -64t-146.5 -173.5t-56 -233.5q0 -145 79 -247.5t199 -102.5q81 0 131 33l17 119h-95
q-15 0 -23.5 11t-6.5 26l28 202q3 17 14.5 28t26.5 11h383q13 0 22 -12t7 -27l-76 -551q-2 -19 -20 -32q-9 -5 -24.5 -14.5t-66 -32.5t-103 -41t-130 -32.5t-151.5 -14.5q-156 0 -286.5 87t-206 237.5t-75.5 328.5zM670 1561q-25 -15 -39 8l-56 96q-12 21 17 39l285 213
q29 20 49 0l233 -213q20 -20 6 -39l-73 -94q-7 -10 -20 -12.5t-19 2.5l-166 122z" />
    <glyph glyph-name="gcircumflex" unicode="&#x11d;" horiz-adv-x="980" 
d="M352 1049q-25 -15 -39 8l-55 96q-12 21 16 39l285 213q29 20 49 0l234 -213q20 -20 6 -39l-74 -94q-7 -10 -20 -12.5t-19 2.5l-166 122zM94 -199q31 37 68 0q65 -75 157 -75q59 0 103.5 48.5t60.5 159.5l9 78q-70 -32 -150 -32q-124 0 -218.5 109t-94.5 263
q0 130 56 241.5t154.5 178t215.5 66.5q52 0 96 -13.5t70 -32t44.5 -37.5t25.5 -33l7 -13l35 82q11 28 45 28h96q14 0 23 -11t6 -28l-117 -846q-67 -466 -452 -466q-66 0 -126.5 18t-101 44.5t-65 48.5t-35.5 38q-10 13 -14 19.5t-3.5 22.5t13.5 32zM422 246q69 0 115.5 52
t46.5 130q0 60 -33 101.5t-82 41.5q-59 0 -107.5 -55t-48.5 -131q0 -59 31 -99t78 -40z" />
    <glyph glyph-name="Gbreve" unicode="&#x11e;" horiz-adv-x="1318" 
d="M94 633q0 224 98 411.5t275 298.5t395 111q112 0 228 -51.5t196 -140.5q12 -11 11 -27.5t-13 -28.5l-168 -166q-12 -12 -28 -12t-25 10q-42 42 -100.5 66t-120.5 24q-98 0 -188.5 -64t-146.5 -173.5t-56 -233.5q0 -145 79 -247.5t199 -102.5q81 0 131 33l17 119h-95
q-15 0 -23.5 11t-6.5 26l28 202q3 17 14.5 28t26.5 11h383q13 0 22 -12t7 -27l-76 -551q-2 -19 -20 -32q-9 -5 -24.5 -14.5t-66 -32.5t-103 -41t-130 -32.5t-151.5 -14.5q-156 0 -286.5 87t-206 237.5t-75.5 328.5zM877 1563q-97 0 -164 70.5t-66 174.5q0 19 12 32t29 13h88
q9 0 17 -7.5t10 -16.5q6 -42 31 -70t59 -28q31 0 64 29.5t51 68.5q10 24 34 24h103q17 0 26 -13t5 -32q-25 -109 -105.5 -177t-193.5 -68z" />
    <glyph glyph-name="gbreve" unicode="&#x11f;" horiz-adv-x="980" 
d="M555 1079q-97 0 -163.5 71t-65.5 175q0 19 12 32t29 13h88q9 0 16.5 -7.5t9.5 -16.5q6 -42 31 -70.5t59 -28.5q31 0 64 30t51 69q10 24 35 24h102q17 0 26 -13t5 -32q-25 -109 -105.5 -177.5t-193.5 -68.5zM94 -199q31 37 68 0q65 -75 157 -75q59 0 103.5 48.5
t60.5 159.5l9 78q-70 -32 -150 -32q-124 0 -218.5 109t-94.5 263q0 130 56 241.5t154.5 178t215.5 66.5q52 0 96 -13.5t70 -32t44.5 -37.5t25.5 -33l7 -13l35 82q11 28 45 28h96q14 0 23 -11t6 -28l-117 -846q-67 -466 -452 -466q-66 0 -126.5 18t-101 44.5t-65 48.5
t-35.5 38q-10 13 -14 19.5t-3.5 22.5t13.5 32zM422 246q69 0 115.5 52t46.5 130q0 60 -33 101.5t-82 41.5q-59 0 -107.5 -55t-48.5 -131q0 -59 31 -99t78 -40z" />
    <glyph glyph-name="Gdotaccent" unicode="&#x120;" horiz-adv-x="1318" 
d="M94 633q0 224 98 411.5t275 298.5t395 111q112 0 228 -51.5t196 -140.5q12 -11 11 -27.5t-13 -28.5l-168 -166q-12 -12 -28 -12t-25 10q-42 42 -100.5 66t-120.5 24q-98 0 -188.5 -64t-146.5 -173.5t-56 -233.5q0 -145 79 -247.5t199 -102.5q81 0 131 33l17 119h-95
q-15 0 -23.5 11t-6.5 26l28 202q3 17 14.5 28t26.5 11h383q13 0 22 -12t7 -27l-76 -551q-2 -19 -20 -32q-9 -5 -24.5 -14.5t-66 -32.5t-103 -41t-130 -32.5t-151.5 -14.5q-156 0 -286.5 87t-206 237.5t-75.5 328.5zM870 1585q-58 0 -95.5 41t-37.5 100q0 75 53.5 130
t124.5 55q59 0 98.5 -42.5t39.5 -101.5q0 -74 -55.5 -128t-127.5 -54z" />
    <glyph glyph-name="gdotaccent" unicode="&#x121;" horiz-adv-x="980" 
d="M549 1067q-58 0 -95.5 41t-37.5 100q0 74 54.5 129.5t125.5 55.5q58 0 96.5 -42.5t38.5 -101.5q0 -74 -55 -128t-127 -54zM94 -199q31 37 68 0q65 -75 157 -75q59 0 103.5 48.5t60.5 159.5l9 78q-70 -32 -150 -32q-124 0 -218.5 109t-94.5 263q0 130 56 241.5t154.5 178
t215.5 66.5q52 0 96 -13.5t70 -32t44.5 -37.5t25.5 -33l7 -13l35 82q11 28 45 28h96q14 0 23 -11t6 -28l-117 -846q-67 -466 -452 -466q-66 0 -126.5 18t-101 44.5t-65 48.5t-35.5 38q-10 13 -14 19.5t-3.5 22.5t13.5 32zM422 246q69 0 115.5 52t46.5 130q0 60 -33 101.5
t-82 41.5q-59 0 -107.5 -55t-48.5 -131q0 -59 31 -99t78 -40z" />
    <glyph glyph-name="Gcommaaccent" unicode="&#x122;" horiz-adv-x="1318" 
d="M94 633q0 224 98 411.5t275 298.5t395 111q112 0 228 -51.5t196 -140.5q12 -11 11 -27.5t-13 -28.5l-168 -166q-12 -12 -28 -12t-25 10q-42 42 -100.5 66t-120.5 24q-98 0 -188.5 -64t-146.5 -173.5t-56 -233.5q0 -145 79 -247.5t199 -102.5q81 0 131 33l17 119h-95
q-15 0 -23.5 11t-6.5 26l28 202q3 17 14.5 28t26.5 11h383q13 0 22 -12t7 -27l-76 -551q-2 -19 -20 -32q-9 -5 -24.5 -14.5t-66 -32.5t-103 -41t-130 -32.5t-151.5 -14.5q-156 0 -286.5 87t-206 237.5t-75.5 328.5zM645 -184q56 0 101 -48t45 -143q0 -244 -230 -413
q-25 -19 -37 -3l-28 39q-18 25 10 43q13 8 33.5 26t49.5 49t53 77t32 94l-38 -10q-25 -4 -48 -4q-52 0 -86.5 36.5t-34.5 90.5q0 68 52 117t126 49z" />
    <glyph glyph-name="gcommaaccent" unicode="&#x123;" horiz-adv-x="980" 
d="M553 1079q-56 0 -100.5 48t-44.5 143q0 244 229 413q25 19 37 3l28 -39q18 -25 -10 -43q-13 -8 -33.5 -26t-49.5 -49t-53 -77t-32 -94l38 10q25 4 48 4q52 0 86.5 -36.5t34.5 -90.5q0 -68 -52 -117t-126 -49zM94 -199q31 37 68 0q65 -75 157 -75q59 0 103.5 48.5
t60.5 159.5l9 78q-70 -32 -150 -32q-124 0 -218.5 109t-94.5 263q0 130 56 241.5t154.5 178t215.5 66.5q52 0 96 -13.5t70 -32t44.5 -37.5t25.5 -33l7 -13l35 82q11 28 45 28h96q14 0 23 -11t6 -28l-117 -846q-67 -466 -452 -466q-66 0 -126.5 18t-101 44.5t-65 48.5
t-35.5 38q-10 13 -14 19.5t-3.5 22.5t13.5 32zM422 246q69 0 115.5 52t46.5 130q0 60 -33 101.5t-82 41.5q-59 0 -107.5 -55t-48.5 -131q0 -59 31 -99t78 -40z" />
    <glyph glyph-name="Hcircumflex" unicode="&#x124;" horiz-adv-x="1464" 
d="M96 39l191 1356q1 15 14 27t27 12h250q15 0 23.5 -11.5t6.5 -27.5l-73 -516h479l71 516q2 15 14 27t27 12h252q13 0 23 -12t8 -27l-190 -1356q-1 -15 -14 -27t-27 -12h-254q-14 0 -22.5 11.5t-6.5 27.5l76 539h-477l-76 -539q-3 -16 -14.5 -27.5t-26.5 -11.5h-252
q-13 0 -22 12t-7 27zM666 1561q-25 -15 -39 8l-56 96q-12 21 17 39l284 213q30 20 50 0l233 -213q20 -20 6 -39l-74 -94q-7 -10 -19.5 -12.5t-18.5 2.5l-166 122z" />
    <glyph glyph-name="hcircumflex" unicode="&#x125;" horiz-adv-x="1019" 
d="M33 39l190 1356q1 15 14 27t27 12h236q13 0 22.5 -12t7.5 -27l-86 -602q71 47 162 47q108 0 185 -60.5t108 -158t14 -211.5l-51 -371q-3 -15 -15.5 -27t-25.5 -12h-227q-14 0 -22.5 11.5t-6.5 27.5l51 371q11 69 -18 115t-86 46q-100 0 -121 -161l-51 -371
q-3 -21 -13 -30t-34 -9h-232q-14 0 -22.5 12t-5.5 27zM190 1493q-15 -8 -22.5 -6.5t-15.5 14.5l-56 96q-12 21 17 39l284 213q29 20 49 0l234 -213q20 -20 6 -39l-74 -94q-7 -10 -20 -12.5t-19 2.5l-165 123z" />
    <glyph glyph-name="Hbar" unicode="&#x126;" horiz-adv-x="1464" 
d="M96 39l148 1048h-56q-13 0 -20.5 11.5t-5.5 27.5l4 35q2 15 14 27t25 12h53l29 195q1 15 14 27t27 12h250q15 0 23.5 -11.5t6.5 -27.5l-26 -195h477l26 195q2 15 14 27t27 12h252q13 0 23 -12t8 -27l-29 -195h56q15 0 24 -12t6 -27l-6 -37q-3 -15 -14.5 -26t-26.5 -11
h-53l-147 -1048q-3 -15 -15.5 -27t-25.5 -12h-254q-14 0 -22.5 11.5t-6.5 27.5l76 539h-477l-76 -539q-3 -16 -14.5 -27.5t-26.5 -11.5h-252q-14 0 -23 12t-6 27zM535 879h479l28 208h-477z" />
    <glyph glyph-name="hbar" unicode="&#x127;" horiz-adv-x="1019" 
d="M33 39l147 1048h-57q-14 0 -23 12t-6 27l6 35q3 15 14.5 27t24.5 12h56l28 195q1 15 14 27t27 12h236q13 0 22.5 -12t7.5 -27l-28 -195h155q15 0 24.5 -12t6.5 -27l-6 -37q-3 -15 -14.5 -26t-26.5 -11h-156l-41 -294q71 47 162 47q108 0 185 -60.5t108 -158t14 -211.5
l-51 -371q-3 -15 -15.5 -27t-25.5 -12h-227q-14 0 -22.5 11.5t-6.5 27.5l51 371q11 69 -18 115t-86 46q-100 0 -121 -161l-51 -371q-3 -21 -13 -30t-34 -9h-232q-14 0 -22.5 12t-5.5 27z" />
    <glyph glyph-name="Itilde" unicode="&#x128;" horiz-adv-x="665" 
d="M96 39l191 1356q1 15 13 27t26 12h256q13 0 21.5 -12t6.5 -27l-190 -1356q-2 -15 -14 -27t-25 -12h-256q-13 0 -22 12t-7 27zM264 1608l-65 57q-17 17 -4 47q9 20 25.5 44.5t44 55.5t67 51.5t80.5 20.5q35 0 68.5 -24t64.5 -48t61 -24q21 0 41 18t31 39q18 35 51 10
l64 -53q5 -4 6.5 -9t-1 -14.5t-4.5 -15t-8 -20.5q-7 -18 -21.5 -40t-39.5 -51.5t-62.5 -49t-78.5 -19.5q-32 0 -62.5 15.5t-49.5 33.5t-42.5 33.5t-44.5 15.5q-40 0 -72 -61q-8 -16 -21.5 -19.5t-27.5 7.5z" />
    <glyph glyph-name="itilde" unicode="&#x129;" horiz-adv-x="522" 
d="M127 1137l-66 57q-17 17 -4 47q9 20 25.5 44.5t44 55.5t67 51.5t80.5 20.5q35 0 69 -24t65 -48t61 -24q21 0 41 18t31 39q18 35 51 10l63 -53q9 -12 7 -22.5t-13 -36.5q-7 -17 -21.5 -39.5t-39.5 -52t-63 -49t-79 -19.5q-32 0 -62.5 15.5t-49 33.5t-42 33.5t-44.5 15.5
q-40 0 -72 -61q-8 -16 -21.5 -19.5t-27.5 7.5zM33 39l104 741q3 17 15 28t26 11h236q14 0 22.5 -11t7.5 -28l-104 -741q-1 -15 -14 -27t-27 -12h-236q-13 0 -22.5 12t-7.5 27z" />
    <glyph glyph-name="Imacron" unicode="&#x12a;" horiz-adv-x="665" 
d="M96 39l191 1356q1 15 13 27t26 12h256q13 0 21.5 -12t6.5 -27l-190 -1356q-2 -15 -14 -27t-25 -12h-256q-13 0 -22 12t-7 27zM240 1640q-15 0 -24 11t-7 26l12 84q3 17 14.5 28t26.5 11h475q15 0 23.5 -11t5.5 -28l-14 -84q-3 -15 -14.5 -26t-26.5 -11h-471z" />
    <glyph glyph-name="imacron" unicode="&#x12b;" horiz-adv-x="522" 
d="M92 1153q-15 0 -23 11t-6 26l11 84q1 17 13.5 28t27.5 11h473q14 0 22.5 -11t5.5 -28l-12 -84q-2 -15 -13 -26t-26 -11h-473zM33 39l104 741q3 17 15 28t26 11h236q14 0 22.5 -11t7.5 -28l-104 -741q-1 -15 -14 -27t-27 -12h-236q-13 0 -22.5 12t-7.5 27z" />
    <glyph glyph-name="Ibreve" unicode="&#x12c;" horiz-adv-x="665" 
d="M96 39l191 1356q1 15 13 27t26 12h256q13 0 21.5 -12t6.5 -27l-190 -1356q-2 -15 -14 -27t-25 -12h-256q-13 0 -22 12t-7 27zM485 1563q-97 0 -163.5 70.5t-65.5 174.5q0 19 12 32t29 13h88q9 0 17 -7.5t10 -16.5q6 -42 31 -70t59 -28q31 0 63.5 29.5t50.5 68.5
q10 24 35 24h103q17 0 26 -13t4 -32q-25 -109 -105.5 -177t-193.5 -68z" />
    <glyph glyph-name="ibreve" unicode="&#x12d;" horiz-adv-x="522" 
d="M334 1079q-97 0 -164 71t-66 175q0 19 12 32t29 13h88q9 0 17 -7.5t10 -16.5q6 -42 31 -70.5t59 -28.5q31 0 64 30t51 69q10 24 35 24h102q17 0 26 -13t5 -32q-25 -109 -105.5 -177.5t-193.5 -68.5zM33 39l104 741q3 17 15 28t26 11h236q14 0 22.5 -11t7.5 -28l-104 -741
q-1 -15 -14 -27t-27 -12h-236q-13 0 -22.5 12t-7.5 27z" />
    <glyph glyph-name="Iogonek" unicode="&#x12e;" horiz-adv-x="665" 
d="M96 39l191 1356q1 15 13 27t26 12h256q13 0 21.5 -12t6.5 -27l-190 -1356q-2 -15 -14 -27t-25 -12h-68q-110 -105 -110 -219q0 -49 28 -81t88 -32q11 0 70 13q21 4 31.5 -7.5t7.5 -31.5l-10 -68q-1 -13 -12 -24.5t-23 -14.5q-43 -16 -115 -16q-98 0 -167.5 52t-69.5 146
q0 155 139 283h-45q-13 0 -22 12t-7 27z" />
    <glyph glyph-name="iogonek" unicode="&#x12f;" horiz-adv-x="522" 
d="M330 1067q-59 0 -98 41t-39 100q0 75 55 130t127 55q59 0 99 -42.5t40 -101.5q0 -75 -56 -128.5t-128 -53.5zM33 39l104 741q3 17 15 28t26 11h236q14 0 22.5 -11t7.5 -28l-104 -741q-1 -15 -14 -27t-27 -12h-63q-111 -106 -111 -219q0 -49 28.5 -81t88.5 -32q11 0 69 13
q21 4 31.5 -7.5t7.5 -31.5l-10 -68q-1 -13 -12 -24.5t-23 -14.5q-43 -16 -115 -16q-98 0 -167.5 52t-69.5 146q0 155 139 283h-29q-13 0 -22.5 12t-7.5 27z" />
    <glyph glyph-name="Idotaccent" unicode="&#x130;" horiz-adv-x="665" 
d="M96 39l191 1356q1 15 13 27t26 12h256q13 0 21.5 -12t6.5 -27l-190 -1356q-2 -15 -14 -27t-25 -12h-256q-13 0 -22 12t-7 27zM471 1585q-58 0 -95.5 41t-37.5 100q0 75 53.5 130t124.5 55q59 0 98 -42t39 -102q0 -74 -55 -128t-127 -54z" />
    <glyph glyph-name="dotlessi" unicode="&#x131;" horiz-adv-x="522" 
d="M33 39l104 741q3 17 15 28t26 11h236q14 0 22.5 -11t7.5 -28l-104 -741q-1 -15 -14 -27t-27 -12h-236q-13 0 -22.5 12t-7.5 27z" />
    <glyph glyph-name="IJ" unicode="&#x132;" horiz-adv-x="1478" 
d="M96 39l191 1356q1 15 13 27t26 12h256q13 0 21.5 -12t6.5 -27l-190 -1356q-2 -15 -14 -27t-25 -12h-256q-13 0 -22 12t-7 27zM580 129q-15 24 8 51l135 133q25 25 47 0q33 -39 88 -39q41 0 76.5 45t46.5 125l131 951q2 15 13 27t26 12h256q15 0 25 -12t8 -27l-137 -967
q-32 -227 -143.5 -337.5t-303.5 -110.5q-60 0 -111 16.5t-83.5 43.5t-50.5 47.5t-31 41.5z" />
    <glyph glyph-name="ij" unicode="&#x133;" horiz-adv-x="1060" 
d="M330 1067q-59 0 -98 41t-39 100q0 75 55 130t127 55q59 0 99 -42.5t40 -101.5q0 -75 -56 -128.5t-128 -53.5zM33 39l104 741q3 17 15 28t26 11h236q14 0 22.5 -11t7.5 -28l-104 -741q-1 -15 -14 -27t-27 -12h-236q-13 0 -22.5 12t-7.5 27zM868 1067q-59 0 -98 41t-39 100
q0 75 55 130t129 55q59 0 98.5 -42.5t39.5 -101.5q0 -75 -56 -128.5t-129 -53.5zM539 -188l135 968q3 17 15 28t26 11h239q14 0 23 -11t6 -28l-137 -968q-29 -215 -147.5 -331t-309.5 -116q-66 0 -131.5 25.5t-87.5 52.5q-6 7 -6 22t6 25l96 164q7 13 22 16t23 -2
q52 -26 97 -26q107 0 131 170z" />
    <glyph glyph-name="Jcircumflex" unicode="&#x134;" horiz-adv-x="833" 
d="M-68 129q-15 23 9 51l135 133q25 25 47 0q33 -39 88 -39q41 0 76.5 45t46.5 125l131 951q2 15 13 27t26 12h256q15 0 25 -12t8 -27l-138 -967q-32 -227 -143 -337.5t-303 -110.5q-60 0 -111 16.5t-84 43.5t-51 47.5t-31 41.5zM440 1561q-25 -15 -39 8l-55 96
q-12 21 16 39l285 213q29 20 49 0l234 -213q20 -20 6 -39l-74 -94q-7 -10 -20 -12.5t-19 2.5l-166 122z" />
    <glyph glyph-name="jcircumflex" unicode="&#x135;" horiz-adv-x="524" 
d="M2 -188l135 968q3 17 15 28t26 11h240q14 0 22.5 -11t5.5 -28l-137 -968q-29 -215 -147.5 -331t-308.5 -116q-66 0 -132 25.5t-88 52.5q-6 7 -6 22t6 25l97 164q7 13 22 16t23 -2q52 -26 96 -26q107 0 131 170zM117 1049q-25 -15 -39 8l-55 96q-12 21 16 39l285 213
q29 20 49 0l233 -213q20 -20 6 -39l-73 -94q-7 -10 -20 -12.5t-19 2.5l-166 122z" />
    <glyph glyph-name="Kcommaaccent" unicode="&#x136;" horiz-adv-x="1290" 
d="M98 49l189 1335q3 21 17 35.5t34 14.5h248q19 0 30.5 -15t8.5 -35l-76 -538l426 567q14 21 37 21h297q26 0 34 -26.5t-10 -49.5l-489 -623l340 -676q11 -22 -6 -40.5t-35 -18.5h-283q-29 0 -41 27l-297 632l-86 -610q-1 -20 -16.5 -34.5t-34.5 -14.5h-248q-20 0 -30.5 14
t-8.5 35zM582 -184q56 0 100.5 -48t44.5 -143q0 -244 -229 -413q-25 -19 -37 -3l-29 39q-18 25 10 43q13 8 33.5 26t49.5 49t53 77t32 94l-38 -10q-25 -4 -48 -4q-52 0 -86.5 36.5t-34.5 90.5q0 68 52.5 117t126.5 49z" />
    <glyph glyph-name="kcommaaccent" unicode="&#x137;" horiz-adv-x="980" 
d="M33 39l190 1356q1 15 13 27t26 12h236q13 0 22.5 -12t7.5 -27l-125 -887l230 287q20 24 49 24h258q25 0 33 -20t-10 -43l-293 -344l198 -351q12 -21 -0.5 -41t-36.5 -20h-251q-19 0 -25 16l-170 357l-47 -334q-3 -15 -15.5 -27t-25.5 -12h-236q-14 0 -22.5 12t-5.5 27z
M451 -184q56 0 100.5 -48t44.5 -143q0 -244 -229 -413q-25 -19 -37 -3l-29 39q-18 25 10 43q13 8 33.5 26t49.5 49t53 77t32 94l-38 -10q-25 -4 -48 -4q-52 0 -86.5 36.5t-34.5 90.5q0 68 52.5 117t126.5 49z" />
    <glyph glyph-name="kgreenlandic" unicode="&#x138;" horiz-adv-x="964" 
d="M33 39l104 741q1 15 14 27t27 12h232q13 0 21.5 -12t6.5 -27l-45 -313l238 328q17 24 51 24h229q25 0 31.5 -20.5t-12.5 -42.5l-277 -369l213 -326q12 -20 -1 -40.5t-36 -20.5h-235q-15 0 -23 16l-196 316l-41 -293q-1 -15 -14 -27t-27 -12h-232q-13 0 -21.5 12t-6.5 27z
" />
    <glyph glyph-name="Lacute" unicode="&#x139;" horiz-adv-x="964" 
d="M96 39l191 1356q2 15 14 27t27 12h254q13 0 21.5 -12t6.5 -27l-153 -1094h417q14 0 22.5 -11.5t6.5 -27.5l-31 -223q-2 -15 -14 -27t-27 -12h-704q-15 0 -24 12t-7 27zM334 1561q-34 -15 -47 18l-37 96q-4 11 1 22.5t15 16.5l352 213q8 8 26 6t26 -20l53 -123
q7 -24 0.5 -39t-21.5 -22z" />
    <glyph glyph-name="lacute" unicode="&#x13a;" horiz-adv-x="520" 
d="M33 39l190 1356q1 15 14 27t27 12h234q13 0 22.5 -12t7.5 -27l-190 -1356q-1 -15 -14 -27t-27 -12h-236q-13 0 -21.5 12t-6.5 27zM260 1493q-34 -15 -47 18l-37 97q-4 11 1.5 22.5t15.5 16.5l352 213q8 8 25.5 5.5t25.5 -20.5l53 -123q7 -24 1 -39t-21 -22z" />
    <glyph glyph-name="Lcommaaccent" unicode="&#x13b;" horiz-adv-x="962" 
d="M96 39l191 1356q2 15 14 27t27 12h254q13 0 21.5 -12t6.5 -27l-153 -1094h417q14 0 22.5 -11.5t6.5 -27.5l-31 -223q-2 -15 -14 -27t-27 -12h-704q-15 0 -24 12t-7 27zM483 -184q56 0 101 -48t45 -143q0 -244 -230 -413q-25 -19 -37 -3l-28 39q-18 25 10 43q13 8 33.5 26
t49.5 49t53 77t32 94l-38 -10q-25 -4 -48 -4q-52 0 -86.5 36.5t-34.5 90.5q0 68 52 117t126 49z" />
    <glyph glyph-name="lcommaaccent" unicode="&#x13c;" horiz-adv-x="520" 
d="M33 39l190 1356q1 15 14 27t27 12h234q13 0 22.5 -12t7.5 -27l-190 -1356q-1 -15 -14 -27t-27 -12h-236q-13 0 -21.5 12t-6.5 27zM164 -184q56 0 100.5 -48t44.5 -143q0 -244 -229 -413q-25 -19 -37 -3l-29 39q-17 24 11 43q13 8 33.5 26t49.5 49t53 77t32 94l-40 -10
l-47 -4q-52 0 -86 36.5t-34 90.5q0 68 52 117t126 49z" />
    <glyph glyph-name="Lcaron" unicode="&#x13d;" horiz-adv-x="962" 
d="M96 39l191 1356q2 15 14 27t27 12h254q13 0 21.5 -12t6.5 -27l-153 -1094h417q14 0 22.5 -11.5t6.5 -27.5l-31 -223q-2 -15 -14 -27t-27 -12h-704q-15 0 -24 12t-7 27zM877 1454q56 0 100.5 -47.5t44.5 -142.5q0 -245 -229 -414q-24 -19 -37 -2l-29 39q-18 25 10 43
q13 8 33.5 26t49.5 49t53 77t32 94l-36 -10q-25 -5 -50 -5q-52 0 -86.5 36.5t-34.5 90.5q0 68 52.5 117t126.5 49z" />
    <glyph glyph-name="lcaron" unicode="&#x13e;" horiz-adv-x="602" 
d="M33 39l190 1356q1 15 14 27t27 12h234q13 0 22.5 -12t7.5 -27l-190 -1356q-1 -15 -14 -27t-27 -12h-236q-13 0 -21.5 12t-6.5 27zM635 848l-29 39q-18 25 10 43q13 8 33.5 26t49.5 49t53 77t32 94l-36 -10q-25 -5 -50 -5q-52 0 -86 36.5t-34 90.5q0 68 52 117t126 49
q56 0 100.5 -47.5t44.5 -142.5q0 -245 -229 -414q-24 -19 -37 -2z" />
    <glyph glyph-name="Ldot" unicode="&#x13f;" horiz-adv-x="1060" 
d="M96 39l191 1356q2 15 14 27t27 12h254q13 0 21.5 -12t6.5 -27l-153 -1094h417q14 0 22.5 -11.5t6.5 -27.5l-31 -223q-2 -15 -14 -27t-27 -12h-704q-15 0 -24 12t-7 27zM858 575q-58 0 -95.5 41.5t-37.5 100.5q0 75 53.5 129.5t124.5 54.5q59 0 98 -42t39 -101
q0 -74 -55.5 -128.5t-126.5 -54.5z" />
    <glyph glyph-name="ldot" unicode="&#x140;" horiz-adv-x="784" 
d="M33 39l190 1356q1 15 14 27t27 12h234q13 0 22.5 -12t7.5 -27l-190 -1356q-1 -15 -14 -27t-27 -12h-236q-13 0 -21.5 12t-6.5 27zM653 575q-58 0 -95.5 41.5t-37.5 100.5q0 74 54.5 129t125.5 55q58 0 97 -42t39 -101q0 -74 -55.5 -128.5t-127.5 -54.5z" />
    <glyph glyph-name="Lslash" unicode="&#x141;" horiz-adv-x="989" 
d="M121 39l82 584l-45 -27q-15 -9 -28 -4.5t-19 18.5l-13 31q-5 13 0.5 28.5t18.5 22.5l104 60l90 643q3 16 15 27.5t26 11.5h254q13 0 22 -12t7 -27l-64 -457l136 90q14 8 26.5 3.5t18.5 -17.5l16 -33q6 -12 0 -27t-20 -24l-195 -123l-72 -506h418q15 0 23.5 -12t5.5 -27
l-31 -223q-2 -15 -14 -27t-27 -12h-704q-15 0 -24 12t-7 27z" />
    <glyph glyph-name="lslash" unicode="&#x142;" horiz-adv-x="538" 
d="M53 39l82 588l-43 -31q-12 -8 -25.5 -3.5t-19.5 17.5l-12 31q-5 13 0 27.5t18 23.5l101 64l90 639q1 15 14 27t27 12h233q13 0 23 -12t8 -27l-66 -461l84 61q14 10 27.5 5t19.5 -19l15 -33q5 -12 -1.5 -27t-19.5 -24l-143 -94l-107 -764q-3 -15 -15.5 -27t-25.5 -12h-235
q-14 0 -23 12t-6 27z" />
    <glyph glyph-name="Nacute" unicode="&#x143;" horiz-adv-x="1462" 
d="M96 35l193 1382q1 15 14 26t27 11h45l610 -790h2l98 731q2 15 13 27t26 12h250q14 0 24 -11t9 -24l-193 -1383q-1 -15 -12.5 -25.5t-25.5 -10.5h-52l-610 815h-2l-92 -756q-3 -16 -14.5 -27.5t-26.5 -11.5h-252q-12 0 -22 11t-9 24zM707 1561q-35 -15 -48 18l-36 96
q-4 11 1 22.5t15 16.5l352 213q8 8 25.5 6t25.5 -20l54 -123q7 -24 0.5 -39t-21.5 -22z" />
    <glyph glyph-name="nacute" unicode="&#x144;" horiz-adv-x="1011" 
d="M33 39l102 741q3 17 15 28t26 11h98q8 0 17 -7t12 -17l23 -82q122 127 276 127q157 0 243.5 -126t61.5 -304l-51 -371q-3 -15 -15.5 -27t-25.5 -12h-227q-15 0 -23.5 12t-5.5 27l53 387q9 65 -14.5 105t-81.5 40q-47 0 -87.5 -37.5t-49.5 -97.5l-55 -397
q-3 -20 -19.5 -29.5t-36.5 -9.5h-207q-14 0 -22.5 12t-5.5 27zM455 1049q-34 -15 -47 18l-37 96q-4 11 1 22.5t15 16.5l352 213q8 8 26 6t26 -20l53 -123q7 -24 0.5 -39t-21.5 -22z" />
    <glyph glyph-name="Ncommaaccent" unicode="&#x145;" horiz-adv-x="1462" 
d="M96 35l193 1382q1 15 14 26t27 11h45l610 -790h2l98 731q2 15 13 27t26 12h250q14 0 24 -11t9 -24l-193 -1383q-1 -15 -12.5 -25.5t-25.5 -10.5h-52l-610 815h-2l-92 -756q-3 -16 -14.5 -27.5t-26.5 -11.5h-252q-12 0 -22 11t-9 24zM688 -184q56 0 101 -48t45 -143
q0 -244 -230 -413q-25 -19 -37 -3l-28 39q-18 25 10 43q13 8 33.5 26t49.5 49t53 77t32 94l-38 -10q-25 -4 -48 -4q-52 0 -86.5 36.5t-34.5 90.5q0 68 52 117t126 49z" />
    <glyph glyph-name="ncommaaccent" unicode="&#x146;" horiz-adv-x="1013" 
d="M33 39l102 741q3 17 15 28t26 11h98q8 0 17 -7t12 -17l23 -82q122 127 276 127q157 0 243.5 -126t61.5 -304l-51 -371q-3 -15 -15.5 -27t-25.5 -12h-227q-15 0 -23.5 12t-5.5 27l53 387q9 65 -14.5 105t-81.5 40q-47 0 -87.5 -37.5t-49.5 -97.5l-55 -397
q-3 -20 -19.5 -29.5t-36.5 -9.5h-207q-14 0 -22.5 12t-5.5 27zM418 -184q56 0 100.5 -48t44.5 -143q0 -244 -229 -413q-25 -19 -37 -3l-29 39q-17 24 11 43q13 8 33.5 26t49 49t52.5 77t32 94l-38 -10q-25 -4 -48 -4q-52 0 -86 36.5t-34 90.5q0 68 52 117t126 49z" />
    <glyph glyph-name="Ncaron" unicode="&#x147;" horiz-adv-x="1462" 
d="M96 35l193 1382q1 15 14 26t27 11h45l610 -790h2l98 731q2 15 13 27t26 12h250q14 0 24 -11t9 -24l-193 -1383q-1 -15 -12.5 -25.5t-25.5 -10.5h-52l-610 815h-2l-92 -756q-3 -16 -14.5 -27.5t-26.5 -11.5h-252q-12 0 -22 11t-9 24zM811 1561l-233 213q-20 20 -7 38
l74 95q7 10 20 12.5t19 -2.5l166 -123l217 123q25 15 39 -8l55 -97q12 -21 -16 -38l-285 -213q-29 -20 -49 0z" />
    <glyph glyph-name="ncaron" unicode="&#x148;" horiz-adv-x="1011" 
d="M33 39l102 741q3 17 15 28t26 11h98q8 0 17 -7t12 -17l23 -82q122 127 276 127q157 0 243.5 -126t61.5 -304l-51 -371q-3 -15 -15.5 -27t-25.5 -12h-227q-15 0 -23.5 12t-5.5 27l53 387q9 65 -14.5 105t-81.5 40q-47 0 -87.5 -37.5t-49.5 -97.5l-55 -397
q-3 -20 -19.5 -29.5t-36.5 -9.5h-207q-14 0 -22.5 12t-5.5 27zM559 1049l-233 213q-20 20 -7 38l74 95q7 10 20 12.5t19 -2.5l166 -123l217 123q25 15 39 -8l55 -97q12 -21 -16 -38l-285 -213q-29 -20 -49 0z" />
    <glyph glyph-name="napostrophe" unicode="&#x149;" horiz-adv-x="1011" 
d="M33 39l102 741q3 17 15 28t26 11h98q8 0 17 -7t12 -17l23 -82q122 127 276 127q157 0 243.5 -126t61.5 -304l-51 -371q-3 -15 -15.5 -27t-25.5 -12h-227q-15 0 -23.5 12t-5.5 27l53 387q9 65 -14.5 105t-81.5 40q-47 0 -87.5 -37.5t-49.5 -97.5l-55 -397
q-3 -20 -19.5 -29.5t-36.5 -9.5h-207q-14 0 -22.5 12t-5.5 27zM-20 1454q56 0 100.5 -47.5t44.5 -142.5q0 -245 -229 -414q-24 -19 -37 -2l-29 39q-18 25 10 43q13 8 33.5 26t49.5 49t53 77t32 94l-36 -10q-25 -5 -50 -5q-52 0 -86.5 36.5t-34.5 90.5q0 68 52.5 117
t126.5 49z" />
    <glyph glyph-name="Eng" unicode="&#x14a;" horiz-adv-x="1460" 
d="M96 35l193 1382q1 15 14 26t27 11h45l610 -790h2l98 731q2 15 13 27t26 12h250q14 0 24 -11t9 -24l-225 -1587q-31 -216 -149 -331.5t-308 -115.5q-66 0 -131.5 25.5t-87.5 52.5q-6 7 -6 22t6 25l96 164q7 13 22 16t23 -2q52 -26 96 -26q58 0 86.5 44t40.5 126l60 421
l-416 562h-2l-92 -756q-3 -16 -14.5 -27.5t-26.5 -11.5h-252q-12 0 -22 11t-9 24z" />
    <glyph glyph-name="eng" unicode="&#x14b;" horiz-adv-x="1017" 
d="M35 39l102 739q3 17 15 28t26 11h98q8 0 17 -7t12 -17l23 -82q122 127 276 127q157 0 243.5 -125t61.5 -303l-84 -598q-31 -216 -148.5 -331.5t-307.5 -115.5q-66 0 -131.5 25.5t-87.5 52.5q-6 7 -6 22t6 25l96 164q7 13 22 16t23 -2q52 -26 96 -26q59 0 95.5 46
t47.5 124l84 614q8 65 -15.5 105t-80.5 40q-47 0 -87.5 -37.5t-49.5 -97.5l-55 -397q-5 -39 -50 -39h-213q-14 0 -22.5 12t-5.5 27z" />
    <glyph glyph-name="Omacron" unicode="&#x14c;" horiz-adv-x="1482" 
d="M90 614q0 171 61 326.5t164 268t245.5 179t299.5 66.5q156 0 287.5 -86t208 -233.5t76.5 -321.5q0 -227 -102 -418.5t-279.5 -303t-388.5 -111.5q-155 0 -286.5 84.5t-208.5 230.5t-77 319zM702 307q100 0 191 63t147 171.5t56 232.5q0 147 -79 249.5t-200 102.5
q-98 0 -188.5 -63.5t-146.5 -172.5t-56 -233q0 -145 78.5 -247.5t197.5 -102.5zM649 1640q-15 0 -24 11t-7 26l13 84q3 17 14.5 28t26.5 11h475q15 0 23.5 -11t5.5 -28l-15 -84q-3 -15 -14.5 -26t-26.5 -11h-471z" />
    <glyph glyph-name="omacron" unicode="&#x14d;" horiz-adv-x="880" 
d="M27 358q0 130 54.5 239.5t157.5 176t232 66.5q140 0 239 -112t99 -271q0 -130 -57 -239t-159.5 -173.5t-227.5 -64.5q-139 0 -238.5 109t-99.5 269zM395 246q60 0 106 55.5t46 132.5q0 57 -31 97t-76 40q-59 0 -104 -55.5t-45 -132.5q0 -58 29.5 -97.5t74.5 -39.5z
M272 1153q-15 0 -22.5 10.5t-5.5 26.5l10 84q1 17 13.5 28t27.5 11h473q14 0 23 -11t6 -28l-13 -84q-2 -15 -13 -26t-26 -11h-473z" />
    <glyph glyph-name="Obreve" unicode="&#x14e;" horiz-adv-x="1482" 
d="M90 614q0 171 61 326.5t164 268t245.5 179t299.5 66.5q156 0 287.5 -86t208 -233.5t76.5 -321.5q0 -227 -102 -418.5t-279.5 -303t-388.5 -111.5q-155 0 -286.5 84.5t-208.5 230.5t-77 319zM702 307q100 0 191 63t147 171.5t56 232.5q0 147 -79 249.5t-200 102.5
q-98 0 -188.5 -63.5t-146.5 -172.5t-56 -233q0 -145 78.5 -247.5t197.5 -102.5zM885 1563q-97 0 -164 70.5t-66 174.5q0 19 12 32t29 13h88q9 0 17 -7.5t10 -16.5q6 -42 31 -70t59 -28q31 0 64 29.5t51 68.5q10 24 35 24h102q17 0 26 -13t5 -32q-25 -109 -105.5 -177
t-193.5 -68z" />
    <glyph glyph-name="obreve" unicode="&#x14f;" horiz-adv-x="880" 
d="M27 358q0 130 54.5 239.5t157.5 176t232 66.5q140 0 239 -112t99 -271q0 -130 -57 -239t-159.5 -173.5t-227.5 -64.5q-139 0 -238.5 109t-99.5 269zM395 246q60 0 106 55.5t46 132.5q0 57 -31 97t-76 40q-59 0 -104 -55.5t-45 -132.5q0 -58 29.5 -97.5t74.5 -39.5z
M508 1079q-97 0 -163.5 71t-65.5 175q0 19 11.5 32t28.5 13h89q9 0 16.5 -7.5t9.5 -16.5q6 -42 31 -70.5t59 -28.5q31 0 64 30t51 69q10 24 35 24h102q17 0 26 -13t5 -32q-25 -109 -105.5 -177.5t-193.5 -68.5z" />
    <glyph glyph-name="Ohungarumlaut" unicode="&#x150;" horiz-adv-x="1482" 
d="M90 614q0 171 61 326.5t164 268t245.5 179t299.5 66.5q156 0 287.5 -86t208 -233.5t76.5 -321.5q0 -227 -102 -418.5t-279.5 -303t-388.5 -111.5q-155 0 -286.5 84.5t-208.5 230.5t-77 319zM702 307q100 0 191 63t147 171.5t56 232.5q0 147 -79 249.5t-200 102.5
q-98 0 -188.5 -63.5t-146.5 -172.5t-56 -233q0 -145 78.5 -247.5t197.5 -102.5zM985 1573q-17 0 -27 12t-4 27l88 289q5 16 17.5 27t30.5 11h188q25 0 32.5 -15.5t-5.5 -35.5l-185 -284q-22 -31 -45 -31h-90zM678 1573q-15 0 -25 12t-4 27l86 289q10 38 41 38h197
q26 0 32 -15.5t-8 -35.5l-182 -284q-19 -31 -47 -31h-90z" />
    <glyph glyph-name="ohungarumlaut" unicode="&#x151;" horiz-adv-x="880" 
d="M27 358q0 130 54.5 239.5t157.5 176t232 66.5q140 0 239 -112t99 -271q0 -130 -57 -239t-159.5 -173.5t-227.5 -64.5q-139 0 -238.5 109t-99.5 269zM395 246q60 0 106 55.5t46 132.5q0 57 -31 97t-76 40q-59 0 -104 -55.5t-45 -132.5q0 -58 29.5 -97.5t74.5 -39.5z
M594 1067q-17 0 -27 12t-4 27l88 289q12 39 47 39h189q25 0 32 -16t-6 -36l-184 -284q-22 -31 -47 -31h-88zM287 1067q-15 0 -25 12t-4 27l86 289q10 39 41 39h197q25 0 31.5 -16t-7.5 -36l-182 -284q-19 -31 -45 -31h-92z" />
    <glyph glyph-name="OE" unicode="&#x152;" horiz-adv-x="1845" 
d="M90 614q0 230 99 422t277 305t398 113q41 0 89.5 -5t76.5 -10l29 -5h772q13 0 22 -12t7 -27l-31 -224q-2 -15 -14 -26.5t-27 -11.5h-488l-34 -254h395q13 0 23 -12t8 -27l-31 -224q-3 -17 -15 -27.5t-26 -10.5h-397l-39 -277h487q15 0 23.5 -12t5.5 -27l-31 -223
q-2 -15 -14 -27t-27 -12h-772q-97 -20 -199 -20q-152 0 -282.5 84.5t-207.5 230.5t-77 319zM702 301q96 0 166 33l109 764q-60 32 -158 32q-151 0 -272 -143t-121 -332q0 -146 78.5 -250t197.5 -104z" />
    <glyph glyph-name="oe" unicode="&#x153;" horiz-adv-x="1298" 
d="M27 358q0 129 57.5 239.5t160 176.5t224.5 66q64 0 125.5 -29t105.5 -78q5 4 14 11.5t39.5 26t63 32.5t83 25.5t101.5 11.5q105 0 183 -56t78 -151q0 -134 -126 -209.5t-350 -75.5q-4 -121 103 -121q58 0 119 49q10 8 24 9t21 -9q17 -21 44.5 -59t47.5 -61q9 -11 7 -28
t-11 -28q-133 -120 -297 -120q-130 0 -230 104q-120 -104 -247 -104q-143 0 -241.5 111.5t-98.5 266.5zM819 516q8 0 20 1.5t44 7t56.5 13t44.5 23t20 35.5q0 18 -13 27.5t-33 9.5q-42 0 -84 -35t-55 -82zM395 246q58 0 104 57.5t46 134.5q0 57 -29.5 96t-73.5 39
q-59 0 -104 -54.5t-45 -131.5q0 -60 28.5 -100.5t73.5 -40.5z" />
    <glyph glyph-name="Racute" unicode="&#x154;" horiz-adv-x="1273" 
d="M96 39l191 1356q1 15 13 27t26 12h553q158 0 259 -111.5t101 -273.5q0 -166 -89.5 -293t-246.5 -176l178 -521q8 -21 -4 -40t-35 -19h-264q-24 0 -28 18l-168 543h-90l-74 -522q-2 -15 -14 -27t-25 -12h-254q-15 0 -23.5 12t-5.5 27zM526 821h226q70 0 118 57t48 132
q0 57 -29 94t-82 37h-236zM614 1561q-34 -15 -47 18l-37 96q-4 11 1.5 22.5t15.5 16.5l352 213q8 8 25.5 6t25.5 -20l54 -123q7 -24 0.5 -39t-21.5 -22z" />
    <glyph glyph-name="racute" unicode="&#x155;" horiz-adv-x="671" 
d="M33 39l104 741q1 17 13 28t26 11h98q24 0 31 -24l25 -90q4 5 10.5 14.5t28 32.5t45 41t59.5 32.5t72 14.5q48 0 85.5 -12t53.5 -27q22 -19 4 -47l-125 -174q-18 -27 -41 -15q-16 8 -37 8q-34 0 -63.5 -30t-36.5 -80l-59 -424q-3 -21 -12.5 -30t-32.5 -9h-220
q-14 0 -22.5 12t-5.5 27zM276 1049q-34 -15 -47 18l-36 96q-4 11 1 22.5t15 16.5l352 213q8 8 25.5 6t25.5 -20l54 -123q7 -24 0.5 -39t-21.5 -22z" />
    <glyph glyph-name="Rcommaaccent" unicode="&#x156;" horiz-adv-x="1273" 
d="M96 39l191 1356q1 15 13 27t26 12h553q158 0 259 -111.5t101 -273.5q0 -166 -89.5 -293t-246.5 -176l178 -521q8 -21 -4 -40t-35 -19h-264q-24 0 -28 18l-168 543h-90l-74 -522q-2 -15 -14 -27t-25 -12h-254q-15 0 -23.5 12t-5.5 27zM526 821h226q70 0 118 57t48 132
q0 57 -29 94t-82 37h-236zM590 -184q56 0 100.5 -48t44.5 -143q0 -244 -229 -413q-25 -19 -37 -3l-29 39q-17 24 11 43q13 8 33.5 26t49 49t52.5 77t32 94l-38 -10q-25 -4 -48 -4q-52 0 -86 36.5t-34 90.5q0 68 52 117t126 49z" />
    <glyph glyph-name="rcommaaccent" unicode="&#x157;" horiz-adv-x="671" 
d="M33 39l104 741q1 17 13 28t26 11h98q24 0 31 -24l25 -90q4 5 10.5 14.5t28 32.5t45 41t59.5 32.5t72 14.5q48 0 85.5 -12t53.5 -27q22 -19 4 -47l-125 -174q-18 -27 -41 -15q-16 8 -37 8q-34 0 -63.5 -30t-36.5 -80l-59 -424q-3 -21 -12.5 -30t-32.5 -9h-220
q-14 0 -22.5 12t-5.5 27zM145 -184q56 0 101 -48t45 -143q0 -244 -230 -413q-24 -19 -36 -3l-29 39q-18 25 10 43q13 8 33.5 26t49.5 49t53 77t32 94l-38 -10q-25 -4 -48 -4q-52 0 -86.5 36.5t-34.5 90.5q0 68 52 117t126 49z" />
    <glyph glyph-name="Rcaron" unicode="&#x158;" horiz-adv-x="1273" 
d="M96 39l191 1356q1 15 13 27t26 12h553q158 0 259 -111.5t101 -273.5q0 -166 -89.5 -293t-246.5 -176l178 -521q8 -21 -4 -40t-35 -19h-264q-24 0 -28 18l-168 543h-90l-74 -522q-2 -15 -14 -27t-25 -12h-254q-15 0 -23.5 12t-5.5 27zM526 821h226q70 0 118 57t48 132
q0 57 -29 94t-82 37h-236zM717 1561l-234 213q-19 19 -6 38l74 95q7 10 20 12.5t19 -2.5l166 -123l217 123q25 15 39 -8l55 -97q12 -21 -16 -38l-285 -213q-29 -20 -49 0z" />
    <glyph glyph-name="rcaron" unicode="&#x159;" horiz-adv-x="671" 
d="M33 39l104 741q1 17 13 28t26 11h98q24 0 31 -24l25 -90q4 5 10.5 14.5t28 32.5t45 41t59.5 32.5t72 14.5q48 0 85.5 -12t53.5 -27q22 -19 4 -47l-125 -174q-18 -27 -41 -15q-16 8 -37 8q-34 0 -63.5 -30t-36.5 -80l-59 -424q-3 -21 -12.5 -30t-32.5 -9h-220
q-14 0 -22.5 12t-5.5 27zM385 1049l-233 213q-20 20 -7 38l74 95q7 10 20 12.5t19 -2.5l166 -123l217 123q25 15 39 -8l55 -97q12 -21 -16 -38l-285 -213q-29 -20 -49 0z" />
    <glyph glyph-name="Sacute" unicode="&#x15a;" horiz-adv-x="1054" 
d="M47 137q-21 26 0 58l111 165q12 18 34 20t31 -7q122 -90 238 -90q57 0 95 37t36 88q-1 54 -34 98t-101 88q-48 32 -82 57.5t-80 68.5t-74 84.5t-48.5 99t-20.5 118.5q0 85 30 161t87.5 137.5t152.5 97.5t215 36q207 0 389 -149q15 -12 19.5 -34t-7.5 -36l-129 -158
q-12 -14 -33.5 -17t-31.5 7q-14 12 -41.5 30t-83.5 40t-105 22q-54 0 -92.5 -29.5t-38.5 -74.5q0 -52 35.5 -89.5t132.5 -95.5q40 -24 71.5 -45.5t78 -63.5t77 -85t53.5 -106.5t23 -131.5q0 -91 -32 -171.5t-93 -145.5t-161 -103t-226 -38q-76 0 -146.5 17t-119 43.5
t-80.5 51t-49 45.5zM530 1561q-34 -15 -47 18l-37 96q-4 11 1.5 22.5t15.5 16.5l352 213q8 8 25.5 6t25.5 -20l54 -123q7 -24 0.5 -39t-21.5 -22z" />
    <glyph glyph-name="sacute" unicode="&#x15b;" horiz-adv-x="710" 
d="M6 49q-22 22 -8 43l84 150q7 10 19 14t26 -2q66 -39 137 -39q26 0 38.5 11t12.5 26q0 19 -17.5 35.5t-64.5 44.5q-88 52 -132 107.5t-44 127.5q0 115 87 194t239 79q79 0 149 -23t105 -45q23 -16 4 -47l-80 -143q-6 -9 -17 -13t-22 0q-82 37 -145 37q-45 0 -45 -28
q0 -17 14.5 -30.5t48.5 -33.5q55 -31 88 -54t66 -54.5t48 -67t15 -78.5q0 -129 -91.5 -204.5t-266.5 -75.5q-82 0 -151 22t-97 47zM283 1049q-34 -15 -47 18l-37 96q-4 11 1 22.5t15 16.5l352 213q8 8 25.5 6t25.5 -20l54 -123q7 -24 0.5 -39t-21.5 -22z" />
    <glyph glyph-name="Scircumflex" unicode="&#x15c;" horiz-adv-x="1054" 
d="M47 137q-21 26 0 58l111 165q12 18 34 20t31 -7q122 -90 238 -90q57 0 95 37t36 88q-1 54 -34 98t-101 88q-48 32 -82 57.5t-80 68.5t-74 84.5t-48.5 99t-20.5 118.5q0 85 30 161t87.5 137.5t152.5 97.5t215 36q207 0 389 -149q15 -12 19.5 -34t-7.5 -36l-129 -158
q-12 -14 -33.5 -17t-31.5 7q-14 12 -41.5 30t-83.5 40t-105 22q-54 0 -92.5 -29.5t-38.5 -74.5q0 -52 35.5 -89.5t132.5 -95.5q40 -24 71.5 -45.5t78 -63.5t77 -85t53.5 -106.5t23 -131.5q0 -91 -32 -171.5t-93 -145.5t-161 -103t-226 -38q-76 0 -146.5 17t-119 43.5
t-80.5 51t-49 45.5zM461 1561q-25 -15 -39 8l-55 96q-12 21 16 39l285 213q29 20 49 0l233 -213q20 -20 6 -39l-73 -94q-7 -10 -20 -12.5t-19 2.5l-166 122z" />
    <glyph glyph-name="scircumflex" unicode="&#x15d;" horiz-adv-x="710" 
d="M6 49q-22 22 -8 43l84 150q7 10 19 14t26 -2q66 -39 137 -39q26 0 38.5 11t12.5 26q0 19 -17.5 35.5t-64.5 44.5q-88 52 -132 107.5t-44 127.5q0 115 87 194t239 79q79 0 149 -23t105 -45q23 -16 4 -47l-80 -143q-6 -9 -17 -13t-22 0q-82 37 -145 37q-45 0 -45 -28
q0 -17 14.5 -30.5t48.5 -33.5q55 -31 88 -54t66 -54.5t48 -67t15 -78.5q0 -129 -91.5 -204.5t-266.5 -75.5q-82 0 -151 22t-97 47zM211 1049q-25 -15 -39 8l-55 96q-12 21 16 39l285 213q29 20 49 0l233 -213q20 -20 7 -39l-74 -94q-7 -10 -20 -12.5t-19 2.5l-166 122z" />
    <glyph glyph-name="Scedilla" unicode="&#x15e;" horiz-adv-x="1058" 
d="M49 137q-21 26 0 58l111 165q12 18 34 20t31 -7q121 -90 238 -90q57 0 95 37t36 88q-1 54 -34 98t-101 88q-48 32 -82 57.5t-80 68.5t-74 84.5t-48.5 99t-20.5 118.5q0 85 30 161t87.5 137.5t152.5 97.5t215 36q207 0 389 -149q15 -12 19.5 -34t-7.5 -36l-129 -158
q-12 -14 -33.5 -17t-31.5 7q-14 12 -41.5 30t-83.5 40t-105 22q-54 0 -92.5 -29.5t-38.5 -74.5q0 -52 35.5 -89.5t132.5 -95.5q40 -24 71.5 -45.5t78 -63.5t77 -85t53.5 -106.5t23 -131.5q0 -89 -31 -169t-90.5 -144.5t-157 -103.5t-220.5 -41l-13 -86q69 -17 103.5 -64
t34.5 -115q0 -108 -61.5 -177.5t-162.5 -69.5q-42 0 -79 21t-56 50q-16 25 8 49l45 50q10 10 21.5 8.5t21.5 -11.5q18 -18 41 -18q25 0 44.5 21.5t19.5 56.5q0 28 -22.5 47.5t-86.5 26.5q-34 3 -26 36l26 189q-96 19 -165.5 62t-100.5 81z" />
    <glyph glyph-name="scedilla" unicode="&#x15f;" horiz-adv-x="714" 
d="M8 49q-22 22 -8 43l84 150q7 10 19 14t26 -2q66 -39 137 -39q26 0 38.5 11t12.5 26q0 20 -17.5 36.5t-63.5 43.5q-88 53 -132.5 108t-44.5 127q0 115 87 194t239 79q79 0 149 -23t105 -45q23 -16 4 -47l-80 -143q-6 -9 -17 -13t-22 0q-82 37 -145 37q-45 0 -45 -28
q0 -17 14.5 -30.5t48.5 -33.5q55 -31 88 -54t66 -54.5t48 -67t15 -78.5q0 -119 -77 -192.5t-226 -85.5l-12 -88q69 -17 103 -64t34 -115q0 -108 -61 -177.5t-162 -69.5q-42 0 -79 21t-56 50q-16 25 8 49l45 50q10 10 21.5 8.5t21.5 -11.5q18 -18 41 -18q25 0 44.5 21.5
t19.5 56.5q0 28 -22.5 47.5t-86.5 26.5q-35 3 -27 36l27 183q-111 17 -162 61z" />
    <glyph glyph-name="Scaron" unicode="&#x160;" horiz-adv-x="1054" 
d="M47 137q-21 26 0 58l111 165q12 18 34 20t31 -7q122 -90 238 -90q57 0 95 37t36 88q-1 54 -34 98t-101 88q-48 32 -82 57.5t-80 68.5t-74 84.5t-48.5 99t-20.5 118.5q0 85 30 161t87.5 137.5t152.5 97.5t215 36q207 0 389 -149q15 -12 19.5 -34t-7.5 -36l-129 -158
q-12 -14 -33.5 -17t-31.5 7q-14 12 -41.5 30t-83.5 40t-105 22q-54 0 -92.5 -29.5t-38.5 -74.5q0 -52 35.5 -89.5t132.5 -95.5q40 -24 71.5 -45.5t78 -63.5t77 -85t53.5 -106.5t23 -131.5q0 -91 -32 -171.5t-93 -145.5t-161 -103t-226 -38q-76 0 -146.5 17t-119 43.5
t-80.5 51t-49 45.5zM631 1561l-234 213q-19 19 -6 38l74 95q7 10 20 12.5t19 -2.5l166 -123l217 123q25 15 39 -8l55 -97q12 -21 -16 -38l-285 -213q-29 -20 -49 0z" />
    <glyph glyph-name="scaron" unicode="&#x161;" horiz-adv-x="710" 
d="M6 49q-22 22 -8 43l84 150q7 10 19 14t26 -2q66 -39 137 -39q26 0 38.5 11t12.5 26q0 19 -17.5 35.5t-64.5 44.5q-88 52 -132 107.5t-44 127.5q0 115 87 194t239 79q79 0 149 -23t105 -45q23 -16 4 -47l-80 -143q-6 -9 -17 -13t-22 0q-82 37 -145 37q-45 0 -45 -28
q0 -17 14.5 -30.5t48.5 -33.5q55 -31 88 -54t66 -54.5t48 -67t15 -78.5q0 -129 -91.5 -204.5t-266.5 -75.5q-82 0 -151 22t-97 47zM391 1049l-233 213q-19 19 -6 38l73 95q7 10 20 12.5t19 -2.5l166 -123l217 123q25 15 39 -8l55 -97q12 -21 -16 -38l-285 -213
q-29 -20 -49 0z" />
    <glyph glyph-name="Tcommaaccent" unicode="&#x162;" horiz-adv-x="954" 
d="M238 39l153 1094h-250q-15 0 -23.5 11.5t-6.5 26.5l32 224q1 15 13 27t26 12h828q15 0 23.5 -11.5t6.5 -27.5l-32 -224q-2 -15 -13 -26.5t-26 -11.5h-252l-154 -1094q-1 -15 -14 -27t-27 -12h-254q-13 0 -22.5 12t-7.5 27zM369 -184q56 0 100.5 -48t44.5 -143
q0 -244 -229 -413q-25 -19 -37 -3l-29 39q-18 25 10 43q13 8 33.5 26t49.5 49t53 77t32 94l-38 -10q-25 -4 -48 -4q-52 0 -86.5 36.5t-34.5 90.5q0 68 52.5 117t126.5 49z" />
    <glyph glyph-name="tcommaaccent" unicode="&#x163;" horiz-adv-x="684" 
d="M113 264l41 295h-70q-13 0 -21 12t-6 27l25 182q1 17 13 28t26 11h69l31 228q1 15 14 26.5t27 11.5h230q13 0 20.5 -11t5.5 -27l-31 -228h119q15 0 23 -11t6 -28l-25 -182q-2 -15 -14 -27t-27 -12h-118l-35 -254q-7 -49 43 -49q19 0 55 8q13 3 24.5 -3.5t12.5 -22.5
l16 -152q5 -37 -30 -59q-21 -13 -92 -30t-140 -17q-102 0 -157 74.5t-35 209.5zM297 -184q56 0 100.5 -48t44.5 -143q0 -244 -229 -413q-25 -19 -37 -3l-29 39q-17 24 11 43q13 8 33.5 26t49.5 49t53 77t32 94l-38 -10q-25 -4 -48 -4q-52 0 -86.5 36.5t-34.5 90.5
q0 68 52 117t126 49z" />
    <glyph glyph-name="Tcaron" unicode="&#x164;" horiz-adv-x="952" 
d="M238 39l153 1094h-250q-15 0 -23.5 11.5t-6.5 26.5l32 224q1 15 13 27t26 12h828q15 0 23.5 -11.5t6.5 -27.5l-32 -224q-2 -15 -13 -26.5t-26 -11.5h-252l-154 -1094q-1 -15 -14 -27t-27 -12h-254q-13 0 -22.5 12t-7.5 27zM580 1561l-234 213q-19 19 -6 38l74 95
q7 10 20 12.5t19 -2.5l165 -123l218 123q15 8 22.5 6.5t15.5 -14.5l56 -97q12 -20 -17 -38l-284 -213q-29 -20 -49 0z" />
    <glyph glyph-name="tcaron" unicode="&#x165;" horiz-adv-x="681" 
d="M113 264l41 295h-70q-13 0 -21 12t-6 27l25 182q1 17 13 28t26 11h69l31 228q1 15 14 26.5t27 11.5h230q13 0 20.5 -11t5.5 -27l-31 -228h119q15 0 23 -11t6 -28l-25 -182q-2 -15 -14 -27t-27 -12h-118l-35 -254q-7 -49 43 -49q19 0 55 8q13 3 24.5 -3.5t12.5 -22.5
l16 -152q5 -37 -30 -59q-21 -13 -92 -30t-140 -17q-102 0 -157 74.5t-35 209.5zM784 848l-28 39q-18 25 10 43q13 8 33.5 26t49.5 49t53 77t32 94l-36 -10q-25 -5 -50 -5q-52 0 -86.5 36.5t-34.5 90.5q0 68 52 117t126 49q56 0 101 -47.5t45 -142.5q0 -245 -230 -414
q-24 -19 -37 -2z" />
    <glyph glyph-name="Tbar" unicode="&#x166;" horiz-adv-x="952" 
d="M238 39l77 553h-133q-14 0 -22.5 12t-5.5 27l6 35q3 16 13.5 27.5t23.5 11.5h133l61 428h-250q-15 0 -23.5 11.5t-6.5 26.5l32 224q1 15 13 27t26 12h828q15 0 23.5 -11.5t6.5 -27.5l-32 -224q-2 -15 -13 -26.5t-26 -11.5h-252l-62 -428h146q15 0 24 -12t6 -27l-6 -37
q-3 -15 -14.5 -26t-26.5 -11h-143l-78 -553q-1 -15 -14 -27t-27 -12h-254q-13 0 -22.5 12t-7.5 27z" />
    <glyph glyph-name="tbar" unicode="&#x167;" horiz-adv-x="681" 
d="M113 264l10 80h-62q-14 0 -22.5 12t-5.5 27l6 35q3 15 14.5 27t24.5 12h61l15 102h-70q-13 0 -21 12t-6 27l25 182q1 17 13 28t26 11h69l31 228q1 15 14 26.5t27 11.5h230q13 0 20.5 -11t5.5 -27l-31 -228h119q15 0 23 -11t6 -28l-25 -182q-2 -15 -14 -27t-27 -12h-118
l-15 -102h127q15 0 24.5 -12t6.5 -27l-6 -37q-3 -15 -14.5 -26t-26.5 -11h-127l-4 -39q-7 -49 43 -49q19 0 55 8q13 3 24.5 -3.5t12.5 -22.5l16 -152q5 -37 -30 -59q-21 -13 -92 -30t-140 -17q-102 0 -157 74.5t-35 209.5z" />
    <glyph glyph-name="Utilde" unicode="&#x168;" horiz-adv-x="1372" 
d="M150 532l118 863q2 15 14 27t25 12h260q13 0 23 -12t8 -27l-117 -846q-15 -106 32 -174t132 -68q92 0 160.5 67.5t83.5 174.5l117 846q2 16 12.5 27.5t25.5 11.5h259q13 0 22.5 -12t7.5 -27l-119 -863q-36 -253 -197.5 -402.5t-412.5 -149.5q-102 0 -193 43t-154 116
t-93 176t-14 217zM616 1608l-65 57q-17 17 -4 47q9 20 25.5 44.5t44 55.5t67 51.5t80.5 20.5q35 0 68.5 -24t64.5 -48t61 -24q21 0 41 18t31 39q18 35 51 10l64 -53q9 -12 7 -22.5t-13 -36.5q-7 -17 -21.5 -39.5t-39.5 -52t-63 -49t-79 -19.5q-32 0 -62.5 15.5t-49.5 33.5
t-42.5 33.5t-44.5 15.5q-39 0 -71 -61q-8 -16 -22 -19.5t-28 7.5z" />
    <glyph glyph-name="utilde" unicode="&#x169;" horiz-adv-x="985" 
d="M334 -20q-156 0 -224 113t-40 317l53 370q1 17 13 28t26 11h227q14 0 23 -11t8 -28l-55 -385q-21 -149 69 -149q49 0 82 39t41 98l57 397q3 22 14 30.5t40 8.5h206q14 0 23 -11t8 -28l-104 -741q-1 -15 -14 -27t-27 -12h-98q-21 0 -29 25l-23 79q-40 -48 -111 -86
t-165 -38zM344 1137l-65 57q-18 18 -5 47q9 19 26 44t44.5 56t67 51.5t80.5 20.5q35 0 68.5 -24t64.5 -48t61 -24q21 0 41 18t31 39q18 35 51 10l63 -53q9 -12 7 -22.5t-13 -36.5q-7 -18 -21.5 -40t-39.5 -51.5t-62.5 -49t-78.5 -19.5q-32 0 -62.5 15.5t-49.5 33.5
t-42.5 33.5t-44.5 15.5q-40 0 -72 -61q-8 -16 -21.5 -19.5t-27.5 7.5z" />
    <glyph glyph-name="Umacron" unicode="&#x16a;" horiz-adv-x="1372" 
d="M150 532l118 863q2 15 14 27t25 12h260q13 0 23 -12t8 -27l-117 -846q-15 -106 32 -174t132 -68q92 0 160.5 67.5t83.5 174.5l117 846q2 16 12.5 27.5t25.5 11.5h259q13 0 22.5 -12t7.5 -27l-119 -863q-36 -253 -197.5 -402.5t-412.5 -149.5q-102 0 -193 43t-154 116
t-93 176t-14 217zM596 1640q-15 0 -24 11t-7 26l13 84q3 17 14 28t26 11h476q15 0 23 -11t5 -28l-14 -84q-3 -15 -14.5 -26t-26.5 -11h-471z" />
    <glyph glyph-name="umacron" unicode="&#x16b;" horiz-adv-x="985" 
d="M334 -20q-156 0 -224 113t-40 317l53 370q1 17 13 28t26 11h227q14 0 23 -11t8 -28l-55 -385q-21 -149 69 -149q49 0 82 39t41 98l57 397q3 22 14 30.5t40 8.5h206q14 0 23 -11t8 -28l-104 -741q-1 -15 -14 -27t-27 -12h-98q-21 0 -29 25l-23 79q-40 -48 -111 -86
t-165 -38zM324 1153q-15 0 -23 11t-6 26l10 84q1 17 13.5 28t27.5 11h473q14 0 23 -11t6 -28l-12 -84q-2 -15 -13 -26t-26 -11h-473z" />
    <glyph glyph-name="Ubreve" unicode="&#x16c;" horiz-adv-x="1372" 
d="M150 532l118 863q2 15 14 27t25 12h260q13 0 23 -12t8 -27l-117 -846q-15 -106 32 -174t132 -68q92 0 160.5 67.5t83.5 174.5l117 846q2 16 12.5 27.5t25.5 11.5h259q13 0 22.5 -12t7.5 -27l-119 -863q-36 -253 -197.5 -402.5t-412.5 -149.5q-102 0 -193 43t-154 116
t-93 176t-14 217zM838 1563q-97 0 -164 70.5t-66 174.5q0 19 12 32t29 13h88q9 0 17 -7.5t10 -16.5q6 -42 31 -70t59 -28q31 0 64 29.5t51 68.5q10 24 35 24h102q17 0 26 -13t5 -32q-25 -109 -105.5 -177t-193.5 -68z" />
    <glyph glyph-name="ubreve" unicode="&#x16d;" horiz-adv-x="985" 
d="M334 -20q-156 0 -224 113t-40 317l53 370q1 17 13 28t26 11h227q14 0 23 -11t8 -28l-55 -385q-21 -149 69 -149q49 0 82 39t41 98l57 397q3 22 14 30.5t40 8.5h206q14 0 23 -11t8 -28l-104 -741q-1 -15 -14 -27t-27 -12h-98q-21 0 -29 25l-23 79q-40 -48 -111 -86
t-165 -38zM553 1079q-97 0 -163.5 71t-65.5 175q0 19 12 32t29 13h88q9 0 16.5 -7.5t9.5 -16.5q6 -42 31 -70.5t59 -28.5q31 0 64 30t51 69q10 24 35 24h102q17 0 26 -13t5 -32q-25 -109 -105.5 -177.5t-193.5 -68.5z" />
    <glyph glyph-name="Uring" unicode="&#x16e;" horiz-adv-x="1372" 
d="M150 532l118 863q2 15 14 27t25 12h260q13 0 23 -12t8 -27l-117 -846q-15 -106 32 -174t132 -68q92 0 160.5 67.5t83.5 174.5l117 846q2 16 12.5 27.5t25.5 11.5h259q13 0 22.5 -12t7.5 -27l-119 -863q-36 -253 -197.5 -402.5t-412.5 -149.5q-102 0 -193 43t-154 116
t-93 176t-14 217zM827 1540q-76 0 -132 60t-56 145q0 110 71.5 188t174.5 78q77 0 132.5 -60.5t55.5 -144.5q0 -111 -71 -188.5t-175 -77.5zM844 1686q33 0 59.5 31.5t26.5 70.5q0 31 -18 53.5t-44 22.5q-31 0 -58.5 -31t-27.5 -70q0 -31 18 -54t44 -23z" />
    <glyph glyph-name="uring" unicode="&#x16f;" horiz-adv-x="985" 
d="M334 -20q-156 0 -224 113t-40 317l53 370q1 17 13 28t26 11h227q14 0 23 -11t8 -28l-55 -385q-21 -149 69 -149q49 0 82 39t41 98l57 397q3 22 14 30.5t40 8.5h206q14 0 23 -11t8 -28l-104 -741q-1 -15 -14 -27t-27 -12h-98q-21 0 -29 25l-23 79q-40 -48 -111 -86
t-165 -38zM543 983q-76 0 -132.5 60t-56.5 145q0 110 71.5 188t174.5 78q77 0 132.5 -60.5t55.5 -144.5q0 -111 -70.5 -188.5t-174.5 -77.5zM559 1128q32 0 59 32t27 71q0 31 -17.5 53.5t-43.5 22.5q-31 0 -58.5 -31t-27.5 -70q0 -31 17.5 -54.5t43.5 -23.5z" />
    <glyph glyph-name="Uhungarumlaut" unicode="&#x170;" horiz-adv-x="1372" 
d="M150 532l118 863q2 15 14 27t25 12h260q13 0 23 -12t8 -27l-117 -846q-15 -106 32 -174t132 -68q92 0 160.5 67.5t83.5 174.5l117 846q2 16 12.5 27.5t25.5 11.5h259q13 0 22.5 -12t7.5 -27l-119 -863q-36 -253 -197.5 -402.5t-412.5 -149.5q-102 0 -193 43t-154 116
t-93 176t-14 217zM922 1573q-17 0 -27 12t-4 27l88 289q11 38 47 38h188q25 0 32.5 -15.5t-5.5 -35.5l-184 -284q-22 -31 -45 -31h-90zM614 1573q-15 0 -24.5 12t-3.5 27l86 289q10 38 41 38h196q26 0 32.5 -15.5t-7.5 -35.5l-182 -284q-19 -31 -47 -31h-91z" />
    <glyph glyph-name="uhungarumlaut" unicode="&#x171;" horiz-adv-x="985" 
d="M334 -20q-156 0 -224 113t-40 317l53 370q1 17 13 28t26 11h227q14 0 23 -11t8 -28l-55 -385q-21 -149 69 -149q49 0 82 39t41 98l57 397q3 22 14 30.5t40 8.5h206q14 0 23 -11t8 -28l-104 -741q-1 -15 -14 -27t-27 -12h-98q-21 0 -29 25l-23 79q-40 -48 -111 -86
t-165 -38zM643 1067q-17 0 -27 12t-4 27l88 289q12 39 48 39h188q25 0 32.5 -16t-5.5 -36l-185 -284q-22 -31 -47 -31h-88zM336 1067q-15 0 -25 12t-4 27l86 289q10 39 41 39h197q25 0 31.5 -16t-7.5 -36l-182 -284q-19 -31 -45 -31h-92z" />
    <glyph glyph-name="Uogonek" unicode="&#x172;" horiz-adv-x="1380" 
d="M399 -283q0 146 125 271q-118 21 -210 95.5t-137 193t-25 255.5l118 863q2 15 14 27t25 12h260q13 0 23 -12t8 -27l-117 -846q-15 -106 32 -174t132 -68q92 0 160.5 67.5t83.5 174.5l117 846q2 15 13 27t26 12h258q13 0 22.5 -12t7.5 -27l-118 -863q-34 -237 -179.5 -384
t-373.5 -164q-93 -102 -93 -203q0 -49 28.5 -81t88.5 -32q12 0 70 13q21 4 31.5 -7.5t7.5 -31.5l-11 -68q-1 -13 -11.5 -24.5t-22.5 -14.5q-43 -16 -115 -16q-98 0 -168 52t-70 146z" />
    <glyph glyph-name="uogonek" unicode="&#x173;" horiz-adv-x="985" 
d="M334 -20q-156 0 -224 113t-40 317l53 370q1 17 13 28t26 11h227q14 0 23 -11t8 -28l-55 -385q-21 -149 69 -149q49 0 82 39t41 98l57 397q3 22 14 30.5t40 8.5h206q14 0 23 -11t8 -28l-104 -741q-1 -15 -14 -27t-27 -12h-15q-110 -105 -110 -219q0 -49 28.5 -81t88.5 -32
q10 0 69 13q21 4 31.5 -7.5t7.5 -31.5l-10 -68q-1 -13 -12 -24.5t-23 -14.5q-43 -16 -115 -16q-98 0 -167.5 52t-69.5 146q0 47 14.5 94t35 80t46 63t43 45.5t31.5 25.5l-23 79q-40 -48 -111 -86t-165 -38z" />
    <glyph glyph-name="Wcircumflex" unicode="&#x174;" horiz-adv-x="1673" 
d="M319 8l-153 1376q-3 21 8.5 35.5t30.5 14.5h248q10 0 19 -9t9 -20l39 -694h8l381 721q11 22 35 22h33q10 0 18.5 -6.5t10.5 -15.5l178 -721h6l237 694q5 11 16 20t21 9h246q20 0 28 -14t-1 -36l-541 -1376q-4 -12 -15 -20t-22 -8h-31q-21 0 -28 22l-221 838h-9l-456 -838
q-15 -22 -35 -22h-29q-12 0 -20.5 8t-10.5 20zM780 1561q-25 -15 -39 8l-55 96q-12 21 16 39l285 213q29 20 49 0l234 -213q20 -20 6 -39l-74 -94q-7 -10 -20 -12.5t-19 2.5l-166 122z" />
    <glyph glyph-name="wcircumflex" unicode="&#x175;" horiz-adv-x="1167" 
d="M193 4l-146 764q-4 20 8 35.5t31 15.5h184q11 0 20.5 -7t10.5 -17l59 -273h2l211 281q12 16 31 16h21q16 0 24 -16l131 -281h2l127 273q6 11 9 14.5t11 6.5t23 3h195q20 0 29 -15.5t0 -35.5l-365 -764q-10 -24 -35 -24h-8q-19 0 -27 16l-186 393l-293 -393
q-10 -16 -33 -16h-8q-25 0 -28 24zM451 1049q-25 -15 -39 8l-56 96q-12 21 17 39l284 213q30 20 50 0l233 -213q20 -20 6 -39l-74 -94q-7 -10 -19.5 -12.5t-18.5 2.5l-166 122z" />
    <glyph glyph-name="Ycircumflex" unicode="&#x176;" horiz-adv-x="1105" 
d="M311 39l92 651l-303 684q-8 21 4 40.5t33 19.5h258q21 0 29 -19l170 -420l289 420q14 19 32 19h289q23 0 30 -20t-7 -40l-502 -682l-90 -653q-1 -15 -14 -27t-27 -12h-254q-14 0 -22.5 11.5t-6.5 27.5zM479 1561q-25 -15 -39 8l-55 96q-12 21 16 39l285 213q29 20 49 0
l234 -213q20 -20 6 -39l-74 -94q-7 -10 -20 -12.5t-19 2.5l-166 122z" />
    <glyph glyph-name="ycircumflex" unicode="&#x177;" horiz-adv-x="868" 
d="M213 92l-172 682q-5 20 5 32.5t32 12.5h209q9 0 17 -6.5t9 -15.5l90 -375h3l182 375q11 22 35 22h237q20 0 27 -16.5t-4 -36.5l-754 -1356q-12 -24 -35 -24h-239q-20 0 -26.5 14.5t5.5 36.5zM293 1049q-25 -15 -39 8l-55 96q-12 21 16 39l285 213q29 20 49 0l233 -213
q20 -20 6 -39l-73 -94q-7 -10 -20 -12.5t-19 2.5l-166 122z" />
    <glyph glyph-name="Ydieresis" unicode="&#x178;" horiz-adv-x="1105" 
d="M311 39l92 651l-303 684q-8 21 4 40.5t33 19.5h258q21 0 29 -19l170 -420l289 420q14 19 32 19h289q23 0 30 -20t-7 -40l-502 -682l-90 -653q-1 -15 -14 -27t-27 -12h-254q-14 0 -22.5 11.5t-6.5 27.5zM922 1573q-54 0 -86 42.5t-23 102.5q7 60 50.5 102t97.5 42
t86.5 -42t25.5 -102q-9 -60 -53 -102.5t-98 -42.5zM432 1573q-54 0 -85.5 42.5t-22.5 102.5q8 60 50.5 102t96.5 42t87 -42t26 -102q-9 -60 -53.5 -102.5t-98.5 -42.5z" />
    <glyph glyph-name="Zacute" unicode="&#x179;" horiz-adv-x="1040" 
d="M14 0q-13 0 -21.5 12t-6.5 27l4 37l600 1057h-363q-13 0 -22.5 11.5t-7.5 26.5l32 224q1 15 14 27t27 12h791q14 0 24 -12t7 -27l-5 -27l-579 -1067h358q14 0 22.5 -11.5t6.5 -27.5l-31 -223q-3 -16 -14.5 -27.5t-26.5 -11.5h-809zM530 1561q-34 -15 -47 18l-37 96
q-4 11 1.5 22.5t15.5 16.5l352 213q8 8 25.5 6t25.5 -20l54 -123q7 -24 0.5 -39t-21.5 -22z" />
    <glyph glyph-name="zacute" unicode="&#x17a;" horiz-adv-x="710" 
d="M23 0q-14 0 -24 12t-7 27l4 20l256 492v4h-135q-13 0 -22 12t-7 27l27 186q3 17 14 28t25 11h508q21 0 28 -16.5t-4 -38.5l-278 -498v-4h139q31 0 28 -39l-24 -184q-2 -15 -14 -27t-27 -12h-487zM297 1049q-34 -15 -47 18l-37 96q-4 11 1 22.5t15 16.5l353 213
q8 8 25.5 6t25.5 -20l53 -123q7 -24 1 -39t-21 -22z" />
    <glyph glyph-name="Zdotaccent" unicode="&#x17b;" horiz-adv-x="1040" 
d="M14 0q-13 0 -21.5 12t-6.5 27l4 37l600 1057h-363q-13 0 -22.5 11.5t-7.5 26.5l32 224q1 15 14 27t27 12h791q14 0 24 -12t7 -27l-5 -27l-579 -1067h358q14 0 22.5 -11.5t6.5 -27.5l-31 -223q-3 -16 -14.5 -27.5t-26.5 -11.5h-809zM664 1585q-58 0 -96 41t-38 100
q0 75 54 130t125 55q59 0 98 -42t39 -102q0 -74 -55 -128t-127 -54z" />
    <glyph glyph-name="zdotaccent" unicode="&#x17c;" horiz-adv-x="710" 
d="M23 0q-14 0 -24 12t-7 27l4 20l256 492v4h-135q-13 0 -22 12t-7 27l27 186q3 17 14 28t25 11h508q21 0 28 -16.5t-4 -38.5l-278 -498v-4h139q31 0 28 -39l-24 -184q-2 -15 -14 -27t-27 -12h-487zM422 1067q-58 0 -95.5 41t-37.5 100q0 74 54.5 129.5t125.5 55.5
q58 0 96.5 -42.5t38.5 -101.5q0 -74 -55 -128t-127 -54z" />
    <glyph glyph-name="Zcaron" unicode="&#x17d;" horiz-adv-x="1040" 
d="M14 0q-13 0 -21.5 12t-6.5 27l4 37l600 1057h-363q-13 0 -22.5 11.5t-7.5 26.5l32 224q1 15 14 27t27 12h791q14 0 24 -12t7 -27l-5 -27l-579 -1067h358q14 0 22.5 -11.5t6.5 -27.5l-31 -223q-3 -16 -14.5 -27.5t-26.5 -11.5h-809zM639 1561l-233 213q-20 20 -7 38l74 95
q7 10 20 12.5t19 -2.5l166 -123l217 123q25 15 39 -8l55 -97q12 -21 -16 -38l-285 -213q-29 -20 -49 0z" />
    <glyph glyph-name="zcaron" unicode="&#x17e;" horiz-adv-x="710" 
d="M23 0q-14 0 -24 12t-7 27l4 20l256 492v4h-135q-13 0 -22 12t-7 27l27 186q3 17 14 28t25 11h508q21 0 28 -16.5t-4 -38.5l-278 -498v-4h139q31 0 28 -39l-24 -184q-2 -15 -14 -27t-27 -12h-487zM395 1049l-233 213q-19 19 -6 38l73 95q7 10 20 12.5t19 -2.5l166 -123
l217 123q25 15 39 -8l55 -97q12 -21 -16 -38l-285 -213q-29 -20 -49 0z" />
    <glyph glyph-name="florin" unicode="&#x192;" horiz-adv-x="772" 
d="M121 -188l104 747h-157q-15 0 -23.5 12t-5.5 27l24 182q3 17 14.5 28t26.5 11h158l27 191q29 211 153 327.5t318 116.5q73 0 127 -25t76 -53q18 -27 0 -51l-113 -156q-9 -12 -21.5 -16t-21.5 2q-26 16 -74 16q-43 0 -81.5 -42t-49.5 -121l-27 -189h160q15 0 23.5 -11
t7.5 -28l-27 -182q-2 -15 -14 -27t-27 -12h-159l-105 -749q-29 -212 -152.5 -328.5t-320.5 -116.5q-70 0 -122.5 25t-78.5 53q-19 23 -2 51l107 154q7 11 20.5 15t22.5 -1q32 -14 80 -14q43 0 82.5 42.5t50.5 121.5z" />
    <glyph glyph-name="Aringacute" unicode="&#x1fa;" 
d="M666 1810q-34 -15 -48 19l-36 96q-4 11 1 22.5t15 16.5l352 213q8 8 25.5 6t25.5 -20l54 -123q7 -24 0.5 -39.5t-21.5 -22.5zM-51 0q-21 0 -28.5 16.5t3.5 36.5l723 1286q-45 25 -73.5 74.5t-28.5 108.5q0 110 71.5 188t174.5 78q77 0 132.5 -60.5t55.5 -144.5
q0 -88 -47 -157.5t-121 -96.5l356 -1276q6 -20 -5.5 -36.5t-33.5 -16.5h-231q-29 0 -44.5 11t-21.5 40l-34 162h-453l-80 -164q-22 -49 -82 -49h-233zM750 1462q32 0 59 32t27 71q0 31 -18 53t-44 22q-32 0 -59 -30.5t-27 -69.5q0 -31 18 -54.5t44 -23.5zM489 492h230
l-64 342h-2z" />
    <glyph glyph-name="aringacute" unicode="&#x1fb;" horiz-adv-x="972" 
d="M547 870q-76 0 -132.5 60t-56.5 145q0 110 71.5 188t174.5 78q77 0 133 -60t56 -144q0 -111 -71 -189t-175 -78zM563 1016q33 0 59.5 31.5t26.5 70.5q0 31 -17.5 53.5t-43.5 22.5q-32 0 -59 -30.5t-27 -69.5q0 -31 17.5 -54.5t43.5 -23.5zM479 1356q-34 -15 -47 18
l-37 96q-4 11 1.5 22.5t15.5 16.5l352 213q8 8 25.5 6t25.5 -20l53 -123q7 -24 1 -39t-21 -22zM895 780l-111 -741q-3 -15 -15.5 -27t-25.5 -12h-106q-12 0 -20.5 8.5t-10.5 22.5l-12 71q-40 -44 -114.5 -83t-162.5 -39q-137 0 -212.5 107t-75.5 271q0 200 124 341t293 141
q46 0 88.5 -13.5t69.5 -32t47.5 -37.5t29.5 -33l9 -13l41 84q12 24 39 24h96q14 0 23 -11t6 -28zM414 246q69 0 115 52t46 130q0 60 -32.5 101.5t-81.5 41.5q-59 0 -107.5 -55t-48.5 -131q0 -59 31 -99t78 -40z" />
    <glyph glyph-name="AEacute" unicode="&#x1fc;" horiz-adv-x="1673" 
d="M-80 0q-21 0 -24.5 16.5t10.5 36.5l923 1317q19 26 27 36t25 19t39 9h739q14 0 22.5 -11.5t6.5 -27.5l-31 -224q-2 -15 -14 -26.5t-27 -11.5h-477l-35 -254h387q13 0 22 -12t7 -27l-31 -224q-3 -17 -15 -27.5t-26 -10.5h-387l-39 -277h477q14 0 22.5 -11.5t6.5 -27.5
l-31 -223q-2 -15 -14 -27t-27 -12h-762q-14 0 -22 11.5t-6 27.5l24 174h-291l-141 -190q-6 -9 -18 -16t-21 -7h-299zM547 492h182l53 358zM1169 1563q-34 -15 -47 18l-37 96q-4 11 1.5 22.5t15.5 16.5l352 213q8 8 25.5 6t25.5 -20l54 -123q7 -24 0.5 -39t-21.5 -22z" />
    <glyph glyph-name="aeacute" unicode="&#x1fd;" horiz-adv-x="1206" 
d="M225 -20q-119 0 -181.5 77t-43.5 207q15 110 107 182t229 72q28 0 60 -5t50 -10l17 -5q24 118 -88 118q-81 0 -189 -22q-14 -2 -26.5 8t-12.5 25v141q0 14 11 26.5t24 14.5q152 31 250 31q148 0 221 -80q106 80 256 80q105 0 182.5 -56t77.5 -151q0 -134 -125.5 -209.5
t-349.5 -75.5q-4 -121 103 -121q57 0 118 49q9 8 23.5 8.5t22.5 -8.5l92 -120q9 -11 7 -28t-11 -28q-133 -120 -297 -120q-167 0 -240 129q-42 -46 -116.5 -87.5t-170.5 -41.5zM727 516q7 0 19.5 1.5t44.5 7t56 13t44 23t20 35.5q0 18 -12.5 27.5t-32.5 9.5q-42 0 -84 -35
t-55 -82zM242 248q0 -31 18 -52.5t47 -21.5q37 0 66.5 28t29.5 72q0 32 -20 54t-51 22q-36 0 -63 -31t-27 -71zM639 1049q-34 -15 -47 18l-37 96q-4 11 1 22.5t15 16.5l353 213q8 8 25.5 6t25.5 -20l53 -123q7 -24 1 -39t-21 -22z" />
    <glyph glyph-name="Oslashacute" unicode="&#x1fe;" horiz-adv-x="1495" 
d="M41 47q-8 10 -6 26.5t12 26.5l154 148q-105 162 -105 366q0 171 61 326.5t164 268t245.5 179t299.5 66.5q117 0 221.5 -49.5t182.5 -138.5l157 151q12 12 26.5 11.5t23.5 -11.5l20 -24q10 -11 8 -26.5t-16 -27.5l-160 -151q109 -170 109 -375q0 -227 -102 -418.5
t-279.5 -303t-388.5 -111.5q-117 0 -222 48.5t-184 137.5l-151 -146q-11 -10 -25.5 -9t-22.5 12zM461 496l559 532q-81 98 -197 98q-98 0 -188.5 -63.5t-146.5 -172.5t-56 -233q0 -82 29 -161zM514 406q76 -99 195 -99q100 0 191 63t146.5 171.5t55.5 232.5q0 80 -31 164z
M741 1561q-34 -15 -47 18l-37 96q-4 11 1.5 22.5t15.5 16.5l352 213q8 8 25.5 6t25.5 -20l53 -123q7 -24 1 -39t-21 -22z" />
    <glyph glyph-name="oslashacute" unicode="&#x1ff;" horiz-adv-x="892" 
d="M371 1049q-34 -15 -47 18l-37 96q-4 11 1 22.5t15 16.5l352 213q8 8 26 6t26 -20l53 -123q7 -24 0.5 -39t-21.5 -22zM39 18l-23 25q-8 10 -6.5 26.5t13.5 26.5l59 58q-51 91 -51 204q0 130 54.5 239.5t157.5 176t232 66.5q126 0 223 -97l66 64q12 12 26 11.5t23 -11.5
l21 -25q9 -10 6.5 -25.5t-15.5 -27.5l-67 -63q55 -96 55 -209q0 -130 -57 -239t-159.5 -173.5t-227.5 -64.5q-130 0 -224 94l-59 -58q-12 -10 -25.5 -9.5t-21.5 11.5zM285 348l223 213q-24 21 -59 21q-64 0 -114 -61t-50 -146v-27zM334 256q23 -20 61 -20q65 0 115.5 61
t50.5 145q0 5 -1 15.5t-1 15.5z" />
    <glyph glyph-name="Scommaaccent" unicode="&#x218;" horiz-adv-x="1056" 
d="M47 137q-21 26 0 58l111 165q12 18 34 20t31 -7q122 -90 238 -90q57 0 95 37t36 88q-1 54 -34 98t-101 88q-48 32 -82 57.5t-80 68.5t-74 84.5t-48.5 99t-20.5 118.5q0 85 30 161t87.5 137.5t152.5 97.5t215 36q207 0 389 -149q15 -12 19.5 -34t-7.5 -36l-129 -158
q-12 -14 -33.5 -17t-31.5 7q-14 12 -41.5 30t-83.5 40t-105 22q-54 0 -92.5 -29.5t-38.5 -74.5q0 -52 35.5 -89.5t132.5 -95.5q40 -24 71.5 -45.5t78 -63.5t77 -85t53.5 -106.5t23 -131.5q0 -91 -32 -171.5t-93 -145.5t-161 -103t-226 -38q-76 0 -146.5 17t-119 43.5
t-80.5 51t-49 45.5zM434 -184q56 0 101 -48t45 -143q0 -244 -230 -413q-25 -19 -37 -3l-28 39q-18 25 10 43q13 8 33.5 26t49.5 49t53 77t32 94l-38 -10q-25 -4 -48 -4q-52 0 -86.5 36.5t-34.5 90.5q0 68 52 117t126 49z" />
    <glyph glyph-name="scommaaccent" unicode="&#x219;" horiz-adv-x="712" 
d="M8 49q-22 22 -8 43l84 150q7 10 19 14t26 -2q66 -39 137 -39q26 0 38.5 11t12.5 26q0 20 -17.5 36.5t-63.5 43.5q-88 53 -132.5 108t-44.5 127q0 115 87 194t239 79q79 0 149 -23t105 -45q23 -16 4 -47l-80 -143q-6 -9 -17 -13t-22 0q-82 37 -145 37q-45 0 -45 -28
q0 -17 14.5 -30.5t48.5 -33.5q55 -31 88 -54t66 -54.5t48 -67t15 -78.5q0 -129 -91.5 -204.5t-266.5 -75.5q-82 0 -151 22t-97 47zM252 -184q56 0 100.5 -48t44.5 -143q0 -244 -229 -413q-25 -19 -37 -3l-29 39q-17 24 11 43q13 8 33.5 26t49.5 49t53 77t32 94l-38 -10
q-25 -4 -48 -4q-52 0 -86.5 36.5t-34.5 90.5q0 68 52 117t126 49z" />
    <glyph glyph-name="uni021A" unicode="&#x21a;" horiz-adv-x="954" 
d="M238 39l153 1094h-250q-15 0 -23.5 11.5t-6.5 26.5l32 224q1 15 13 27t26 12h828q15 0 23.5 -11.5t6.5 -27.5l-32 -224q-2 -15 -13 -26.5t-26 -11.5h-252l-154 -1094q-1 -15 -14 -27t-27 -12h-254q-13 0 -22.5 12t-7.5 27zM369 -184q56 0 100.5 -48t44.5 -143
q0 -244 -229 -413q-25 -19 -37 -3l-29 39q-18 25 10 43q13 8 33.5 26t49.5 49t53 77t32 94l-38 -10q-25 -4 -48 -4q-52 0 -86.5 36.5t-34.5 90.5q0 68 52.5 117t126.5 49z" />
    <glyph glyph-name="uni021B" unicode="&#x21b;" horiz-adv-x="684" 
d="M113 264l41 295h-70q-13 0 -21 12t-6 27l25 182q1 17 13 28t26 11h69l31 228q1 15 14 26.5t27 11.5h230q13 0 20.5 -11t5.5 -27l-31 -228h119q15 0 23 -11t6 -28l-25 -182q-2 -15 -14 -27t-27 -12h-118l-35 -254q-7 -49 43 -49q19 0 55 8q13 3 24.5 -3.5t12.5 -22.5
l16 -152q5 -37 -30 -59q-21 -13 -92 -30t-140 -17q-102 0 -157 74.5t-35 209.5zM297 -184q56 0 100.5 -48t44.5 -143q0 -244 -229 -413q-25 -19 -37 -3l-29 39q-17 24 11 43q13 8 33.5 26t49.5 49t53 77t32 94l-38 -10q-25 -4 -48 -4q-52 0 -86.5 36.5t-34.5 90.5
q0 68 52 117t126 49z" />
    <glyph glyph-name="dotlessj" unicode="&#x237;" horiz-adv-x="524" 
d="M2 -188l135 968q3 17 15 28t26 11h240q14 0 22.5 -11t5.5 -28l-137 -968q-29 -215 -147.5 -331t-308.5 -116q-66 0 -132 25.5t-88 52.5q-6 7 -6 22t6 25l97 164q7 13 22 16t23 -2q52 -26 96 -26q107 0 131 170z" />
    <glyph glyph-name="circumflex" unicode="&#x2c6;" horiz-adv-x="688" 
d="M68 1049q-25 -15 -39 8l-56 96q-12 21 17 39l284 213q30 20 50 0l233 -213q20 -20 6 -39l-74 -94q-7 -10 -19.5 -12.5t-18.5 2.5l-166 122z" />
    <glyph glyph-name="caron" unicode="&#x2c7;" horiz-adv-x="688" 
d="M225 1049l-233 213q-19 19 -6 38l73 95q7 10 20 12.5t19 -2.5l166 -123l217 123q25 15 39 -8l55 -97q12 -21 -16 -38l-285 -213q-29 -20 -49 0z" />
    <glyph glyph-name="uni02C9" unicode="&#x2c9;" horiz-adv-x="763" 
d="M53 1153q-15 0 -22.5 10.5t-5.5 26.5l10 84q1 17 13.5 28t27.5 11h473q14 0 23 -11t6 -28l-13 -84q-2 -15 -13 -26t-26 -11h-473z" />
    <glyph glyph-name="breve" unicode="&#x2d8;" horiz-adv-x="636" 
d="M223 1079q-97 0 -163.5 71t-65.5 175q0 19 12 32t29 13h88q9 0 17 -7.5t10 -16.5q6 -42 31 -70.5t59 -28.5q31 0 63.5 30t50.5 69q10 24 35 24h103q17 0 26 -13t4 -32q-25 -109 -105.5 -177.5t-193.5 -68.5z" />
    <glyph glyph-name="dotaccent" unicode="&#x2d9;" horiz-adv-x="403" 
d="M94 1067q-58 0 -95.5 41t-37.5 100q0 74 54.5 129.5t125.5 55.5q58 0 96.5 -42.5t38.5 -101.5q0 -74 -55 -128t-127 -54z" />
    <glyph glyph-name="ring" unicode="&#x2da;" horiz-adv-x="534" 
d="M145 983q-76 0 -132 60t-56 145q0 110 71.5 188t174.5 78q77 0 132.5 -60.5t55.5 -144.5q0 -111 -71 -188.5t-175 -77.5zM162 1128q32 0 59 32t27 71q0 31 -18 53.5t-44 22.5q-31 0 -58.5 -31t-27.5 -70q0 -31 18 -54.5t44 -23.5z" />
    <glyph glyph-name="ogonek" unicode="&#x2db;" horiz-adv-x="507" 
d="M190 31h140q-6 -5 -16 -13t-35 -34.5t-44 -54.5t-35 -68.5t-16 -79.5q0 -49 28.5 -81t88.5 -32q11 0 70 13q21 4 31.5 -7.5t7.5 -31.5l-11 -68q-1 -13 -11.5 -24.5t-22.5 -14.5q-43 -16 -115 -16q-98 0 -168 52t-70 146q0 54 18.5 106t44.5 88t52 64.5t45 42.5z" />
    <glyph glyph-name="tilde" unicode="&#x2dc;" horiz-adv-x="700" 
d="M47 1137l-65 57q-18 18 -5 47q9 19 26 44t44.5 56t67 51.5t80.5 20.5q35 0 68.5 -24t64.5 -48t61 -24q21 0 41 18t31 39q18 35 51 10l63 -53q9 -12 7 -22.5t-13 -36.5q-7 -18 -21.5 -40t-39.5 -51.5t-62.5 -49t-78.5 -19.5q-32 0 -62.5 15.5t-49.5 33.5t-42.5 33.5
t-44.5 15.5q-40 0 -72 -61q-8 -16 -21.5 -19.5t-27.5 7.5z" />
    <glyph glyph-name="hungarumlaut" unicode="&#x2dd;" horiz-adv-x="722" 
d="M299 1067q-17 0 -27 12t-4 27l88 289q12 39 47 39h189q25 0 32 -16t-6 -36l-184 -284q-22 -31 -47 -31h-88zM-8 1067q-15 0 -25 12t-4 27l86 289q10 39 41 39h197q25 0 31.5 -16t-7.5 -36l-182 -284q-19 -31 -45 -31h-92z" />
    <glyph glyph-name="uni0394" unicode="&#x394;" horiz-adv-x="1454" 
d="M-4 0q-39 0 -51.5 21t10.5 71l752 1340q15 22 32 22h19q9 0 18 -6.5t10 -15.5l373 -1344q9 -35 -4.5 -61.5t-44.5 -26.5h-1114zM399 295l398 2l-127 512h-2z" />
    <glyph glyph-name="uni03A9" unicode="&#x3a9;" horiz-adv-x="1599" 
d="M-20 0q-15 0 -24 12t-7 27l33 223q2 15 13.5 27t24.5 12h154q-51 49 -88 148.5t-37 199.5q0 165 65 315.5t171.5 257t247 169.5t286.5 63q245 0 408.5 -173.5t163.5 -444.5q0 -139 -67.5 -299t-166.5 -236h135q17 0 26 -11.5t7 -27.5l-33 -223q-2 -15 -14 -27t-27 -12
h-518q-16 0 -24.5 11.5t-6.5 27.5l19 133q2 14 4.5 24.5t7 19t7.5 14t10.5 11t11.5 8t14 8.5l15 9q69 41 123 104.5t85.5 134.5t47.5 142.5t16 138.5q0 148 -78.5 244t-210.5 96q-117 0 -211.5 -73.5t-145 -191.5t-50.5 -253q0 -236 147 -342q3 -2 12.5 -8t11.5 -8t8 -7.5
t7.5 -9.5t3.5 -11.5t2 -16.5q0 -21 -20 -166q-1 -15 -13 -27t-26 -12h-520z" />
    <glyph glyph-name="uni03BC" unicode="&#x3bc;" horiz-adv-x="997" 
d="M319 -18l-77 -555q-1 -15 -14 -27t-27 -12h-226q-13 0 -22.5 12t-7.5 27l192 1353q1 17 13 28t26 11h227q14 0 23 -11t8 -28l-59 -413q-9 -59 12 -90t62 -31q49 0 81.5 38.5t40.5 98.5l58 397q3 22 13.5 30.5t39.5 8.5h207q14 0 23 -11t8 -28l-105 -741q-1 -15 -14 -27
t-27 -12h-98q-21 0 -29 25l-22 79q-40 -48 -111.5 -86t-165.5 -38q-19 0 -29 2z" />
    <glyph glyph-name="pi" unicode="&#x3c0;" horiz-adv-x="1439" 
d="M219 39l74 520h-113q-15 0 -23.5 11.5t-6.5 27.5l26 182q3 17 14.5 28t26.5 11h1063q15 0 23.5 -11t5.5 -28l-27 -182q-2 -15 -13 -27t-26 -12h-115l-73 -520q-1 -15 -14 -27t-27 -12h-236q-13 0 -21.5 12t-6.5 27l73 520h-223l-74 -520q-1 -15 -14 -27t-27 -12h-237
q-13 0 -22 12t-7 27z" />
    <glyph glyph-name="Wgrave" unicode="&#x1e80;" horiz-adv-x="1673" 
d="M319 8l-153 1376q-3 21 8.5 35.5t30.5 14.5h248q10 0 19 -9t9 -20l39 -694h8l381 721q11 22 35 22h33q10 0 18.5 -6.5t10.5 -15.5l178 -721h6l237 694q5 11 16 20t21 9h246q20 0 28 -14t-1 -36l-541 -1376q-4 -12 -15 -20t-22 -8h-31q-21 0 -28 22l-221 838h-9l-456 -838
q-15 -22 -35 -22h-29q-12 0 -20.5 8t-10.5 20zM1120 1561l-321 168q-12 7 -14 22t12 39l80 113q19 29 49 6l291 -213q8 -5 10.5 -16t-4.5 -23l-49 -78q-21 -35 -54 -18z" />
    <glyph glyph-name="wgrave" unicode="&#x1e81;" horiz-adv-x="1167" 
d="M193 4l-146 764q-4 20 8 35.5t31 15.5h184q11 0 20.5 -7t10.5 -17l59 -273h2l211 281q12 16 31 16h21q16 0 24 -16l131 -281h2l127 273q6 11 9 14.5t11 6.5t23 3h195q20 0 29 -15.5t0 -35.5l-365 -764q-10 -24 -35 -24h-8q-19 0 -27 16l-186 393l-293 -393
q-10 -16 -33 -16h-8q-25 0 -28 24zM791 1049l-322 168q-12 7 -14 22t12 39l80 113q19 29 49 6l291 -213q8 -5 10.5 -16t-4.5 -23l-49 -78q-21 -35 -53 -18z" />
    <glyph glyph-name="Wacute" unicode="&#x1e82;" horiz-adv-x="1673" 
d="M319 8l-153 1376q-3 21 8.5 35.5t30.5 14.5h248q10 0 19 -9t9 -20l39 -694h8l381 721q11 22 35 22h33q10 0 18.5 -6.5t10.5 -15.5l178 -721h6l237 694q5 11 16 20t21 9h246q20 0 28 -14t-1 -36l-541 -1376q-4 -12 -15 -20t-22 -8h-31q-21 0 -28 22l-221 838h-9l-456 -838
q-15 -22 -35 -22h-29q-12 0 -20.5 8t-10.5 20zM848 1561q-34 -15 -47 18l-37 96q-4 11 1 22.5t15 16.5l353 213q8 8 25.5 6t25.5 -20l53 -123q7 -24 1 -39t-21 -22z" />
    <glyph glyph-name="wacute" unicode="&#x1e83;" horiz-adv-x="1167" 
d="M193 4l-146 764q-4 20 8 35.5t31 15.5h184q11 0 20.5 -7t10.5 -17l59 -273h2l211 281q12 16 31 16h21q16 0 24 -16l131 -281h2l127 273q6 11 9 14.5t11 6.5t23 3h195q20 0 29 -15.5t0 -35.5l-365 -764q-10 -24 -35 -24h-8q-19 0 -27 16l-186 393l-293 -393
q-10 -16 -33 -16h-8q-25 0 -28 24zM518 1049q-34 -15 -47 18l-37 96q-4 11 1.5 22.5t15.5 16.5l352 213q8 8 25.5 6t25.5 -20l53 -123q7 -24 1 -39t-21 -22z" />
    <glyph glyph-name="Wdieresis" unicode="&#x1e84;" horiz-adv-x="1673" 
d="M319 8l-153 1376q-3 21 8.5 35.5t30.5 14.5h248q10 0 19 -9t9 -20l39 -694h8l381 721q11 22 35 22h33q10 0 18.5 -6.5t10.5 -15.5l178 -721h6l237 694q5 11 16 20t21 9h246q20 0 28 -14t-1 -36l-541 -1376q-4 -12 -15 -20t-22 -8h-31q-21 0 -28 22l-221 838h-9l-456 -838
q-15 -22 -35 -22h-29q-12 0 -20.5 8t-10.5 20zM1227 1573q-54 0 -86 42.5t-23 102.5q7 60 50.5 102t97.5 42t86.5 -42t25.5 -102q-9 -60 -53 -102.5t-98 -42.5zM737 1573q-54 0 -85.5 42.5t-22.5 102.5q8 60 50.5 102t96.5 42t87 -42t26 -102q-9 -60 -53.5 -102.5
t-98.5 -42.5z" />
    <glyph glyph-name="wdieresis" unicode="&#x1e85;" horiz-adv-x="1167" 
d="M193 4l-146 764q-4 20 8 35.5t31 15.5h184q11 0 20.5 -7t10.5 -17l59 -273h2l211 281q12 16 31 16h21q16 0 24 -16l131 -281h2l127 273q6 11 9 14.5t11 6.5t23 3h195q20 0 29 -15.5t0 -35.5l-365 -764q-10 -24 -35 -24h-8q-19 0 -27 16l-186 393l-293 -393
q-10 -16 -33 -16h-8q-25 0 -28 24zM846 1096q-54 0 -86 42.5t-23 102.5q7 60 50.5 101.5t97.5 41.5t86.5 -41.5t25.5 -101.5q-9 -60 -53 -102.5t-98 -42.5zM467 1096q-54 0 -86 42.5t-23 102.5q7 60 50.5 101.5t97.5 41.5t86.5 -41.5t25.5 -101.5q-9 -60 -53 -102.5
t-98 -42.5z" />
    <glyph glyph-name="Ygrave" unicode="&#x1ef2;" horiz-adv-x="1105" 
d="M311 39l92 651l-303 684q-8 21 4 40.5t33 19.5h258q21 0 29 -19l170 -420l289 420q14 19 32 19h289q23 0 30 -20t-7 -40l-502 -682l-90 -653q-1 -15 -14 -27t-27 -12h-254q-14 0 -22.5 11.5t-6.5 27.5zM815 1561l-321 168q-12 7 -14 22t12 39l79 113q9 13 23 15t27 -9
l290 -213q8 -5 11 -16t-4 -23l-50 -78q-21 -35 -53 -18z" />
    <glyph glyph-name="ygrave" unicode="&#x1ef3;" horiz-adv-x="868" 
d="M213 92l-172 682q-5 20 5 32.5t32 12.5h209q9 0 17 -6.5t9 -15.5l90 -375h3l182 375q11 22 35 22h237q20 0 27 -16.5t-4 -36.5l-754 -1356q-12 -24 -35 -24h-239q-20 0 -26.5 14.5t5.5 36.5zM633 1049l-322 168q-12 7 -14 22t12 39l80 113q19 29 49 6l291 -213
q8 -5 10.5 -16t-4.5 -23l-49 -78q-21 -35 -53 -18z" />
    <glyph glyph-name="endash" unicode="&#x2013;" horiz-adv-x="1021" 
d="M119 416q-15 0 -24 11t-7 26l14 104q3 17 14.5 28t26.5 11h772q15 0 23.5 -11t5.5 -28l-14 -104q-1 -15 -13.5 -26t-27.5 -11h-770z" />
    <glyph glyph-name="emdash" unicode="&#x2014;" horiz-adv-x="1427" 
d="M119 416q-15 0 -24 11t-7 26l14 104q3 17 14.5 28t26.5 11h1178q15 0 23.5 -11t5.5 -28l-15 -104q-1 -15 -13.5 -26t-27.5 -11h-1175z" />
    <glyph glyph-name="quoteleft" unicode="&#x2018;" horiz-adv-x="405" 
d="M254 836q-56 0 -100.5 47.5t-44.5 142.5q0 245 229 414q24 19 37 2l28 -39q18 -25 -10 -43q-13 -8 -33.5 -26t-49.5 -49t-53 -77t-32 -94l38 10q25 4 48 4q52 0 86.5 -36.5t34.5 -90.5q0 -68 -52 -116.5t-126 -48.5z" />
    <glyph glyph-name="quoteright" unicode="&#x2019;" horiz-adv-x="395" 
d="M184 848l-28 39q-18 25 10 43q13 8 33.5 26t49.5 49t53 77t32 94l-36 -10q-25 -5 -50 -5q-52 0 -86.5 36.5t-34.5 90.5q0 68 52 117t126 49q56 0 101 -47.5t45 -142.5q0 -245 -230 -414q-24 -19 -37 -2z" />
    <glyph glyph-name="quotesinglbase" unicode="&#x201a;" horiz-adv-x="452" 
d="M2 106q0 68 52 117t126 49q56 0 101 -47.5t45 -142.5q0 -245 -230 -414q-24 -19 -37 -2l-28 39q-18 25 10 43q13 8 33.5 26t49.5 49t53 77t32 94l-38 -10q-25 -4 -48 -4q-52 0 -86.5 36t-34.5 90z" />
    <glyph glyph-name="quotedblleft" unicode="&#x201c;" horiz-adv-x="780" 
d="M629 836q-56 0 -101 47.5t-45 142.5q0 245 230 414q24 19 37 2l28 -39q18 -25 -10 -43q-13 -8 -33.5 -26t-49.5 -49t-53 -77t-32 -94l38 10q25 4 48 4q52 0 86.5 -36.5t34.5 -90.5q0 -68 -51.5 -116.5t-126.5 -48.5zM254 836q-56 0 -100.5 47.5t-44.5 142.5
q0 245 229 414q24 19 37 2l28 -39q18 -25 -10 -43q-13 -8 -33.5 -26t-49.5 -49t-53 -77t-32 -94l38 10q25 4 48 4q52 0 86.5 -36.5t34.5 -90.5q0 -68 -52 -116.5t-126 -48.5z" />
    <glyph glyph-name="quotedblright" unicode="&#x201d;" horiz-adv-x="770" 
d="M559 848l-29 39q-17 24 11 43q13 8 33.5 26t49.5 49t53 77t32 94l-36 -10q-25 -5 -50 -5q-52 0 -86.5 36.5t-34.5 90.5q0 68 52 117t126 49q56 0 100.5 -47.5t44.5 -142.5q0 -245 -229 -414q-24 -19 -37 -2zM184 848l-28 39q-18 25 10 43q13 8 33.5 26t49.5 49t53 77
t32 94l-36 -10q-25 -5 -50 -5q-52 0 -86.5 36.5t-34.5 90.5q0 68 52 117t126 49q56 0 101 -47.5t45 -142.5q0 -245 -230 -414q-24 -19 -37 -2z" />
    <glyph glyph-name="quotedblbase" unicode="&#x201e;" horiz-adv-x="827" 
d="M377 106q0 68 52 117t126 49q56 0 100.5 -47.5t44.5 -142.5q0 -245 -229 -414q-24 -19 -37 -2l-28 39q-18 25 10 43q13 8 33.5 26t49.5 49t53 77t32 94l-38 -10q-25 -4 -48 -4q-52 0 -86.5 36t-34.5 90zM2 106q0 68 52 117t126 49q56 0 101 -47.5t45 -142.5
q0 -245 -230 -414q-24 -19 -37 -2l-28 39q-18 25 10 43q13 8 33.5 26t49.5 49t53 77t32 94l-38 -10q-25 -4 -48 -4q-52 0 -86.5 36t-34.5 90z" />
    <glyph glyph-name="dagger" unicode="&#x2020;" horiz-adv-x="1138" 
d="M45 537q-14 0 -23 11.5t-8 26.5l31 205q1 15 13 27t26 12h274l80 576q3 15 15.5 27t25.5 12h252q13 0 22 -12t7 -27l-80 -576h291q13 0 21.5 -12t6.5 -27l-28 -205q-1 -15 -13 -26.5t-26 -11.5h-316l-237 -1119q-3 -12 -15 -22t-24 -10h-45q-12 0 -22 10t-9 22l76 1119
h-295z" />
    <glyph glyph-name="daggerdbl" unicode="&#x2021;" horiz-adv-x="1138" 
d="M27 2q-13 0 -22 12t-7 27l29 205q1 15 14 27t27 12h254l36 530l2 2h-274q-13 0 -22 12t-7 27l29 205q1 15 14 27t27 12h272l41 295q3 15 15.5 27t25.5 12h252q13 0 22 -12t7 -27l-41 -295h291q13 0 21.5 -12t6.5 -27l-28 -205q-2 -15 -14 -27t-25 -12h-293l-115 -532h279
q13 0 20.5 -11.5t5.5 -27.5l-28 -205q-2 -15 -14 -27t-25 -12h-297l-125 -584q-3 -12 -15 -22t-24 -10h-45q-12 0 -22 10t-9 22l37 584h-276z" />
    <glyph glyph-name="bullet" unicode="&#x2022;" horiz-adv-x="747" 
d="M225 170q-100 0 -167.5 75t-67.5 179q0 132 98 232t221 100q103 0 173.5 -77t70.5 -185q0 -129 -101 -226.5t-227 -97.5z" />
    <glyph glyph-name="ellipsis" unicode="&#x2026;" horiz-adv-x="1271" 
d="M817 123q0 74 54.5 128t125.5 54q58 0 97 -41t39 -100q0 -74 -56 -129t-127 -55q-58 0 -95.5 41.5t-37.5 101.5zM397 123q0 74 54 128t127 54q58 0 96.5 -41t38.5 -100q0 -74 -55.5 -129t-125.5 -55q-59 0 -97 41.5t-38 101.5zM94 -20q-58 0 -95.5 41.5t-37.5 101.5
q0 75 53.5 128.5t126.5 53.5q58 0 96.5 -41t38.5 -100q0 -74 -55.5 -129t-126.5 -55z" />
    <glyph glyph-name="perthousand" unicode="&#x2030;" horiz-adv-x="1816" 
d="M258 903q-89 0 -152 70t-63 170q0 130 83.5 220.5t207.5 90.5q88 0 150.5 -69t62.5 -168q0 -130 -84.5 -222t-204.5 -92zM59 0q-22 0 -29 17.5t5 37.5l827 1358q10 21 35 21h121q20 0 27 -18t-5 -38l-827 -1358q-15 -20 -33 -20h-121zM287 1102q27 0 43 24.5t16 63.5
q0 65 -45 65q-27 0 -43 -26t-16 -64q0 -28 11.5 -45.5t33.5 -17.5zM1090 219q0 130 83 220.5t207 90.5q88 0 150.5 -69t62.5 -168q0 -130 -84 -221.5t-204 -91.5q-89 0 -152 69.5t-63 169.5zM539 219q0 130 83 220.5t207 90.5q88 0 150.5 -69t62.5 -168q0 -130 -84 -221.5
t-204 -91.5q-89 0 -152 69.5t-63 169.5zM1288 242q0 -28 11.5 -46t33.5 -18q27 0 43.5 24.5t16.5 63.5q0 66 -45 66q-27 0 -43.5 -26t-16.5 -64zM737 242q0 -28 11.5 -46t33.5 -18q27 0 43.5 24.5t16.5 63.5q0 66 -45 66q-27 0 -43.5 -26t-16.5 -64z" />
    <glyph glyph-name="guilsinglleft" unicode="&#x2039;" horiz-adv-x="552" 
d="M172 80l-147 317q-11 23 6 49l233 304q19 24 37 24h182q24 0 29.5 -19t-8.5 -44l-164 -305l59 -281q5 -26 -5 -44t-32 -18h-165q-17 0 -25 17z" />
    <glyph glyph-name="guilsinglright" unicode="&#x203a;" horiz-adv-x="555" 
d="M29 63q-24 0 -29.5 19.5t8.5 44.5l164 305l-59 281q-5 26 5 43.5t32 17.5h165q17 0 25 -16l147 -318q11 -23 -6 -49l-233 -303q-20 -25 -37 -25h-182z" />
    <glyph glyph-name="fraction" unicode="&#x2044;" horiz-adv-x="231" 
d="M-139 20q-15 -20 -33 -20h-121q-22 0 -29 17.5t5 37.5l827 1358q10 21 35 21h121q20 0 27 -18t-5 -38z" />
    <glyph glyph-name="zerosuperior" unicode="&#x2070;" horiz-adv-x="667" 
d="M397 1012q-100 0 -154.5 68.5t-54.5 185.5q0 182 77 287.5t214 105.5q100 0 155.5 -68t55.5 -186q0 -180 -78 -286.5t-215 -106.5zM418 1190q34 0 56 70t22 151q0 30 -11 50t-26 20q-31 0 -54.5 -63t-23.5 -154q0 -74 37 -74z" />
    <glyph glyph-name="foursuperior" unicode="&#x2074;" horiz-adv-x="690" 
d="M440 1032q-8 0 -12.5 6t-3.5 13l14 96h-231q-7 0 -11.5 5t-2.5 11l18 127l336 342q6 6 16 6h103q6 0 10.5 -5.5t3.5 -12.5l-47 -334h69q7 0 12 -5t3 -11l-15 -105q-4 -18 -18 -18h-72l-12 -96q-4 -19 -20 -19h-140zM365 1282h94l18 115z" />
    <glyph glyph-name="fivesuperior" unicode="&#x2075;" horiz-adv-x="604" 
d="M365 1012q-57 0 -105.5 25.5t-64.5 52.5q-12 16 2 30l65 76q17 20 37 4q33 -29 76 -29q26 0 47.5 18t21.5 48q0 23 -14 37t-35 14h-131q-13 0 -20.5 10t-5.5 21l43 301q4 18 22 18h297q9 0 13.5 -5t2.5 -13l-14 -109q-4 -18 -22 -18h-168l-9 -59h46q78 0 131 -45.5
t53 -124.5q0 -113 -71 -182.5t-197 -69.5z" />
    <glyph glyph-name="sixsuperior" unicode="&#x2076;" horiz-adv-x="624" 
d="M383 1012q-88 0 -143.5 58.5t-55.5 148.5q0 67 18 126.5t42.5 100.5t64.5 78.5t70.5 58.5t74 41.5t60.5 27t45 15.5q34 9 37 -18l20 -82q0 -28 -22 -35q-47 -14 -105 -50t-83 -83q-1 0 0.5 1.5t5.5 3.5l9 4.5t12.5 5t16.5 4.5t21 3.5t25 1.5q55 0 96 -44.5t41 -121.5
q0 -105 -69.5 -175t-180.5 -70zM406 1169q23 0 38 23t15 57q0 24 -10 39t-25 15q-23 0 -39 -21.5t-16 -60.5q0 -20 9 -36t28 -16z" />
    <glyph glyph-name="sevensuperior" unicode="&#x2077;" horiz-adv-x="598" 
d="M201 1032q-13 0 -19.5 4.5t-5.5 14.5l2 10l248 426h-147q-8 0 -13 5t-4 11l17 117q4 18 20 18h365q6 0 11.5 -5.5t4.5 -12.5l-4 -33l-303 -536q-14 -19 -33 -19h-139z" />
    <glyph glyph-name="eightsuperior" unicode="&#x2078;" horiz-adv-x="651" 
d="M393 1012q-97 0 -155 44t-58 113q0 39 18.5 73t45.5 54.5t44.5 31t27.5 15.5h1v3q-28 12 -52.5 44t-24.5 80q0 84 73 136.5t172 52.5q86 0 143.5 -42t57.5 -110q0 -63 -38.5 -105t-80.5 -56v-3q37 -9 67 -43t30 -90q0 -86 -77 -142t-194 -56zM451 1413q22 0 38 13.5
t17 33.5q3 22 -7.5 35.5t-33.5 13.5q-21 0 -36.5 -14t-18.5 -35q-2 -21 9 -34t32 -13zM418 1157q23 0 41.5 16.5t23.5 40.5q2 24 -12.5 40t-38.5 16q-23 0 -41.5 -16.5t-19.5 -39.5q-5 -23 8.5 -40t38.5 -17z" />
    <glyph glyph-name="ninesuperior" unicode="&#x2079;" horiz-adv-x="624" 
d="M289 1004q-34 -9 -37 18l-21 82q0 27 23 35q47 14 105 50t83 83q1 0 -2.5 -2.5t-10.5 -6t-17.5 -7.5t-26 -6.5t-33.5 -2.5q-55 0 -96 44.5t-41 121.5q0 105 69.5 175.5t180.5 70.5q88 0 143.5 -58.5t55.5 -148.5q0 -67 -18 -126.5t-42.5 -100.5t-64.5 -78.5t-70.5 -58.5
t-74 -41.5t-60.5 -27t-45 -15.5zM424 1368q23 0 39 21.5t16 60.5q0 20 -9 35.5t-28 15.5q-23 0 -38 -23t-15 -57q0 -24 10 -38.5t25 -14.5z" />
    <glyph glyph-name="zeroinferior" unicode="&#x2080;" horiz-adv-x="667" 
d="M-16 -74q0 182 76.5 287.5t213.5 105.5q100 0 155.5 -67.5t55.5 -185.5q0 -180 -77.5 -287t-214.5 -107q-100 0 -154.5 68.5t-54.5 185.5zM176 -76q0 -74 37 -74q34 0 56 70.5t22 151.5q0 30 -11 49.5t-26 19.5q-31 0 -54.5 -63t-23.5 -154z" />
    <glyph glyph-name="oneinferior" unicode="&#x2081;" horiz-adv-x="471" 
d="M39 88q-12 0 -12 23l14 77q3 14 18 23l156 88h131q7 0 11.5 -5t2.5 -13l-79 -570q-4 -18 -21 -18h-154q-16 0 -16 18l53 377h-104z" />
    <glyph glyph-name="twoinferior" unicode="&#x2082;" horiz-adv-x="583" 
d="M94 131l-31 86q-8 18 -5 30.5t24 24.5q78 47 176 47q76 0 125 -45.5t49 -119.5q0 -96 -74 -199l-77 -109h86q8 0 12.5 -5.5t3.5 -12.5l-16 -117q0 -7 -8 -12.5t-13 -5.5h-360q-8 0 -13 5.5t-4 12.5l6 37l218 266q43 50 43 95q0 43 -37 43q-16 0 -37.5 -10t-32.5 -19
q-9 -8 -20 -6.5t-15 14.5z" />
    <glyph glyph-name="threeinferior" unicode="&#x2083;" horiz-adv-x="581" 
d="M78 -35l8 70q3 35 41 35h51q15 0 29 15.5t14 41.5q0 37 -33 37q-20 0 -53 -25q-8 -7 -16.5 -6.5t-16.5 14.5l-43 80q-13 25 9 43q66 49 165 49q87 0 138 -40t51 -107q0 -111 -117 -168q90 -39 90 -133q0 -95 -72.5 -147t-175.5 -52q-91 0 -151 60q-21 21 -2 45l49 65
q20 23 43 8q27 -18 59 -18q23 0 37.5 15t14.5 44q0 41 -37 41h-66q-21 0 -16 33z" />
    <glyph glyph-name="fourinferior" unicode="&#x2084;" horiz-adv-x="690" 
d="M6 -49l336 342q6 6 16 6h103q6 0 10.5 -5.5t3.5 -12.5l-47 -334h70q7 0 11.5 -5.5t2.5 -11.5l-14 -104q-2 -8 -7.5 -13.5t-11.5 -5.5h-71l-13 -96q-4 -18 -20 -18h-139q-8 0 -13 5.5t-4 12.5l14 96h-231q-7 0 -11.5 5.5t-2.5 11.5zM160 -57h94l18 114z" />
    <glyph glyph-name="fiveinferior" unicode="&#x2085;" horiz-adv-x="604" 
d="M33 -20l43 301q4 18 22 18h297q9 0 14 -5t3 -13l-15 -109q-4 -18 -22 -18h-168l-8 -60h45q78 0 131 -45.5t53 -124.5q0 -113 -71 -182.5t-197 -69.5q-57 0 -105.5 25.5t-64.5 52.5q-12 17 2 31l65 76q17 20 37 4q33 -29 76 -29q26 0 48 18t22 48q0 23 -14.5 37t-35.5 14
h-131q-13 0 -20.5 10t-5.5 21z" />
    <glyph glyph-name="sixinferior" unicode="&#x2086;" horiz-adv-x="624" 
d="M-20 -121q0 323 374 449q34 9 37 -19l21 -82q0 -26 -23 -34q-47 -14 -105 -50.5t-83 -83.5q-1 0 2.5 2.5t10.5 6.5t17.5 7.5t26 6t33.5 2.5q55 0 96 -44.5t41 -121.5q0 -105 -69.5 -175.5t-180.5 -70.5q-88 0 -143 58.5t-55 148.5zM164 -119q0 -20 9 -35.5t28 -15.5
q23 0 38 23t15 57q0 24 -10 38.5t-25 14.5q-23 0 -39 -21.5t-16 -60.5z" />
    <glyph glyph-name="seveninferior" unicode="&#x2087;" horiz-adv-x="598" 
d="M74 147q-8 0 -13 5.5t-4 11.5l17 117q4 18 20 18h365q7 0 12 -5.5t4 -12.5l-4 -33l-303 -537q-13 -18 -33 -18h-139q-13 0 -19.5 4t-5.5 14l2 10l248 426h-147z" />
    <glyph glyph-name="eightinferior" unicode="&#x2088;" horiz-adv-x="651" 
d="M113 4v2q-28 12 -53 44.5t-25 80.5q0 84 73.5 136t172.5 52q86 0 143 -41.5t57 -109.5q0 -63 -38.5 -105.5t-80.5 -56.5v-2q37 -9 67 -43t30 -90q0 -86 -77 -142.5t-194 -56.5q-97 0 -155 44.5t-58 113.5q0 39 17.5 72t48 56t42 30t29.5 15zM205 121q-2 -21 9 -34t32 -13
q22 0 38 13.5t17 33.5q3 22 -7.5 35.5t-33.5 13.5q-21 0 -36.5 -14t-18.5 -35zM166 -125q-5 -23 8.5 -40t38.5 -17q23 0 42 17t24 40q2 24 -13 39.5t-39 15.5q-23 0 -41.5 -16t-19.5 -39z" />
    <glyph glyph-name="nineinferior" unicode="&#x2089;" horiz-adv-x="624" 
d="M10 74q0 105 69.5 175t180.5 70q89 0 144 -58t55 -148q0 -67 -18 -126.5t-42.5 -101t-64.5 -78.5t-70.5 -58.5t-74 -42t-61 -27t-44.5 -15.5q-34 -9 -37 19l-20 81q0 28 22 35q48 14 106 50t83 83q1 0 -1 -1.5t-5.5 -3.5t-8.5 -4.5t-13 -5t-17 -4.5t-21 -3.5t-25 -1.5
q-55 0 -96 44.5t-41 121.5zM184 82q0 -24 10 -38.5t25 -14.5q23 0 39 21.5t16 60.5q0 20 -8.5 35.5t-27.5 15.5q-23 0 -38.5 -23t-15.5 -57z" />
    <glyph glyph-name="Euro" unicode="&#x20ac;" horiz-adv-x="1335" 
d="M82 508q-13 0 -22 12t-7 27l4 35q1 15 13 27t26 12h70v4q0 72 8 129h-59q-13 0 -21 12t-6 27l4 34q2 15 14 27t25 12h66q68 262 268.5 425t468.5 163q267 0 430 -190q9 -12 7 -29t-15 -29l-176 -155q-25 -22 -47 0q-38 43 -99 68.5t-123 25.5q-112 0 -206.5 -77.5
t-145.5 -201.5h367q15 0 24 -12t6 -27l-6 -39q-3 -15 -14.5 -25.5t-26.5 -10.5h-383q-6 -46 -6 -93q0 -26 2 -38h295q15 0 24.5 -12t6.5 -27l-6 -37q-3 -15 -14.5 -26t-24.5 -11h-258q32 -92 98 -146.5t154 -54.5q51 0 115.5 30.5t121.5 76.5q11 9 26 8t23 -10l140 -185
q8 -13 4 -28.5t-15 -26.5q-206 -192 -462 -192q-206 0 -371 151t-203 377h-94z" />
    <glyph glyph-name="afii61289" unicode="&#x2113;" horiz-adv-x="1034" 
d="M301 -20q-124 0 -186.5 100.5t-42.5 238.5q4 35 20 101q-6 -2 -35 -11t-39 -10q-13 -3 -20.5 4t-5.5 21l6 92q0 36 35 43q55 11 110 31q3 9 21.5 70.5t30.5 95.5q53 174 105 298.5t111.5 216.5t127 137.5t145.5 45.5q100 0 148.5 -77.5t29.5 -207.5q-19 -138 -76.5 -254
t-143.5 -200.5t-180.5 -144.5t-207.5 -105q-20 -55 -33 -141q-5 -50 -1.5 -92t27.5 -69.5t68 -27.5q124 0 275 88q19 10 28 12t13.5 -2.5t11.5 -19.5l23 -49q11 -24 9.5 -34t-22.5 -28q-17 -12 -44.5 -28t-75.5 -39.5t-110 -39t-122 -15.5zM309 635q164 77 272 216t134 318
q19 129 -51 129q-76 0 -162.5 -151.5t-165.5 -417.5z" />
    <glyph glyph-name="trademark" unicode="&#x2122;" horiz-adv-x="1329" 
d="M494 774q-18 0 -26.5 14t-2.5 33l178 592q8 31 41 31h6q20 0 29 -23l123 -352l223 352q14 23 35 23h6q13 0 22 -9.5t9 -21.5l14 -594q0 -19 -12 -32t-29 -13h-113q-12 0 -20 10.5t-8 24.5l4 215l-135 -238q-9 -18 -33 -18h-10q-22 0 -29 20l-68 236l-55 -217
q-3 -12 -16 -22.5t-25 -10.5h-108zM104 774q-15 0 -23 12t-5 27l61 442h-106q-14 0 -23 11t-6 28l14 101q1 15 14 27t27 12h396q15 0 23.5 -11.5t6.5 -27.5l-14 -101q-3 -17 -14.5 -28t-26.5 -11h-106l-62 -442q-1 -15 -14 -27t-27 -12h-115z" />
    <glyph glyph-name="Omega" unicode="&#x2126;" horiz-adv-x="1599" 
d="M-20 0q-15 0 -24 12t-7 27l33 223q2 15 13.5 27t24.5 12h154q-51 49 -88 148.5t-37 199.5q0 165 65 315.5t171.5 257t247 169.5t286.5 63q245 0 408.5 -173.5t163.5 -444.5q0 -139 -67.5 -299t-166.5 -236h135q17 0 26 -11.5t7 -27.5l-33 -223q-2 -15 -14 -27t-27 -12
h-518q-16 0 -24.5 11.5t-6.5 27.5l19 133q2 14 4.5 24.5t7 19t7.5 14t10.5 11t11.5 8t14 8.5l15 9q69 41 123 104.5t85.5 134.5t47.5 142.5t16 138.5q0 148 -78.5 244t-210.5 96q-117 0 -211.5 -73.5t-145 -191.5t-50.5 -253q0 -236 147 -342q3 -2 12.5 -8t11.5 -8t8 -7.5
t7.5 -9.5t3.5 -11.5t2 -16.5q0 -21 -20 -166q-1 -15 -13 -27t-26 -12h-520z" />
    <glyph glyph-name="estimated" unicode="&#x212e;" horiz-adv-x="1685" 
d="M238 352q53 -104 153.5 -163.5t226.5 -59.5q91 0 192 43t191 119q15 12 23 17t18 3.5t19 -14.5l37 -53q17 -25 -21 -66q-223 -198 -479 -198q-138 0 -254.5 57t-192.5 154.5t-109.5 234t-12.5 289.5q22 153 94 290.5t175.5 235.5t236 155.5t270.5 57.5q182 0 321.5 -99.5
t204.5 -271t39 -376.5q-6 -38 -18.5 -52t-40.5 -14h-1032zM299 786h825l41 291q-50 104 -151 165t-230 61q-133 0 -248.5 -58t-193.5 -164z" />
    <glyph glyph-name="onethird" unicode="&#x2153;" horiz-adv-x="1228" 
d="M20 0q-22 0 -29 17.5t5 37.5l827 1358q11 21 35 21h121q20 0 27 -18t-5 -38l-827 -1358q-15 -20 -33 -20h-121zM145 827q-16 0 -16 19l53 377h-104q-12 0 -12 22l14 78q3 14 18 23l156 88h131q7 0 11.5 -5.5t2.5 -13.5l-80 -569q-4 -19 -20 -19h-154zM606 39
q-21 21 -2 45l49 66q20 23 43 8q28 -19 60 -19q23 0 37 15t14 45q0 41 -37 41h-65q-22 0 -17 32l8 70q3 35 41 35h51q15 0 29 15.5t14 41.5q0 37 -32 37q-21 0 -54 -25q-19 -13 -32 9l-43 80q-13 26 8 43q66 49 166 49q87 0 137.5 -40.5t50.5 -107.5q0 -111 -117 -168
q91 -39 91 -133t-72.5 -146t-175.5 -52q-93 0 -152 59z" />
    <glyph glyph-name="twothirds" unicode="&#x2154;" horiz-adv-x="1228" 
d="M-51 827q-8 0 -13 6t-4 13l7 37l217 266q43 50 43 94q0 43 -37 43q-16 0 -37.5 -10t-32.5 -19q-9 -8 -20 -6t-15 15l-30 86q-8 18 -5.5 30.5t23.5 24.5q78 47 176 47q76 0 125 -46t49 -120q0 -97 -73 -198l-78 -109h86q8 0 12.5 -5.5t3.5 -12.5l-16 -117q0 -7 -8 -13
t-13 -6h-360zM20 0q-22 0 -29 17.5t5 37.5l827 1358q11 21 35 21h121q20 0 27 -18t-5 -38l-827 -1358q-15 -20 -33 -20h-121zM606 39q-21 21 -2 45l49 66q20 23 43 8q28 -19 60 -19q23 0 37 15t14 45q0 41 -37 41h-65q-22 0 -17 32l8 70q3 35 41 35h51q15 0 29 15.5t14 41.5
q0 37 -32 37q-21 0 -54 -25q-19 -13 -32 9l-43 80q-13 26 8 43q66 49 166 49q87 0 137.5 -40.5t50.5 -107.5q0 -111 -117 -168q91 -39 91 -133t-72.5 -146t-175.5 -52q-93 0 -152 59z" />
    <glyph glyph-name="oneeighth" unicode="&#x215b;" horiz-adv-x="1228" 
d="M20 0q-22 0 -29 17.5t5 37.5l827 1358q11 21 35 21h121q20 0 27 -18t-5 -38l-827 -1358q-15 -20 -33 -20h-121zM145 827q-16 0 -16 19l53 377h-104q-12 0 -12 22l14 78q3 14 18 23l156 88h131q7 0 11.5 -5.5t2.5 -13.5l-80 -569q-4 -19 -20 -19h-154zM590 137
q0 39 18.5 73t45.5 54.5t44.5 31t27.5 15.5h1v2q-28 12 -53 44.5t-25 80.5q0 84 73.5 136.5t172.5 52.5q86 0 143.5 -42t57.5 -110q0 -63 -38.5 -105.5t-80.5 -56.5v-2q37 -9 66.5 -43t29.5 -90q0 -86 -76.5 -142t-193.5 -56q-97 0 -155 44t-58 113zM823 428q-2 -19 8.5 -31
t28.5 -12q20 0 35 12t16 31q3 20 -7 32.5t-30 12.5q-19 0 -33.5 -12.5t-17.5 -32.5zM784 182q-3 -22 9 -36.5t34 -14.5t39.5 14.5t20.5 36.5q2 22 -10.5 36.5t-34.5 14.5t-39.5 -15t-18.5 -36z" />
    <glyph glyph-name="threeeighths" unicode="&#x215c;" horiz-adv-x="1228" 
d="M113 807q-93 0 -152 59q-21 21 -2 45l49 66q20 23 43 8q27 -18 60 -18q23 0 37 15t14 44q0 41 -37 41h-66q-21 0 -16 33l8 69q3 35 41 35h51q15 0 29 16t14 42q0 36 -32 36q-22 0 -54 -24q-8 -7 -16 -6.5t-16 14.5l-43 80q-13 26 8 43q66 49 166 49q87 0 137.5 -40
t50.5 -107q0 -111 -117 -168q90 -39 90 -133q0 -95 -72.5 -147t-174.5 -52zM20 0q-22 0 -29 17.5t5 37.5l827 1358q11 21 35 21h121q20 0 27 -18t-5 -38l-827 -1358q-15 -20 -33 -20h-121zM590 137q0 39 18.5 73t45.5 54.5t44.5 31t27.5 15.5h1v2q-28 12 -53 44.5t-25 80.5
q0 84 73.5 136.5t172.5 52.5q86 0 143.5 -42t57.5 -110q0 -63 -38.5 -105.5t-80.5 -56.5v-2q37 -9 66.5 -43t29.5 -90q0 -86 -76.5 -142t-193.5 -56q-97 0 -155 44t-58 113zM823 428q-2 -19 8.5 -31t28.5 -12q20 0 35 12t16 31q3 20 -7 32.5t-30 12.5q-19 0 -33.5 -12.5
t-17.5 -32.5zM784 182q-3 -22 9 -36.5t34 -14.5t39.5 14.5t20.5 36.5q2 22 -10.5 36.5t-34.5 14.5t-39.5 -15t-18.5 -36z" />
    <glyph glyph-name="fiveeighths" unicode="&#x215d;" horiz-adv-x="1228" 
d="M20 0q-22 0 -29 17.5t5 37.5l827 1358q11 21 35 21h121q20 0 27 -18t-5 -38l-827 -1358q-15 -20 -33 -20h-121zM109 807q-57 0 -105.5 25.5t-64.5 52.5q-12 16 2 30l65 76q17 20 37 4q31 -28 76 -28q26 0 47.5 17.5t21.5 47.5q0 23 -14 37t-35 14h-131q-13 0 -20.5 10
t-5.5 21l43 301q4 19 22 19h297q9 0 13.5 -5.5t2.5 -13.5l-14 -108q-4 -19 -22 -19h-168l-9 -59h46q78 0 131 -45.5t53 -124.5q0 -113 -71 -182.5t-197 -69.5zM590 137q0 39 18.5 73t45.5 54.5t44.5 31t27.5 15.5h1v2q-28 12 -53 44.5t-25 80.5q0 84 73.5 136.5t172.5 52.5
q86 0 143.5 -42t57.5 -110q0 -63 -38.5 -105.5t-80.5 -56.5v-2q37 -9 66.5 -43t29.5 -90q0 -86 -76.5 -142t-193.5 -56q-97 0 -155 44t-58 113zM823 428q-2 -19 8.5 -31t28.5 -12q20 0 35 12t16 31q3 20 -7 32.5t-30 12.5q-19 0 -33.5 -12.5t-17.5 -32.5zM784 182
q-3 -22 9 -36.5t34 -14.5t39.5 14.5t20.5 36.5q2 22 -10.5 36.5t-34.5 14.5t-39.5 -15t-18.5 -36z" />
    <glyph glyph-name="seveneighths" unicode="&#x215e;" horiz-adv-x="1228" 
d="M20 0q-22 0 -29 17.5t5 37.5l827 1358q11 21 35 21h121q20 0 27 -18t-5 -38l-827 -1358q-15 -20 -33 -20h-121zM-2 827q-13 0 -19.5 4.5t-5.5 14.5l2 10l248 426h-147q-8 0 -13 5t-4 11l17 117q1 7 7.5 13t12.5 6h365q6 0 11.5 -6t4.5 -13l-4 -33l-303 -536
q-14 -19 -33 -19h-139zM590 137q0 39 18.5 73t45.5 54.5t44.5 31t27.5 15.5h1v2q-28 12 -53 44.5t-25 80.5q0 84 73.5 136.5t172.5 52.5q86 0 143.5 -42t57.5 -110q0 -63 -38.5 -105.5t-80.5 -56.5v-2q37 -9 66.5 -43t29.5 -90q0 -86 -76.5 -142t-193.5 -56q-97 0 -155 44
t-58 113zM823 428q-2 -19 8.5 -31t28.5 -12q20 0 35 12t16 31q3 20 -7 32.5t-30 12.5q-19 0 -33.5 -12.5t-17.5 -32.5zM784 182q-3 -22 9 -36.5t34 -14.5t39.5 14.5t20.5 36.5q2 22 -10.5 36.5t-34.5 14.5t-39.5 -15t-18.5 -36z" />
    <glyph glyph-name="partialdiff" unicode="&#x2202;" horiz-adv-x="1167" 
d="M106 379q0 126 37.5 227t100.5 162t139.5 93t159.5 32q39 0 83.5 -13.5t71.5 -35.5q-3 60 -28.5 115t-60 93t-78.5 70t-77 49.5t-63 28.5q-21 6 -28.5 22t2.5 38l71 145q8 18 25.5 28.5t36.5 4.5q33 -11 70.5 -29t87.5 -51t96 -74.5t92 -102t79.5 -130.5t54.5 -163.5
t21 -197.5q0 -102 -17 -199t-57 -191t-99 -164t-151 -113t-206 -43q-150 0 -256.5 115.5t-106.5 283.5zM385 422q0 -71 32.5 -115.5t94.5 -44.5q81 0 131.5 71.5t50.5 164.5q0 71 -32.5 115t-94.5 44q-78 0 -130 -70t-52 -165z" />
    <glyph glyph-name="Delta" unicode="&#x2206;" horiz-adv-x="1454" 
d="M-4 0q-39 0 -51.5 21t10.5 71l752 1340q15 22 32 22h19q9 0 18 -6.5t10 -15.5l373 -1344q9 -35 -4.5 -61.5t-44.5 -26.5h-1114zM399 295l398 2l-127 512h-2z" />
    <glyph glyph-name="product" unicode="&#x220f;" horiz-adv-x="1429" 
d="M66 39l190 1356q1 15 14 27t27 12h1036q13 0 22 -12t7 -27l-191 -1356q-1 -15 -14 -27t-27 -12h-243q-14 0 -22.5 11.5t-6.5 27.5l154 1094h-477l-154 -1094q-2 -15 -14 -27t-27 -12h-246q-13 0 -21.5 12t-6.5 27z" />
    <glyph glyph-name="summation" unicode="&#x2211;" horiz-adv-x="1130" 
d="M53 39l15 100l540 609l-377 563l13 84q2 15 14 27t27 12h762q14 0 22 -11.5t6 -27.5l-31 -224q-2 -15 -13.5 -26.5t-26.5 -11.5h-316l191 -254q28 -39 18 -115l-14 -90q-8 -57 -47 -96l-256 -277h307q14 0 22 -11.5t6 -27.5l-30 -223q-2 -15 -14 -27t-27 -12h-762
q-14 0 -22.5 11.5t-6.5 27.5z" />
    <glyph glyph-name="minus" unicode="&#x2212;" horiz-adv-x="993" 
d="M12 600q-13 0 -21.5 12t-6.5 27l20 143q2 15 14 27t25 12h750q13 0 20.5 -11.5t5.5 -27.5l-20 -143q-1 -15 -13 -27t-26 -12h-748z" />
    <glyph glyph-name="uni2215" unicode="&#x2215;" horiz-adv-x="231" 
d="M-139 20q-15 -20 -33 -20h-121q-22 0 -29 17.5t5 37.5l827 1358q10 21 35 21h121q20 0 27 -18t-5 -38z" />
    <glyph glyph-name="uni2219" unicode="&#x2219;" horiz-adv-x="747" 
d="M324 305q-78 0 -131.5 56.5t-53.5 134.5q0 100 74.5 173.5t171.5 73.5q84 0 138.5 -56.5t54.5 -139.5q0 -97 -77.5 -169.5t-176.5 -72.5z" />
    <glyph glyph-name="radical" unicode="&#x221a;" horiz-adv-x="1425" 
d="M424 2l-213 764q-6 20 5.5 36.5t31.5 16.5h203q10 0 18 -7t10 -15l58 -217h10l436 831q14 23 35 23h403q15 0 24.5 -11t6.5 -28l-27 -183q-2 -15 -13 -26.5t-26 -11.5h-225l-657 -1172q-15 -22 -33 -22h-18q-22 0 -29 22z" />
    <glyph glyph-name="infinity" unicode="&#x221e;" horiz-adv-x="1200" 
d="M377 319q-102 0 -172 85.5t-53 201.5q16 127 90 207t198 80q53 0 103.5 -29.5t79.5 -72.5q83 102 196 102q108 0 176.5 -84t53.5 -203q-18 -124 -95.5 -205.5t-197.5 -81.5q-54 0 -104.5 29t-80.5 74q-81 -103 -194 -103zM766 528q31 0 55 23t29 55q5 34 -13 57t-49 23
q-29 0 -51.5 -23t-27.5 -57q-5 -33 11.5 -55.5t45.5 -22.5zM408 528q31 0 55 23t29 55q5 34 -13 57t-49 23q-29 0 -52.5 -23t-27.5 -57q-5 -32 12 -55t46 -23z" />
    <glyph glyph-name="integral" unicode="&#x222b;" horiz-adv-x="724" 
d="M98 -188l168 1198q29 211 153 327.5t318 116.5q73 0 127 -25t76 -53q18 -27 0 -51l-113 -156q-9 -12 -21.5 -16t-21.5 2q-26 16 -73 16q-43 0 -81.5 -42t-49.5 -121l-168 -1198q-29 -212 -152.5 -328.5t-320.5 -116.5q-70 0 -122.5 25t-78.5 53q-19 23 -2 51l106 154
q7 11 20.5 15t22.5 -1q32 -14 80 -14q43 0 82.5 42.5t50.5 121.5z" />
    <glyph glyph-name="approxequal" unicode="&#x2248;" horiz-adv-x="878" 
d="M174 633l-82 84q-6 8 -5 19.5t9 19.5q1 2 12 17t21.5 28t28 32t37.5 34t43.5 29t52.5 22t59 8q27 0 55 -12.5t41.5 -23t42.5 -34.5q5 -4 17 -14.5t19 -15.5t18.5 -12t23 -10t23.5 -3q18 0 38 15t33.5 31t29.5 37q3 5 5 7q23 26 43 2l78 -82q10 -24 -4 -41
q-12 -18 -26.5 -36t-49 -53t-80.5 -57t-94 -22q-26 0 -50 9t-35 16.5t-34.5 28.5t-29.5 26q-19 16 -27 22.5t-24.5 13.5t-32.5 7q-46 0 -113 -88q-10 -13 -23.5 -14t-19.5 10zM119 231l-82 84q-6 8 -5 19.5t9 19.5q1 2 12 17t21.5 28t28 32t37.5 34t43.5 29t52.5 22t59 8
q27 0 55 -12t42.5 -23t41.5 -34q3 -2 21 -17t25.5 -20.5t23.5 -12t31 -6.5q18 0 38 15t33.5 31t29.5 37q3 5 5 7q23 26 43 3l78 -82q10 -24 -4 -41q-12 -18 -26.5 -36t-49 -53t-80.5 -57t-94 -22q-26 0 -50 9t-35 16.5t-35 29t-30 25.5q-19 16 -27 22.5t-24.5 13.5t-32.5 7
q-45 0 -112 -88q-10 -13 -23.5 -14.5t-19.5 9.5z" />
    <glyph glyph-name="notequal" unicode="&#x2260;" horiz-adv-x="878" 
d="M143 98q-12 6 -15.5 20.5t3.5 28.5l53 99h-123q-14 0 -22 11.5t-6 27.5l20 145q2 15 13 27t26 12h225l109 209h-303q-15 0 -24 12t-7 27l21 143q2 15 14 27t27 12h401l86 152q7 15 22 20t27 -2l29 -16q26 -16 10 -49l-57 -105h123q14 0 22 -11.5t6 -27.5l-20 -143
q-2 -15 -13 -27t-26 -12h-223l-109 -209h301q15 0 24 -12t7 -27l-21 -145q-2 -15 -14 -27t-27 -12h-401l-80 -148q-7 -13 -22 -17.5t-27 1.5z" />
    <glyph glyph-name="lessequal" unicode="&#x2264;" horiz-adv-x="937" 
d="M109 784q-17 10 -15 35l4 31q3 24 25 35l745 372q22 11 36 1.5t11 -33.5l-26 -189q-3 -20 -19 -28l-407 -181l358 -172q13 -7 10 -28l-22 -168q-3 -25 -21.5 -35t-35.5 2zM33 80q-13 0 -23 12t-8 27l21 143q1 15 13.5 27t26.5 12h691q13 0 20.5 -11.5t5.5 -27.5l-20 -143
q-2 -15 -13 -27t-24 -12h-690z" />
    <glyph glyph-name="greaterequal" unicode="&#x2265;" horiz-adv-x="937" 
d="M90 426q-22 -11 -35.5 -1t-9.5 34l27 188q3 22 18 29l408 172l-359 180q-13 7 -10 29l23 168q3 24 19.5 33.5t35.5 -1.5l643 -372q15 -11 12 -35l-4 -31q-2 -23 -22 -35zM25 80q-13 0 -21 12t-6 27l18 143q2 15 14 27t25 12h690q13 0 22 -12t7 -27l-20 -143
q-2 -15 -14 -27t-25 -12h-690z" />
    <glyph glyph-name="lozenge" unicode="&#x25ca;" horiz-adv-x="1454" 
d="M588 23l-367 620q-21 33 -12 83t47 93l530 613q22 22 35 22h19q15 0 28 -22l361 -613q53 -92 -29 -186l-530 -610q-23 -23 -33 -23h-19q-16 0 -30 23zM680 418h2l264 323l-172 295h-2l-260 -321z" />
    <glyph glyph-name="uniF8FF" unicode="&#xf8ff;" horiz-adv-x="1226" 
d="M102 61v1311q0 62 62 62h899q32 0 46.5 -15t14.5 -47v-1311q0 -32 -14.5 -46.5t-46.5 -14.5h-899q-32 0 -47 14.5t-15 46.5zM537 643q0 -10 8.5 -17.5t19.5 -7.5h74q31 0 31 27v53q0 23 16 44.5t40 39t51.5 40.5t51.5 46.5t40 59.5t16 78q0 99 -73 163t-183 64
q-50 0 -96 -13t-75.5 -31.5t-52.5 -36.5t-33 -31l-10 -13q-16 -24 0 -37l46 -45q17 -11 34 0q1 1 15 14.5t20.5 19t23.5 17.5t31.5 17.5t36.5 10.5t45 5q59 0 92 -31t33 -75q0 -35 -21 -65t-50.5 -53t-59 -47.5t-50.5 -59.5t-21 -77v-59zM502 319q0 -40 29 -69t69 -29
q41 0 70.5 29t29.5 69t-29.5 69.5t-70.5 29.5q-40 0 -69 -29.5t-29 -69.5z" />
    <glyph glyph-name="CR" horiz-adv-x="0" 
 />
    <glyph glyph-name="grave.cap" horiz-adv-x="557" 
d="M297 1561l-322 168q-12 7 -14 22t12 39l80 113q19 29 49 6l291 -213q8 -5 10.5 -16t-4.5 -23l-49 -78q-21 -35 -53 -18z" />
    <glyph glyph-name="acute.cap" horiz-adv-x="557" 
d="M31 1561q-34 -15 -47 18l-37 96q-4 11 1 22.5t15 16.5l352 213q8 8 26 6t26 -20l53 -123q7 -24 0.5 -39t-21.5 -22z" />
    <glyph glyph-name="circumflex.cap" horiz-adv-x="688" 
d="M43 1561q-25 -15 -39 8l-55 96q-12 21 16 39l285 213q29 20 49 0l233 -213q20 -20 7 -39l-74 -94q-7 -10 -20 -12.5t-19 2.5l-166 122z" />
    <glyph glyph-name="caron.cap" horiz-adv-x="688" 
d="M207 1561l-234 213q-19 19 -6 38l74 95q7 10 20 12.5t19 -2.5l166 -123l217 123q25 15 39 -8l55 -97q12 -21 -16 -38l-285 -213q-29 -20 -49 0z" />
    <glyph glyph-name="caron.alt" horiz-adv-x="688" 
d="M346 1454q56 0 101 -47.5t45 -142.5q0 -245 -230 -414q-24 -19 -37 -2l-28 39q-18 25 10 43q13 8 33.5 26t49.5 49t53 77t32 94l-36 -10q-25 -5 -50 -5q-52 0 -86.5 36.5t-34.5 90.5q0 68 52 117t126 49z" />
    <glyph glyph-name="tilde.cap" horiz-adv-x="700" 
d="M25 1608l-66 57q-17 17 -4 47q9 20 25.5 44.5t44 55.5t67 51.5t80.5 20.5q35 0 69 -24t65 -48t61 -24q21 0 40.5 18t30.5 39q18 35 51 10l64 -53q9 -12 7 -22.5t-13 -36.5q-7 -17 -21.5 -39.5t-39.5 -52t-63 -49t-79 -19.5q-32 0 -62.5 15.5t-49.5 33.5t-42.5 33.5
t-44.5 15.5q-39 0 -71 -61q-8 -16 -21.5 -19.5t-27.5 7.5z" />
    <glyph glyph-name="dieresis.cap" horiz-adv-x="874" 
d="M571 1573q-54 0 -85.5 42.5t-22.5 102.5q8 60 50.5 102t96.5 42t87 -42t26 -102q-9 -60 -53.5 -102.5t-98.5 -42.5zM82 1573q-54 0 -86 42.5t-23 102.5q7 60 50.5 102t97.5 42t86.5 -42t25.5 -102q-9 -60 -53 -102.5t-98 -42.5z" />
    <glyph glyph-name="macron.cap" horiz-adv-x="763" 
d="M33 1640q-15 0 -24 11t-7 26l12 84q3 17 14.5 28t26.5 11h475q15 0 23.5 -11t5.5 -28l-14 -84q-3 -15 -14.5 -26t-26.5 -11h-471z" />
    <glyph glyph-name="breve.cap" horiz-adv-x="636" 
d="M203 1563q-97 0 -164 70.5t-66 174.5q0 19 12 32t29 13h88q9 0 17 -7.5t10 -16.5q6 -42 31 -70t59 -28q31 0 64 29.5t51 68.5q10 24 35 24h102q17 0 26 -13t5 -32q-25 -109 -105.5 -177t-193.5 -68z" />
    <glyph glyph-name="ring.cap" horiz-adv-x="534" 
d="M125 1540q-76 0 -132 60t-56 145q0 111 71.5 188.5t173.5 77.5q77 0 133 -60.5t56 -144.5q0 -111 -71 -188.5t-175 -77.5zM141 1686q33 0 59.5 31.5t26.5 70.5q0 31 -17.5 53.5t-43.5 22.5q-31 0 -58.5 -31t-27.5 -70q0 -31 17.5 -54t43.5 -23z" />
    <glyph glyph-name="hungarumlaut.cap" horiz-adv-x="722" 
d="M270 1573q-17 0 -26.5 12t-3.5 27l88 289q11 38 47 38h188q25 0 32.5 -15.5t-5.5 -35.5l-184 -284q-22 -31 -46 -31h-90zM-37 1573q-15 0 -25 12t-4 27l86 289q10 38 41 38h197q26 0 32.5 -15.5t-7.5 -35.5l-183 -284q-19 -31 -47 -31h-90z" />
    <glyph glyph-name="dotaccent.cap" horiz-adv-x="403" 
d="M74 1585q-58 0 -95.5 41t-37.5 100q0 75 53.5 130t124.5 55q59 0 98 -42t39 -102q0 -74 -55 -128t-127 -54z" />
    <glyph glyph-name="cedilla.cap" horiz-adv-x="454" 
d="M115 0h143l-16 -106q69 -17 103 -64t34 -115q0 -108 -61 -177.5t-162 -69.5q-42 0 -79.5 21.5t-56.5 49.5q-16 24 9 49l45 50q10 10 21.5 8.5t21.5 -11.5q18 -18 41 -18q25 0 44 21.5t19 56.5q0 28 -22 47.5t-86 26.5q-35 3 -27 36z" />
    <glyph glyph-name="ogonek.cap" horiz-adv-x="507" 
d="M190 31h140q-6 -5 -16 -13t-35 -34.5t-44 -54.5t-35 -68.5t-16 -79.5q0 -49 28.5 -81t88.5 -32q11 0 70 13q21 4 31.5 -7.5t7.5 -31.5l-11 -68q-1 -13 -11.5 -24.5t-22.5 -14.5q-43 -16 -115 -16q-98 0 -168 52t-70 146q0 54 18.5 106t44.5 88t52 64.5t45 42.5z" />
    <glyph glyph-name="commaaccent" horiz-adv-x="538" 
d="M301 -184q56 0 100.5 -48t44.5 -143q0 -244 -229 -413q-25 -19 -37 -3l-28 39q-18 25 10 43q13 8 33.5 26t49.5 49t53 77t32 94l-38 -10q-25 -4 -48 -4q-52 0 -86.5 36.5t-34.5 90.5q0 68 52 117t126 49z" />
    <glyph glyph-name="commaaccent.alt" horiz-adv-x="538" 
d="M301 -184q56 0 100.5 -48t44.5 -143q0 -244 -229 -413q-25 -19 -37 -3l-28 39q-18 25 10 43q13 8 33.5 26t49.5 49t53 77t32 94l-38 -10q-25 -4 -48 -4q-52 0 -86.5 36.5t-34.5 90.5q0 68 52 117t126 49z" />
    <glyph glyph-name="commaaccent.cap" horiz-adv-x="538" 
d="M301 -184q56 0 100.5 -48t44.5 -143q0 -244 -229 -413q-25 -19 -37 -3l-28 39q-18 25 10 43q13 8 33.5 26t49.5 49t53 77t32 94l-38 -10q-25 -4 -48 -4q-52 0 -86.5 36.5t-34.5 90.5q0 68 52 117t126 49z" />
    <glyph glyph-name="brokenbar.case" horiz-adv-x="604" 
d="M362 1049q-14 0 -22.5 10.5t-7.5 25.5l96 678q1 17 13 28t26 11h37q14 0 21.5 -11t6.5 -28l-96 -678q-1 -15 -13 -25.5t-26 -10.5h-35zM227 346q3 17 15 28t26 11h37q14 0 22 -11t7 -28l-96 -678q-1 -15 -14 -26t-27 -11h-33q-14 0 -23 11t-8 26z" />
    <glyph glyph-name="zero.tf" horiz-adv-x="1146" 
d="M496 -20q-180 0 -288 148.5t-108 397.5q0 267 69 467t202.5 311t316.5 111q179 0 287 -148.5t108 -396.5q0 -266 -71 -467.5t-204.5 -312t-311.5 -110.5zM532 293q67 0 118.5 78.5t77.5 205t26 277.5q0 116 -26.5 182t-76.5 66q-66 0 -117 -77.5t-77.5 -204.5t-26.5 -279
q0 -114 26.5 -181t75.5 -67z" />
    <glyph glyph-name="one.tf" horiz-adv-x="1146" 
d="M186 0q-15 0 -22.5 10.5t-5.5 26.5l24 186q1 17 13.5 28t27.5 11h203l98 699h-186q-14 0 -21.5 11.5t-3.5 26.5l23 138q4 18 20 30l303 226h195q13 0 21 -12t6 -27l-154 -1092h160q31 0 28 -39l-24 -186q-1 -15 -13.5 -26t-27.5 -11h-664z" />
    <glyph glyph-name="two.tf" horiz-adv-x="1146" 
d="M63 39l5 41l544 694q64 82 89.5 135t25.5 99q0 58 -38 90t-89 32q-96 0 -184 -102q-12 -12 -27 -12t-24 12l-119 135q-9 9 -7.5 25.5t13.5 28.5q6 8 17 21t50 47t81.5 60t110 47t138.5 21q179 0 282 -103.5t103 -273.5q0 -165 -170 -391l-282 -383h292q13 0 22 -12t7 -27
l-24 -184q-1 -15 -14 -27t-27 -12h-746q-14 0 -22.5 11.5t-6.5 27.5z" />
    </font>
</defs>
</svg>
